source-code-pro_regular.sfdir

StartChar: exclam
Encoding: 33 33 486
Width: 600
Flags: MW
HStem: -12 21G<280 320> -12 154<280 320>
VStem: 227 146<42 89.5> 267 66
LayerCount: 2
Fore
SplineSet
272 232 m 1x90
 262 576 l 1
 260 670 l 1
 340 670 l 1
 338 576 l 1
 328 232 l 1
 272 232 l 1x90
227 66 m 0xa0
 227 113 260 142 300 142 c 0x60
 340 142 373 113 373 66 c 0
 373 18 340 -12 300 -12 c 0
 260 -12 227 18 227 66 c 0xa0
EndSplineSet
EndChar

StartChar: quotedbl
Encoding: 34 34 491
Width: 600
Flags: MW
HStem: 352 335<157 157 157 213 387 443 387 387>
VStem: 131 108.5 360.5 108.5
LayerCount: 2
Fore
SplineSet
157 352 m 1
 132 577 l 1
 130 687 l 1
 240 687 l 1
 239 577 l 1
 213 352 l 1
 157 352 l 1
387 352 m 1
 361 577 l 1
 360 687 l 1
 470 687 l 1
 468 577 l 1
 443 352 l 1
 387 352 l 1
EndSplineSet
EndChar

StartChar: numbersign
Encoding: 35 35 533
Width: 600
Flags: MW
HStem: 0 21G<142 142 142 196 328 328 328 382> 204 57<87 166 87 173 87 220 227 353 413 499> 409 58<107 192 107 198 107 245 252 378 438 519> 630 20G<222 275 275 275 408 461 461 461>
VStem: 87 432<204 467 261 467>
LayerCount: 2
Fore
SplineSet
142 0 m 1
 166 204 l 1
 87 204 l 1
 87 261 l 1
 173 261 l 1
 192 409 l 1
 107 409 l 1
 107 467 l 1
 198 467 l 1
 222 650 l 1
 275 650 l 1
 252 467 l 1
 384 467 l 1
 408 650 l 1
 461 650 l 1
 438 467 l 1
 519 467 l 1
 519 409 l 1
 432 409 l 1
 413 261 l 1
 499 261 l 1
 499 204 l 1
 406 204 l 1
 382 0 l 1
 328 0 l 1
 353 204 l 1
 220 204 l 1
 196 0 l 1
 142 0 l 1
227 261 m 1
 359 261 l 1
 378 409 l 1
 245 409 l 1
 227 261 l 1
EndSplineSet
EndChar

StartChar: dollar
Encoding: 36 36 630
Width: 600
Flags: MW
HStem: 35 67<276 276> 550 67<336 336 336 337.5>
VStem: 114 80<412 492.5 412 507> 276 60<-110 35 35 35 617 748> 431 81<163.5 251>
LayerCount: 2
Fore
SplineSet
495 541 m 1
 451 493 l 1
 406 528 371 550 304 550 c 0
 237 550 194 518 194 467 c 0
 194 357 512 378 512 195 c 0
 512 109 441 47 336 36 c 1
 336 -110 l 1
 276 -110 l 1
 276 35 l 1
 202 41 131 74 85 113 c 1
 124 170 l 1
 174 134 235 102 310 102 c 0
 389 102 431 138 431 189 c 0
 431 313 114 291 114 465 c 0
 114 549 179 606 276 616 c 1
 276 748 l 1
 336 748 l 1
 336 617 l 1
 409 611 455 580 495 541 c 1
EndSplineSet
Substitution2: "'ss04' Style Set 4 in Latin lookup 20 subtable" dollar.a
Substitution2: "'aalt' Access All Alternates in Latin lookup 0 subtable" dollar.a
EndChar

StartChar: percent
Encoding: 37 37 649
Width: 600
Flags: MW
HStem: -12 50<412.5 456 412.5 474.5> 268 49<412.5 456> 321 49<144 187.5 144 206> 600 50<144 187.5>
VStem: 26 62<448 527 448 539> 243 62<448 527> 295 62<115.5 194.5 115.5 206.5> 512 62<115.5 194.5>
LayerCount: 2
Fore
SplineSet
166 321 m 0xbb
 85 321 26 383 26 487 c 0
 26 591 85 650 166 650 c 0
 246 650 305 591 305 487 c 0x3c
 305 383 246 321 166 321 c 0xbb
166 370 m 0x3c
 209 370 243 409 243 487 c 0
 243 567 209 600 166 600 c 0
 122 600 88 567 88 487 c 0
 88 409 122 370 166 370 c 0x3c
77 32 m 1
 29 77 l 1
 212 265 l 1
 244 235 l 1
 77 32 l 1
524 624 m 1
 572 579 l 1
 389 391 l 1
 356 421 l 1
 524 624 l 1
434 -12 m 0xc3
 354 -12 295 50 295 155 c 0
 295 258 354 317 434 317 c 0
 515 317 574 258 574 155 c 0
 574 50 515 -12 434 -12 c 0xc3
434 38 m 0
 478 38 512 76 512 155 c 0
 512 234 478 268 434 268 c 0
 391 268 357 234 357 155 c 0
 357 76 391 38 434 38 c 0
EndSplineSet
EndChar

StartChar: ampersand
Encoding: 38 38 460
Width: 600
Flags: MW
HStem: -12 66<213 268.5 213 275> 609 59<242 287>
VStem: 42 80<138.5 200.5 138.5 213> 121 71<496 541 496 556.5> 325 67<508 556>
LayerCount: 2
Fore
SplineSet
122 175 m 0xe8
 122 102 178 54 248 54 c 0
 289 54 329 74 363 106 c 1
 300 162 241 231 196 302 c 1
 154 265 122 226 122 175 c 0xe8
192 514 m 0xd8
 192 478 203 439 222 399 c 1
 278 439 325 479 325 537 c 0
 325 575 309 609 265 609 c 0
 219 609 192 568 192 514 c 0xd8
577 56 m 1
 554 -12 l 1
 511 1 465 26 417 63 c 1
 369 17 312 -12 238 -12 c 0
 122 -12 42 64 42 170 c 0xe8
 42 256 101 311 165 358 c 1
 137 412 121 466 121 513 c 0
 121 600 178 668 265 668 c 0
 346 668 392 615 392 538 c 0
 392 454 320 399 251 346 c 1
 293 279 351 214 411 162 c 1
 448 215 475 279 494 354 c 1
 570 354 l 1
 546 268 512 188 464 119 c 1
 504 88 542 67 577 56 c 1
EndSplineSet
EndChar

StartChar: quotesingle
Encoding: 39 39 490
Width: 600
Flags: MW
HStem: 352 335<272 272 272 328>
VStem: 246 108
LayerCount: 2
Fore
SplineSet
272 352 m 1
 247 577 l 1
 245 687 l 1
 355 687 l 1
 353 577 l 1
 328 352 l 1
 272 352 l 1
EndSplineSet
EndChar

StartChar: parenleft
Encoding: 40 40 511
Width: 600
Flags: MW
HStem: -176 908<433 433>
VStem: 208 74<194 362 194 374.5>
LayerCount: 2
Fore
SplineSet
433 -176 m 1
 294 -68 208 85 208 278 c 0
 208 471 294 624 433 732 c 1
 478 690 l 1
 344 577 282 446 282 278 c 0
 282 110 344 -21 478 -134 c 1
 433 -176 l 1
EndSplineSet
Substitution2: "'subs' Subscript in Latin lookup 14 subtable" parenleft.subs
Substitution2: "'sups' Superscript in Latin lookup 13 subtable" parenleft.sups
Substitution2: "'dnom' Denominators in Latin lookup 9 subtable" parenleft.dnom
Substitution2: "'numr' Numerators in Latin lookup 8 subtable" parenleft.numr
AlternateSubs2: "'aalt' Access All Alternates in Latin lookup 1 subtable" parenleft.numr parenleft.dnom parenleft.sups parenleft.subs
EndChar

StartChar: parenright
Encoding: 41 41 512
Width: 600
Flags: MW
HStem: -176 908<167 167>
VStem: 318 74<194 362>
LayerCount: 2
Fore
SplineSet
167 -176 m 1
 122 -134 l 1
 256 -21 318 110 318 278 c 0
 318 446 256 577 122 690 c 1
 167 732 l 1
 306 624 392 471 392 278 c 0
 392 85 306 -68 167 -176 c 1
EndSplineSet
Substitution2: "'subs' Subscript in Latin lookup 14 subtable" parenright.subs
Substitution2: "'sups' Superscript in Latin lookup 13 subtable" parenright.sups
Substitution2: "'dnom' Denominators in Latin lookup 9 subtable" parenright.dnom
Substitution2: "'numr' Numerators in Latin lookup 8 subtable" parenright.numr
AlternateSubs2: "'aalt' Access All Alternates in Latin lookup 1 subtable" parenright.numr parenright.dnom parenright.sups parenright.subs
EndChar

StartChar: asterisk
Encoding: 42 42 521
Width: 600
Flags: MW
HStem: 111 445<180 324 276 420>
VStem: 271.5 57
LayerCount: 2
Fore
SplineSet
180 111 m 1
 138 141 l 1
 246 306 l 1
 84 376 l 1
 100 422 l 1
 267 367 l 1
 276 556 l 1
 324 556 l 1
 333 367 l 1
 500 422 l 1
 516 376 l 1
 354 306 l 1
 462 141 l 1
 420 111 l 1
 300 270 l 1
 180 111 l 1
EndSplineSet
Substitution2: "'ss01' Style Set 1 in Latin lookup 17 subtable" asterisk.a
Substitution2: "'aalt' Access All Alternates in Latin lookup 0 subtable" asterisk.a
EndChar

StartChar: plus
Encoding: 43 43 660
Width: 600
Flags: MW
HStem: 299 62<85 267 85 267 333 515>
VStem: 267 66<104 299 104 299 361 556>
LayerCount: 2
Fore
SplineSet
267 104 m 1
 267 299 l 1
 85 299 l 1
 85 361 l 1
 267 361 l 1
 267 556 l 1
 333 556 l 1
 333 361 l 1
 515 361 l 1
 515 299 l 1
 333 299 l 1
 333 104 l 1
 267 104 l 1
EndSplineSet
EndChar

StartChar: comma
Encoding: 44 44 482
Width: 600
Flags: MW
HStem: 4 151<284.5 307>
VStem: 323 73
LayerCount: 2
Fore
SplineSet
220 -213 m 1
 197 -161 l 1
 279 -124 320 -73 323 6 c 1
 317 5 310 4 304 4 c 0
 261 4 226 29 226 79 c 0
 226 128 263 155 306 155 c 0
 365 155 396 105 396 27 c 0
 396 -90 330 -172 220 -213 c 1
EndSplineSet
Substitution2: "'subs' Subscript in Latin lookup 14 subtable" comma.subs
Substitution2: "'sups' Superscript in Latin lookup 13 subtable" comma.sups
Substitution2: "'dnom' Denominators in Latin lookup 9 subtable" comma.dnom
Substitution2: "'numr' Numerators in Latin lookup 8 subtable" comma.numr
AlternateSubs2: "'aalt' Access All Alternates in Latin lookup 1 subtable" comma.numr comma.dnom comma.sups comma.subs
EndChar

StartChar: hyphen
Encoding: 45 45 502
Width: 600
Flags: MW
HStem: 299 62<85 515 85 515>
VStem: 85 430<299 361 299 361>
LayerCount: 2
Fore
SplineSet
85 299 m 1
 85 361 l 1
 515 361 l 1
 515 299 l 1
 85 299 l 1
EndSplineSet
Substitution2: "'ss01' Style Set 1 in Latin lookup 17 subtable" hyphen.a
Substitution2: "'aalt' Access All Alternates in Latin lookup 0 subtable" hyphen.a
EndChar

StartChar: period
Encoding: 46 46 481
Width: 600
Flags: MW
HStem: -12 169<277.5 322.5>
VStem: 219 162<47 97.5>
LayerCount: 2
Fore
SplineSet
219 72 m 0
 219 123 255 157 300 157 c 0
 345 157 381 123 381 72 c 0
 381 22 345 -12 300 -12 c 0
 255 -12 219 22 219 72 c 0
EndSplineSet
Substitution2: "'subs' Subscript in Latin lookup 14 subtable" period.subs
Substitution2: "'sups' Superscript in Latin lookup 13 subtable" period.sups
Substitution2: "'dnom' Denominators in Latin lookup 9 subtable" period.dnom
Substitution2: "'numr' Numerators in Latin lookup 8 subtable" period.numr
AlternateSubs2: "'aalt' Access All Alternates in Latin lookup 1 subtable" period.numr period.dnom period.sups period.subs
EndChar

StartChar: slash
Encoding: 47 47 517
Width: 600
Flags: MW
HStem: -160 870<99 501 99 501>
VStem: 99 402
LayerCount: 2
Fore
SplineSet
501 710 m 1
 173 -160 l 1
 99 -160 l 1
 427 710 l 1
 501 710 l 1
EndSplineSet
Substitution2: "'frac' Diagonal Fractions in Latin lookup 10 subtable" slash.frac
EndChar

StartChar: zero
Encoding: 48 48 461
Width: 600
Flags: MW
HStem: -12 66<255.5 344.5 255.5 371> 261 133<283.5 316.5> 584 66<255.5 344.5>
VStem: 71 77<229.5 413 229.5 428> 238 124<307 348.5> 452 77<229.5 413>
LayerCount: 2
Fore
SplineSet
300 -12 m 0
 158 -12 71 109 71 321 c 0
 71 535 158 650 300 650 c 0
 442 650 529 535 529 321 c 0
 529 109 442 -12 300 -12 c 0
300 584 m 0
 211 584 148 505 148 321 c 0
 148 138 211 54 300 54 c 0
 389 54 452 138 452 321 c 0
 452 505 389 584 300 584 c 0
300 261 m 0
 267 261 238 286 238 328 c 0
 238 369 267 394 300 394 c 0
 333 394 362 369 362 328 c 0
 362 286 333 261 300 261 c 0
EndSplineSet
Substitution2: "'onum' Oldstyle Figures in Latin lookup 15 subtable" zero.onum
Substitution2: "'subs' Subscript in Latin lookup 14 subtable" zero.subs
Substitution2: "'sups' Superscript in Latin lookup 13 subtable" zero.sups
Substitution2: "'dnom' Denominators in Latin lookup 9 subtable" zero.dnom
Substitution2: "'numr' Numerators in Latin lookup 8 subtable" zero.numr
AlternateSubs2: "'aalt' Access All Alternates in Latin lookup 1 subtable" zero.numr zero.dnom zero.sups zero.subs zero.onum
EndChar

StartChar: one
Encoding: 49 49 462
Width: 600
Flags: MW
HStem: 0 68<98 279 361 528 98 279> 538 100<143 361>
VStem: 279 82<68 538 538 538>
LayerCount: 2
Fore
SplineSet
361 68 m 1
 528 68 l 1
 528 0 l 1
 98 0 l 1
 98 68 l 1
 279 68 l 1
 279 538 l 1
 143 538 l 1
 143 591 l 1
 211 601 260 617 300 638 c 1
 361 638 l 1
 361 68 l 1
EndSplineSet
Substitution2: "'onum' Oldstyle Figures in Latin lookup 15 subtable" one.onum
Substitution2: "'subs' Subscript in Latin lookup 14 subtable" one.subs
Substitution2: "'sups' Superscript in Latin lookup 13 subtable" one.sups
Substitution2: "'dnom' Denominators in Latin lookup 9 subtable" one.dnom
Substitution2: "'numr' Numerators in Latin lookup 8 subtable" one.numr
AlternateSubs2: "'aalt' Access All Alternates in Latin lookup 1 subtable" one.numr one.dnom one.sups one.subs one.onum
EndChar

StartChar: two
Encoding: 50 50 463
Width: 600
Flags: MW
HStem: 0 71<312 522 312 522> 583 67<239 316>
VStem: 408 79<405 494.5>
LayerCount: 2
Fore
SplineSet
73 0 m 1
 73 49 l 1
 289 240 408 352 408 458 c 0
 408 531 363 583 269 583 c 0
 209 583 157 549 116 506 c 1
 69 553 l 1
 126 611 189 650 279 650 c 0
 407 650 487 575 487 462 c 0
 487 342 367 223 193 65 c 1
 232 68 274 71 312 71 c 2
 522 71 l 1
 522 0 l 1
 73 0 l 1
EndSplineSet
Substitution2: "'onum' Oldstyle Figures in Latin lookup 15 subtable" two.onum
Substitution2: "'subs' Subscript in Latin lookup 14 subtable" two.subs
Substitution2: "'sups' Superscript in Latin lookup 13 subtable" two.sups
Substitution2: "'dnom' Denominators in Latin lookup 9 subtable" two.dnom
Substitution2: "'numr' Numerators in Latin lookup 8 subtable" two.numr
AlternateSubs2: "'aalt' Access All Alternates in Latin lookup 1 subtable" two.numr two.dnom two.sups two.subs two.onum
EndChar

StartChar: three
Encoding: 51 51 464
Width: 600
Flags: MW
HStem: -12 68<241 325.5 241 350.5> 300 63<203 278.5 203 287> 583 67<252 321>
VStem: 203 157<332 336 332 363 332 363> 412 84<449.5 513> 435 83<137.5 211>
LayerCount: 2
Fore
SplineSet
57 78 m 1xf4
 99 132 l 1
 141 92 200 56 282 56 c 0
 369 56 435 102 435 173 c 0xf4
 435 249 371 300 203 300 c 1
 203 363 l 1
 354 363 412 415 412 482 c 0
 412 544 360 583 282 583 c 0
 222 583 167 556 125 518 c 1
 81 570 l 1
 134 616 203 650 285 650 c 0
 405 650 496 591 496 488 c 0xf8
 496 411 439 362 360 336 c 1
 360 332 l 1
 445 314 518 258 518 170 c 0
 518 57 414 -12 287 -12 c 0
 177 -12 104 31 57 78 c 1xf4
EndSplineSet
Substitution2: "'onum' Oldstyle Figures in Latin lookup 15 subtable" three.onum
Substitution2: "'subs' Subscript in Latin lookup 14 subtable" three.subs
Substitution2: "'sups' Superscript in Latin lookup 13 subtable" three.sups
Substitution2: "'dnom' Denominators in Latin lookup 9 subtable" three.dnom
Substitution2: "'numr' Numerators in Latin lookup 8 subtable" three.numr
AlternateSubs2: "'aalt' Access All Alternates in Latin lookup 1 subtable" three.numr three.dnom three.sups three.subs three.onum
EndChar

StartChar: four
Encoding: 52 52 465
Width: 600
Flags: MW
HStem: 0 21G<368 446 368 368> 176 66<130 368 130 368 446 545> 553 85<368 373 368 368>
VStem: 368 78<0 176 0 176 242 440 440 440 553 553>
LayerCount: 2
Fore
SplineSet
130 242 m 1
 368 242 l 1
 368 440 l 1
 369 475 371 518 373 553 c 1
 368 553 l 1
 348 522 324 491 303 460 c 1
 130 242 l 1
545 242 m 1
 545 176 l 1
 446 176 l 1
 446 0 l 1
 368 0 l 1
 368 176 l 1
 39 176 l 1
 39 231 l 1
 358 638 l 1
 446 638 l 1
 446 242 l 1
 545 242 l 1
EndSplineSet
Substitution2: "'onum' Oldstyle Figures in Latin lookup 15 subtable" four.onum
Substitution2: "'subs' Subscript in Latin lookup 14 subtable" four.subs
Substitution2: "'sups' Superscript in Latin lookup 13 subtable" four.sups
Substitution2: "'dnom' Denominators in Latin lookup 9 subtable" four.dnom
Substitution2: "'numr' Numerators in Latin lookup 8 subtable" four.numr
AlternateSubs2: "'aalt' Access All Alternates in Latin lookup 1 subtable" four.numr four.dnom four.sups four.subs four.onum
EndChar

StartChar: five
Encoding: 53 53 466
Width: 600
Flags: MW
HStem: -12 68<234 322 234 347> 342 62<278.5 329.5> 567 71<202 490 202 202>
VStem: 439 83<157.5 246>
LayerCount: 2
Fore
SplineSet
56 75 m 1
 97 129 l 1
 139 91 191 56 277 56 c 0
 367 56 439 113 439 202 c 0
 439 290 377 342 282 342 c 0
 229 342 197 328 152 303 c 1
 108 331 l 1
 129 638 l 1
 490 638 l 1
 490 567 l 1
 202 567 l 1
 185 378 l 1
 222 394 254 404 303 404 c 0
 425 404 522 342 522 204 c 0
 522 66 408 -12 286 -12 c 0
 172 -12 105 31 56 75 c 1
EndSplineSet
Substitution2: "'onum' Oldstyle Figures in Latin lookup 15 subtable" five.onum
Substitution2: "'subs' Subscript in Latin lookup 14 subtable" five.subs
Substitution2: "'sups' Superscript in Latin lookup 13 subtable" five.sups
Substitution2: "'dnom' Denominators in Latin lookup 9 subtable" five.dnom
Substitution2: "'numr' Numerators in Latin lookup 8 subtable" five.numr
AlternateSubs2: "'aalt' Access All Alternates in Latin lookup 1 subtable" five.numr five.dnom five.sups five.subs five.onum
EndChar

StartChar: six
Encoding: 54 54 467
Width: 600
Flags: MW
HStem: -12 65<274.5 359 274.5 378> 328 62<303 364> 581 69<298 373>
VStem: 77 77 456 78<151 236.5>
LayerCount: 2
Fore
SplineSet
321 53 m 0
 397 53 456 109 456 193 c 0
 456 280 408 328 320 328 c 0
 270 328 211 304 157 242 c 1
 169 119 228 53 321 53 c 0
522 582 m 1
 476 531 l 1
 443 562 397 581 349 581 c 0
 247 581 157 512 154 307 c 1
 205 358 271 390 335 390 c 0
 453 390 534 324 534 193 c 0
 534 71 435 -12 321 -12 c 0
 182 -12 77 90 77 295 c 0
 77 551 205 650 344 650 c 0
 422 650 480 621 522 582 c 1
EndSplineSet
Substitution2: "'onum' Oldstyle Figures in Latin lookup 15 subtable" six.onum
Substitution2: "'subs' Subscript in Latin lookup 14 subtable" six.subs
Substitution2: "'sups' Superscript in Latin lookup 13 subtable" six.sups
Substitution2: "'dnom' Denominators in Latin lookup 9 subtable" six.dnom
Substitution2: "'numr' Numerators in Latin lookup 8 subtable" six.numr
AlternateSubs2: "'aalt' Access All Alternates in Latin lookup 1 subtable" six.numr six.dnom six.sups six.subs six.onum
EndChar

StartChar: seven
Encoding: 55 55 468
Width: 600
Flags: MW
HStem: 0 21G<226 226 226 312> 567 71<70 438 70 532>
VStem: 226 86<0 0>
LayerCount: 2
Fore
SplineSet
226 0 m 1
 237 242 292 388 438 567 c 1
 70 567 l 1
 70 638 l 1
 532 638 l 1
 532 587 l 1
 363 394 321 250 312 0 c 1
 226 0 l 1
EndSplineSet
Substitution2: "'onum' Oldstyle Figures in Latin lookup 15 subtable" seven.onum
Substitution2: "'subs' Subscript in Latin lookup 14 subtable" seven.subs
Substitution2: "'sups' Superscript in Latin lookup 13 subtable" seven.sups
Substitution2: "'dnom' Denominators in Latin lookup 9 subtable" seven.dnom
Substitution2: "'numr' Numerators in Latin lookup 8 subtable" seven.numr
AlternateSubs2: "'aalt' Access All Alternates in Latin lookup 1 subtable" seven.numr seven.dnom seven.sups seven.subs seven.onum
EndChar

StartChar: eight
Encoding: 56 56 469
Width: 600
Flags: MW
HStem: -12 61<255 351.5 255 375> 589 61<267.5 345>
VStem: 68 75<135.5 203 135.5 207> 108 75<452.5 517 448 535> 432 71<452.5 507.5> 452 79<128 203.5 110.5 205.5>
LayerCount: 2
Fore
SplineSet
143 171 m 0xe4
 143 100 206 49 304 49 c 0
 399 49 452 95 452 161 c 0
 452 250 364 272 252 310 c 1
 190 276 143 235 143 171 c 0xe4
352 348 m 1xd8
 404 386 432 429 432 476 c 0
 432 539 387 589 303 589 c 0
 232 589 183 548 183 486 c 0
 183 410 257 378 352 348 c 1xd8
68 163 m 0xe4
 68 251 137 301 205 333 c 1
 205 337 l 1
 152 370 108 419 108 486 c 0
 108 584 191 650 305 650 c 0
 430 650 503 579 503 480 c 0xd8
 503 420 459 365 406 328 c 1
 406 324 l 1
 476 289 531 249 531 158 c 0
 531 63 448 -12 302 -12 c 0
 158 -12 68 62 68 163 c 0xe4
EndSplineSet
Substitution2: "'onum' Oldstyle Figures in Latin lookup 15 subtable" eight.onum
Substitution2: "'subs' Subscript in Latin lookup 14 subtable" eight.subs
Substitution2: "'sups' Superscript in Latin lookup 13 subtable" eight.sups
Substitution2: "'dnom' Denominators in Latin lookup 9 subtable" eight.dnom
Substitution2: "'numr' Numerators in Latin lookup 8 subtable" eight.numr
AlternateSubs2: "'aalt' Access All Alternates in Latin lookup 1 subtable" eight.numr eight.dnom eight.sups eight.subs eight.onum
EndChar

StartChar: nine
Encoding: 57 57 470
Width: 600
Flags: MW
HStem: -12 68<227.5 302.5 227.5 326> 248 62<236.5 297.5> 585 65<242 327>
VStem: 67 78<401.5 487 401.5 506> 446 78
LayerCount: 2
Fore
SplineSet
281 310 m 0
 330 310 389 334 444 395 c 1
 431 519 374 585 280 585 c 0
 204 585 145 529 145 445 c 0
 145 358 192 310 281 310 c 0
79 55 m 1
 125 107 l 1
 157 76 203 56 252 56 c 0
 353 56 442 126 446 330 c 1
 394 279 330 248 265 248 c 0
 147 248 67 314 67 445 c 0
 67 567 166 650 279 650 c 0
 418 650 524 548 524 343 c 0
 524 87 395 -12 257 -12 c 0
 179 -12 121 17 79 55 c 1
EndSplineSet
Substitution2: "'onum' Oldstyle Figures in Latin lookup 15 subtable" nine.onum
Substitution2: "'subs' Subscript in Latin lookup 14 subtable" nine.subs
Substitution2: "'sups' Superscript in Latin lookup 13 subtable" nine.sups
Substitution2: "'dnom' Denominators in Latin lookup 9 subtable" nine.dnom
Substitution2: "'numr' Numerators in Latin lookup 8 subtable" nine.numr
AlternateSubs2: "'aalt' Access All Alternates in Latin lookup 1 subtable" nine.numr nine.dnom nine.sups nine.subs nine.onum
EndChar

StartChar: colon
Encoding: 58 58 483
Width: 600
Flags: MW
HStem: -12 169<277.5 322.5> 346 169<277.5 322.5>
VStem: 219 162<47 97.5 405.5 456>
LayerCount: 2
Fore
SplineSet
219 431 m 0
 219 481 255 515 300 515 c 0
 345 515 381 481 381 431 c 0
 381 380 345 346 300 346 c 0
 255 346 219 380 219 431 c 0
219 72 m 0
 219 123 255 157 300 157 c 0
 345 157 381 123 381 72 c 0
 381 22 345 -12 300 -12 c 0
 255 -12 219 22 219 72 c 0
EndSplineSet
EndChar

StartChar: semicolon
Encoding: 59 59 484
Width: 600
Flags: MW
HStem: 4 151<284.5 307> 346 169<277.5 322.5>
VStem: 219 162<405.5 456> 323 73
LayerCount: 2
Fore
SplineSet
300 346 m 0xe0
 255 346 219 380 219 431 c 0
 219 481 255 515 300 515 c 0
 345 515 381 481 381 431 c 0
 381 380 345 346 300 346 c 0xe0
220 -213 m 1
 197 -161 l 1
 279 -124 320 -73 323 6 c 1
 317 5 310 4 304 4 c 0
 261 4 226 29 226 79 c 0
 226 128 263 155 306 155 c 0
 365 155 396 105 396 27 c 0xd0
 396 -90 330 -172 220 -213 c 1
EndSplineSet
EndChar

StartChar: less
Encoding: 60 60 666
Width: 600
Flags: MW
HStem: 48 568<493 493>
VStem: 120 72<330 334 330 363 330 363>
LayerCount: 2
Fore
SplineSet
120 301 m 1
 120 363 l 1
 493 616 l 1
 493 537 l 1
 192 334 l 1
 192 330 l 1
 493 127 l 1
 493 48 l 1
 120 301 l 1
EndSplineSet
EndChar

StartChar: equal
Encoding: 61 61 665
Width: 600
Flags: MW
HStem: 192 62<85 515 85 515> 406 62<85 515 85 515>
VStem: 85 430<192 254 192 254 406 468 192 468>
LayerCount: 2
Fore
SplineSet
85 406 m 1
 85 468 l 1
 515 468 l 1
 515 406 l 1
 85 406 l 1
85 192 m 1
 85 254 l 1
 515 254 l 1
 515 192 l 1
 85 192 l 1
EndSplineSet
EndChar

StartChar: greater
Encoding: 62 62 667
Width: 600
Flags: MW
HStem: 48 568<107 107>
VStem: 408 72<330 334 334 334>
LayerCount: 2
Fore
SplineSet
480 363 m 1
 480 301 l 1
 107 48 l 1
 107 127 l 1
 408 330 l 1
 408 334 l 1
 107 537 l 1
 107 616 l 1
 480 363 l 1
EndSplineSet
EndChar

StartChar: question
Encoding: 63 63 488
Width: 600
Flags: MW
HStem: -12 21G<266 306> -12 154<266 306> 614 68<262.5 324.5>
VStem: 213 146<42 89.5> 398 81<466 544.5>
LayerCount: 2
Fore
SplineSet
242 232 m 1xb8
 218 375 398 415 398 517 c 0
 398 572 361 614 288 614 c 0
 237 614 194 592 158 556 c 1
 109 601 l 1
 154 648 216 682 293 682 c 0
 404 682 479 621 479 526 c 0
 479 395 297 362 315 232 c 1
 242 232 l 1xb8
213 66 m 0
 213 113 246 142 286 142 c 0x78
 326 142 359 113 359 66 c 0
 359 18 326 -12 286 -12 c 0
 246 -12 213 18 213 66 c 0
EndSplineSet
EndChar

StartChar: at
Encoding: 64 64 531
Width: 600
Flags: MW
HStem: -144 55<278 373 278 374> 88 58<345.5 379> 580 55<279 391.5>
VStem: 49 63<140 357.5 140 377.5> 224 66<197.5 251.5 197.5 270> 482 64<210 336 336 336>
LayerCount: 2
Fore
SplineSet
546 397 m 2
 546 100 l 1
 496 100 l 1
 489 158 l 1
 485 158 l 1
 456 121 405 88 353 88 c 0
 282 88 224 138 224 219 c 0
 224 321 318 369 488 390 c 1
 488 404 l 2
 488 500 444 580 339 580 c 0
 219 580 112 468 112 247 c 0
 112 33 213 -89 343 -89 c 0
 403 -89 445 -73 484 -44 c 1
 512 -89 l 1
 460 -125 407 -144 341 -144 c 0
 183 -144 49 -7 49 250 c 0
 49 505 178 635 343 635 c 0
 481 635 546 532 546 397 c 2
290 221 m 0
 290 174 321 146 370 146 c 0
 406 146 445 168 482 210 c 1
 482 336 l 1
 344 317 290 282 290 221 c 0
EndSplineSet
Substitution2: "'case' Case-Sensitive Forms in Latin lookup 16 subtable" at.case
Substitution2: "'aalt' Access All Alternates in Latin lookup 0 subtable" at.case
EndChar

StartChar: A
Encoding: 65 65 2
Width: 600
GlyphClass: 2
Flags: MW
HStem: 0 21G<32 117 32 32 480 568 480 480> 200 67<201 397 201 418 180 397> 588 68<297 301 297 297>
VStem: 32 536<0 0>
AnchorPoint: "Anchor-4" 495 0 basechar 0
AnchorPoint: "Anchor-2" 300 -22 basechar 0
AnchorPoint: "Anchor-0" 300 678 basechar 0
LayerCount: 2
Fore
SplineSet
201 267 m 1
 397 267 l 1
 366 367 l 2
 343 440 322 512 301 588 c 1
 297 588 l 1
 276 512 255 440 232 367 c 2
 201 267 l 1
480 0 m 1
 418 200 l 1
 180 200 l 1
 117 0 l 1
 32 0 l 1
 253 656 l 1
 347 656 l 1
 568 0 l 1
 480 0 l 1
EndSplineSet
EndChar

StartChar: B
Encoding: 66 66 3
Width: 600
GlyphClass: 2
Flags: MW
HStem: 0 66<187 286 286 298> 314 62<187 269 269 286 187 269> 590 66<187 273 187 187>
VStem: 103 84<66 66 66 314 376 590> 426 82<463.5 524.5> 463 82<151.5 236.5>
AnchorPoint: "Anchor-2" 308 -22 basechar 0
AnchorPoint: "Anchor-0" 291 678 basechar 0
LayerCount: 2
Fore
SplineSet
103 0 m 1xf4
 103 656 l 1
 283 656 l 2
 417 656 508 611 508 496 c 0xf8
 508 431 470 373 393 353 c 1
 393 349 l 1
 489 334 545 282 545 192 c 0
 545 63 444 0 298 0 c 2
 103 0 l 1xf4
187 376 m 1
 269 376 l 2
 381 376 426 416 426 489 c 0
 426 560 374 590 273 590 c 2
 187 590 l 1
 187 376 l 1
187 66 m 1
 286 66 l 2
 398 66 463 107 463 196 c 0xf4
 463 277 401 314 286 314 c 2
 187 314 l 1
 187 66 l 1
EndSplineSet
EndChar

StartChar: C
Encoding: 67 67 4
Width: 600
GlyphClass: 2
Flags: MW
HStem: -12 73<296 389 296 396> 595 73<296 386.5>
VStem: 66 86<247.5 411.5 247.5 433.5>
AnchorPoint: "Anchor-2" 347 -22 basechar 0
AnchorPoint: "Anchor-1" 347 0 basechar 0
AnchorPoint: "Anchor-0" 347 678 basechar 0
LayerCount: 2
Fore
SplineSet
66 328 m 0
 66 539 188 668 359 668 c 0
 438 668 500 630 538 588 c 1
 491 535 l 1
 457 571 414 595 359 595 c 0
 233 595 152 493 152 330 c 0
 152 165 233 61 359 61 c 0
 419 61 464 87 506 134 c 1
 554 83 l 1
 502 23 438 -12 354 -12 c 0
 189 -12 66 114 66 328 c 0
EndSplineSet
EndChar

StartChar: D
Encoding: 68 68 5
Width: 600
GlyphClass: 2
Flags: MW
HStem: 0 68<168 240 240 249> 588 68<168 240 168 168>
VStem: 85 83<68 68 68 588> 463 86<248 413.5>
AnchorPoint: "Anchor-2" 290 -22 basechar 0
AnchorPoint: "Anchor-0" 299 678 basechar 0
LayerCount: 2
Fore
SplineSet
85 0 m 1
 85 656 l 1
 245 656 l 2
 443 656 549 539 549 331 c 0
 549 122 443 0 249 0 c 2
 85 0 l 1
168 68 m 1
 240 68 l 2
 389 68 463 165 463 331 c 0
 463 496 389 588 240 588 c 2
 168 588 l 1
 168 68 l 1
EndSplineSet
EndChar

StartChar: E
Encoding: 69 69 6
Width: 600
GlyphClass: 2
Flags: MW
HStem: 0 71<199 530 199 530> 309 71<199 470 199 470> 586 70<199 520 199 199>
VStem: 115 84<71 309 380 586>
AnchorPoint: "Anchor-4" 425 0 basechar 0
AnchorPoint: "Anchor-2" 332 -22 basechar 0
AnchorPoint: "Anchor-0" 331 678 basechar 0
LayerCount: 2
Fore
SplineSet
115 0 m 1
 115 656 l 1
 520 656 l 1
 520 586 l 1
 199 586 l 1
 199 380 l 1
 470 380 l 1
 470 309 l 1
 199 309 l 1
 199 71 l 1
 530 71 l 1
 530 0 l 1
 115 0 l 1
EndSplineSet
EndChar

StartChar: F
Encoding: 70 70 7
Width: 600
GlyphClass: 2
Flags: MW
HStem: 0 21G<135 135 135 218> 294 70<218 487 218 487> 586 70<218 536 218 218>
VStem: 135 83<0 294 364 586>
AnchorPoint: "Anchor-2" 188 -22 basechar 0
AnchorPoint: "Anchor-0" 339 678 basechar 0
LayerCount: 2
Fore
SplineSet
135 0 m 1
 135 656 l 1
 536 656 l 1
 536 586 l 1
 218 586 l 1
 218 364 l 1
 487 364 l 1
 487 294 l 1
 218 294 l 1
 218 0 l 1
 135 0 l 1
EndSplineSet
EndChar

StartChar: H
Encoding: 72 72 9
Width: 600
GlyphClass: 2
Flags: MW
HStem: 0 21G<79 79 79 163 437 437 437 521> 309 72<163 437 163 437> 636 20G<79 163 163 163 437 521 521 521>
VStem: 79 84<0 309 381 656> 437 84<0 309 309 309 381 656 0 656>
AnchorPoint: "Anchor-2" 299 -22 basechar 0
AnchorPoint: "Anchor-0" 299 678 basechar 0
LayerCount: 2
Fore
SplineSet
79 0 m 1
 79 656 l 1
 163 656 l 1
 163 381 l 1
 437 381 l 1
 437 656 l 1
 521 656 l 1
 521 0 l 1
 437 0 l 1
 437 309 l 1
 163 309 l 1
 163 0 l 1
 79 0 l 1
EndSplineSet
EndChar

StartChar: J
Encoding: 74 74 11
Width: 600
GlyphClass: 2
Flags: MW
HStem: -12 73<248.5 321 248.5 357.5> 587 70<135 410 135 493>
VStem: 410 83<217 587 587 587>
AnchorPoint: "Anchor-2" 301 -22 basechar 0
AnchorPoint: "Anchor-0" 321 678 basechar 0
LayerCount: 2
Fore
SplineSet
81 97 m 1
 135 147 l 1
 173 89 223 61 274 61 c 0
 368 61 410 109 410 217 c 2
 410 587 l 1
 135 587 l 1
 135 657 l 1
 493 657 l 1
 493 210 l 2
 493 88 439 -12 276 -12 c 0
 202 -12 126 21 81 97 c 1
EndSplineSet
EndChar

StartChar: K
Encoding: 75 75 12
Width: 600
GlyphClass: 2
Flags: MW
HStem: 0 21G<98 98 98 182 486 486 486 579> 636 20G<98 182 182 182 461 555 555 555>
VStem: 98 84<0 208 327 656>
AnchorPoint: "Anchor-2" 338 -22 basechar 0
AnchorPoint: "Anchor-0" 321 678 basechar 0
LayerCount: 2
Fore
SplineSet
98 0 m 1
 98 656 l 1
 182 656 l 1
 182 327 l 1
 185 327 l 1
 461 656 l 1
 555 656 l 1
 348 406 l 1
 579 0 l 1
 486 0 l 1
 296 341 l 1
 182 208 l 1
 182 0 l 1
 98 0 l 1
EndSplineSet
EndChar

StartChar: L
Encoding: 76 76 13
Width: 600
GlyphClass: 2
Flags: MW
HStem: 0 71<216 541 216 541> 636 20G<134 216 216 216>
VStem: 134 82<71 656 71 656 71 656>
AnchorPoint: "Anchor-2" 346 -22 basechar 0
AnchorPoint: "Anchor-0" 190 678 basechar 0
LayerCount: 2
Fore
SplineSet
134 0 m 1
 134 656 l 1
 216 656 l 1
 216 71 l 1
 541 71 l 1
 541 0 l 1
 134 0 l 1
EndSplineSet
EndChar

StartChar: M
Encoding: 77 77 14
Width: 600
GlyphClass: 2
Flags: MW
HStem: 0 21G<81 81 81 151 448 448 448 519> 178 93<299 303 299 322 277 303> 571 85<140 143 140 140 455 458 455 455>
VStem: 81 70<0 369 0 656> 448 71<0 369 369 396>
AnchorPoint: "Anchor-2" 300 -22 basechar 0
AnchorPoint: "Anchor-0" 300 678 basechar 0
LayerCount: 2
Fore
SplineSet
81 0 m 1
 81 656 l 1
 173 656 l 1
 266 377 l 1
 299 271 l 1
 303 271 l 1
 335 377 l 1
 427 656 l 1
 519 656 l 1
 519 0 l 1
 448 0 l 1
 448 369 l 2
 448 423 454 518 458 571 c 1
 455 571 l 1
 412 431 l 1
 322 178 l 1
 277 178 l 1
 187 431 l 1
 143 571 l 1
 140 571 l 1
 144 518 151 423 151 369 c 2
 151 0 l 1
 81 0 l 1
EndSplineSet
EndChar

StartChar: N
Encoding: 78 78 15
Width: 600
GlyphClass: 2
Flags: MW
HStem: 0 21G<83 83 83 162 432 432 432 517> 0 108<432 449 447 449 447 517> 548 108<151 153 151 151> 636 20G<83 168 168 168 438 517 517 517>
VStem: 83 79<0 343 0 656> 438 79<316 656 0 656>
AnchorPoint: "Anchor-2" 300 -22 basechar 0
AnchorPoint: "Anchor-0" 306 678 basechar 0
LayerCount: 2
Fore
SplineSet
83 0 m 1x9c
 83 656 l 1
 168 656 l 1
 381 242 l 1
 447 108 l 1
 449 108 l 1x5c
 446 173 438 247 438 316 c 2
 438 656 l 1
 517 656 l 1
 517 0 l 1
 432 0 l 1
 219 414 l 1
 153 548 l 1
 151 548 l 1xac
 154 481 162 411 162 343 c 2
 162 0 l 1
 83 0 l 1x9c
EndSplineSet
EndChar

StartChar: O
Encoding: 79 79 16
Width: 600
GlyphClass: 2
Flags: MW
HStem: -12 73<250 350 250 374> 595 73<250 350>
VStem: 48 86<249 412.5 249 436> 466 86<249 412.5>
AnchorPoint: "Anchor-4" 300 0 basechar 0
AnchorPoint: "Anchor-3" 420 646 basechar 0
AnchorPoint: "Anchor-2" 300 -22 basechar 0
AnchorPoint: "Anchor-0" 300 678 basechar 0
LayerCount: 2
Fore
SplineSet
300 -12 m 0
 152 -12 48 120 48 331 c 0
 48 541 152 668 300 668 c 0
 448 668 552 540 552 331 c 0
 552 120 448 -12 300 -12 c 0
300 61 m 0
 400 61 466 167 466 331 c 0
 466 494 400 595 300 595 c 0
 200 595 134 494 134 331 c 0
 134 167 200 61 300 61 c 0
EndSplineSet
EndChar

StartChar: P
Encoding: 80 80 17
Width: 600
GlyphClass: 2
Flags: MW
HStem: 0 21G<102 102 102 185> 260 68<185 292 292 303 185 292> 589 67<185 292 185 185>
VStem: 102 83<0 260 328 589> 462 83<416.5 510.5>
AnchorPoint: "Anchor-2" 149 -22 basechar 0
AnchorPoint: "Anchor-0" 315 678 basechar 0
LayerCount: 2
Fore
SplineSet
102 0 m 1
 102 656 l 1
 303 656 l 2
 448 656 545 607 545 463 c 0
 545 325 447 260 303 260 c 2
 185 260 l 1
 185 0 l 1
 102 0 l 1
185 328 m 1
 292 328 l 2
 407 328 462 370 462 463 c 0
 462 558 406 589 292 589 c 2
 185 589 l 1
 185 328 l 1
EndSplineSet
EndChar

StartChar: Q
Encoding: 81 81 18
Width: 600
GlyphClass: 2
Flags: MW
HStem: -163 71<455 493.5> -7 67 597 72<248.5 349>
VStem: 49 85<249.5 412.5 249.5 436> 463 85<249.5 412.5>
AnchorPoint: "Anchor-0" 301 686 basechar 0
LayerCount: 2
Fore
SplineSet
134 331 m 0
 134 168 198 60 299 60 c 0
 399 60 463 168 463 331 c 0
 463 494 399 597 299 597 c 0
 198 597 134 494 134 331 c 0
538 -82 m 1
 553 -149 l 1
 532 -157 508 -163 479 -163 c 0
 363 -163 291 -97 258 -8 c 1
 132 14 49 141 49 331 c 0
 49 541 150 669 299 669 c 0
 447 669 548 540 548 331 c 0
 548 144 468 18 347 -7 c 1
 369 -63 421 -92 489 -92 c 0
 509 -92 526 -87 538 -82 c 1
EndSplineSet
EndChar

StartChar: S
Encoding: 83 83 20
Width: 600
GlyphClass: 2
Flags: MW
HStem: -12 73<270 352.5 270 377> 595 73<273.5 345.5>
VStem: 98 85<467.5 528.5 467.5 544> 452 85<136 201.5>
AnchorPoint: "Anchor-2" 310 -22 basechar 0
AnchorPoint: "Anchor-1" 313 0 basechar 0
AnchorPoint: "Anchor-0" 311 678 basechar 0
LayerCount: 2
Fore
SplineSet
67 85 m 1
 117 143 l 1
 166 94 234 61 306 61 c 0
 399 61 452 104 452 168 c 0
 452 235 401 256 334 284 c 1
 240 325 l 1
 174 351 98 398 98 494 c 0
 98 594 188 668 313 668 c 0
 395 668 467 635 515 587 c 1
 471 533 l 1
 428 571 378 595 313 595 c 0
 234 595 183 558 183 499 c 0
 183 436 244 413 300 390 c 1
 392 350 l 1
 473 317 537 272 537 175 c 0
 537 71 449 -12 305 -12 c 0
 209 -12 126 26 67 85 c 1
EndSplineSet
EndChar

StartChar: T
Encoding: 84 84 21
Width: 600
GlyphClass: 2
Flags: MW
HStem: 0 21G<258 258 258 342> 586 70<42 258 42 558 342 342 342 558>
VStem: 258 84<0 586 0 586>
AnchorPoint: "Anchor-2" 300 -22 basechar 0
AnchorPoint: "Anchor-1" 300 0 basechar 0
AnchorPoint: "Anchor-0" 299 678 basechar 0
LayerCount: 2
Fore
SplineSet
258 0 m 1
 258 586 l 1
 42 586 l 1
 42 656 l 1
 558 656 l 1
 558 586 l 1
 342 586 l 1
 342 0 l 1
 258 0 l 1
EndSplineSet
EndChar

StartChar: U
Encoding: 85 85 22
Width: 600
GlyphClass: 2
Flags: MW
HStem: -12 73<261.5 340.5 261.5 365> 636 20G<79 163 163 163 440 521 521 521>
VStem: 79 84<248 656> 440 81<246 248 248 656>
AnchorPoint: "Anchor-4" 299 0 basechar 0
AnchorPoint: "Anchor-3" 503 666 basechar 0
AnchorPoint: "Anchor-2" 299 -22 basechar 0
AnchorPoint: "Anchor-0" 299 678 basechar 0
LayerCount: 2
Fore
SplineSet
79 248 m 2
 79 656 l 1
 163 656 l 1
 163 246 l 2
 163 110 222 61 301 61 c 0
 380 61 440 110 440 246 c 2
 440 656 l 1
 521 656 l 1
 521 248 l 2
 521 60 429 -12 301 -12 c 0
 172 -12 79 60 79 248 c 2
EndSplineSet
EndChar

StartChar: V
Encoding: 86 86 23
Width: 600
GlyphClass: 2
Flags: MW
HStem: 0 85<252 304 300 304 300 349> 636 20G<43 131 131 131 472 557 557 557>
VStem: 43 514<656 656>
AnchorPoint: "Anchor-2" 300 -22 basechar 0
AnchorPoint: "Anchor-0" 299 678 basechar 0
LayerCount: 2
Fore
SplineSet
252 0 m 1
 43 656 l 1
 131 656 l 1
 237 302 l 2
 260 224 276 162 300 85 c 1
 304 85 l 1
 328 162 345 224 367 302 c 1
 472 656 l 1
 557 656 l 1
 349 0 l 1
 252 0 l 1
EndSplineSet
EndChar

StartChar: X
Encoding: 88 88 25
Width: 600
GlyphClass: 2
Flags: MW
HStem: 0 21G<54 54 54 142 454 454 454 546> 636 20G<67 159 159 159 445 533 533 533>
VStem: 54 492<0 0>
AnchorPoint: "Anchor-2" 295 -22 basechar 0
AnchorPoint: "Anchor-0" 301 678 basechar 0
LayerCount: 2
Fore
SplineSet
54 0 m 1
 250 339 l 1
 67 656 l 1
 159 656 l 1
 251 488 l 2
 268 458 283 431 304 393 c 1
 308 393 l 1
 326 431 339 458 355 488 c 2
 445 656 l 1
 533 656 l 1
 350 335 l 1
 546 0 l 1
 454 0 l 1
 355 177 l 2
 337 209 319 242 297 282 c 1
 293 282 l 1
 274 242 257 209 240 177 c 2
 142 0 l 1
 54 0 l 1
EndSplineSet
EndChar

StartChar: Y
Encoding: 89 89 26
Width: 600
GlyphClass: 2
Flags: MW
HStem: 0 21G<258 258 258 342> 636 20G<38 126 126 126 476 562 562 562>
VStem: 258 84<0 234 0 234>
AnchorPoint: "Anchor-2" 300 -22 basechar 0
AnchorPoint: "Anchor-0" 300 678 basechar 0
LayerCount: 2
Fore
SplineSet
258 0 m 1
 258 234 l 1
 38 656 l 1
 126 656 l 1
 225 461 l 2
 250 411 273 361 300 308 c 1
 304 308 l 1
 330 361 356 411 381 462 c 2
 476 656 l 1
 562 656 l 1
 342 234 l 1
 342 0 l 1
 258 0 l 1
EndSplineSet
EndChar

StartChar: Z
Encoding: 90 90 27
Width: 600
GlyphClass: 2
Flags: MW
HStem: 0 71<166 539 166 539> 587 70<97 432 97 534>
VStem: 65 474<0 50 50 50>
AnchorPoint: "Anchor-2" 311 -22 basechar 0
AnchorPoint: "Anchor-0" 315 678 basechar 0
LayerCount: 2
Fore
SplineSet
65 0 m 1
 65 50 l 1
 432 587 l 1
 97 587 l 1
 97 657 l 1
 534 657 l 1
 534 607 l 1
 166 71 l 1
 539 71 l 1
 539 0 l 1
 65 0 l 1
EndSplineSet
EndChar

StartChar: bracketleft
Encoding: 91 91 513
Width: 600
Flags: MW
HStem: -152 48<291 502 291 502> 660 48<291 502 291 291>
VStem: 226 65<-104 660 -104 708 -104 708>
LayerCount: 2
Fore
SplineSet
226 -152 m 1
 226 708 l 1
 502 708 l 1
 502 660 l 1
 291 660 l 1
 291 -104 l 1
 502 -104 l 1
 502 -152 l 1
 226 -152 l 1
EndSplineSet
EndChar

StartChar: backslash
Encoding: 92 92 519
Width: 600
Flags: MW
HStem: -160 870<99 427 99 501>
VStem: 99 402
LayerCount: 2
Fore
SplineSet
427 -160 m 1
 99 710 l 1
 173 710 l 1
 501 -160 l 1
 427 -160 l 1
EndSplineSet
EndChar

StartChar: bracketright
Encoding: 93 93 514
Width: 600
Flags: MW
HStem: -152 48<99 309 99 375 99 309> 660 48<99 309 99 375>
VStem: 309 66<-104 660 660 660>
LayerCount: 2
Fore
SplineSet
99 -104 m 1
 309 -104 l 1
 309 660 l 1
 99 660 l 1
 99 708 l 1
 375 708 l 1
 375 -152 l 1
 99 -152 l 1
 99 -104 l 1
EndSplineSet
EndChar

StartChar: asciicircum
Encoding: 94 94 671
Width: 600
Flags: MW
HStem: 593 77<298 302 298 298>
VStem: 111 378<284 284>
LayerCount: 2
Fore
SplineSet
111 284 m 1
 264 670 l 1
 336 670 l 1
 489 284 l 1
 417 284 l 1
 351 460 l 1
 302 593 l 1
 298 593 l 1
 249 460 l 1
 183 284 l 1
 111 284 l 1
EndSplineSet
EndChar

StartChar: underscore
Encoding: 95 95 510
Width: 600
Flags: MW
HStem: -140 71<60 540 60 540>
VStem: 60 480<-140 -69 -140 -69>
LayerCount: 2
Fore
SplineSet
60 -69 m 1
 540 -69 l 1
 540 -140 l 1
 60 -140 l 1
 60 -69 l 1
EndSplineSet
EndChar

StartChar: grave
Encoding: 96 96 715
Width: 600
Flags: MW
HStem: 573 148<185 302 185 365>
VStem: 185 180<573 721>
LayerCount: 2
Fore
SplineSet
302 573 m 1
 185 721 l 1
 275 721 l 1
 365 573 l 1
 302 573 l 1
EndSplineSet
EndChar

StartChar: a
Encoding: 97 97 28
Width: 600
GlyphClass: 2
Flags: MW
HStem: -12 66<240 280.5> 0 21G<448 515 448 448> 430 68<275.5 351>
VStem: 81 80<104.5 164 104.5 180.5> 433 82<126 254 254 254>
AnchorPoint: "Anchor-2" 303 -22 basechar 0
AnchorPoint: "Anchor-0" 314 508 basechar 0
LayerCount: 2
Fore
SplineSet
81 126 m 0xb8
 81 235 182 288 433 308 c 1
 431 374 398 430 304 430 c 0
 241 430 179 400 134 372 c 1
 102 428 l 1
 151 460 233 498 318 498 c 0
 451 498 515 419 515 298 c 2
 515 0 l 1
 448 0 l 1x78
 441 66 l 1
 438 66 l 1
 384 24 315 -12 246 -12 c 0
 155 -12 81 39 81 126 c 0xb8
161 132 m 0
 161 77 212 54 268 54 c 0
 323 54 378 80 433 126 c 1
 433 254 l 1
 225 237 161 196 161 132 c 0
EndSplineSet
Substitution2: "'ss02' Style Set 2 in Latin lookup 18 subtable" a.a
Substitution2: "'sups' Superscript in Latin lookup 12 subtable" a.sups
AlternateSubs2: "'aalt' Access All Alternates in Latin lookup 1 subtable" a.sups a.a
EndChar

StartChar: b
Encoding: 98 98 29
Width: 600
GlyphClass: 2
Flags: MW
HStem: -12 69<296.5 349.5 289.5 378> 0 21G<93 93 93 159> 429 69<309.5 366.5> 692 20G<93 175 175 175>
VStem: 93 82<114 114 114 356 518 712> 455 85<190 303.5>
AnchorPoint: "Anchor-2" 300 -22 basechar 0
AnchorPoint: "Anchor-0" 138 730 basechar 0
LayerCount: 2
Fore
SplineSet
93 0 m 1x7c
 93 712 l 1
 175 712 l 1
 175 518 l 1
 173 424 l 1
 219 469 281 498 338 498 c 0
 469 498 540 401 540 251 c 0
 540 85 436 -12 320 -12 c 0
 273 -12 215 13 169 54 c 1
 166 54 l 1xbc
 159 0 l 1
 93 0 l 1x7c
175 114 m 1
 221 73 272 57 307 57 c 0
 392 57 455 130 455 250 c 0
 455 357 415 429 318 429 c 0
 275 429 225 406 175 356 c 1
 175 114 l 1
EndSplineSet
Substitution2: "'sups' Superscript in Latin lookup 12 subtable" b.sups
Substitution2: "'aalt' Access All Alternates in Latin lookup 0 subtable" b.sups
EndChar

StartChar: c
Encoding: 99 99 30
Width: 600
GlyphClass: 2
Flags: MW
HStem: -12 68<296 382 296 382> 430 68<298 379.5>
VStem: 80 85<186.5 298 186.5 323.5>
AnchorPoint: "Anchor-2" 342 -22 basechar 0
AnchorPoint: "Anchor-1" 342 0 basechar 0
AnchorPoint: "Anchor-0" 343 508 basechar 0
LayerCount: 2
Fore
SplineSet
80 242 m 0
 80 405 204 498 351 498 c 0
 430 498 488 466 528 427 c 1
 487 374 l 1
 447 409 405 430 354 430 c 0
 242 430 165 354 165 242 c 0
 165 131 240 56 352 56 c 0
 412 56 462 83 503 117 c 1
 539 64 l 1
 486 16 418 -12 346 -12 c 0
 194 -12 80 81 80 242 c 0
EndSplineSet
Substitution2: "'sups' Superscript in Latin lookup 12 subtable" c.sups
Substitution2: "'aalt' Access All Alternates in Latin lookup 0 subtable" c.sups
EndChar

StartChar: d
Encoding: 100 100 31
Width: 600
GlyphClass: 2
Flags: MW
HStem: -12 69<243 301> 0 21G<439 507 439 439> 429 69<255 310.5 223.5 318> 692 20G<425 507 507 507>
VStem: 60 85<185 298.5 185 321> 425 82<130 372 372 372 525 712 0 712>
AnchorPoint: "Anchor-2" 306 -22 basechar 0
AnchorPoint: "Anchor-0" 449 730 basechar 0
LayerCount: 2
Fore
SplineSet
60 242 m 0xbc
 60 400 166 498 281 498 c 0
 340 498 383 474 428 435 c 1
 425 525 l 1
 425 712 l 1
 507 712 l 1
 507 0 l 1
 439 0 l 1x7c
 432 64 l 1
 429 64 l 1
 389 23 331 -12 271 -12 c 0
 144 -12 60 80 60 242 c 0xbc
145 243 m 0
 145 127 198 57 288 57 c 0
 336 57 382 82 425 130 c 1
 425 372 l 1
 381 413 339 429 297 429 c 0
 213 429 145 354 145 243 c 0
EndSplineSet
Substitution2: "'sups' Superscript in Latin lookup 12 subtable" d.sups
Substitution2: "'aalt' Access All Alternates in Latin lookup 0 subtable" d.sups
EndChar

StartChar: e
Encoding: 101 101 32
Width: 600
GlyphClass: 2
Flags: MW
HStem: -12 66<287 368.5 287 369> 223 59<154 461 153 534 154 154> 433 65<277.5 362>
VStem: 69 85<223 223 223 321.5> 461 76<282 330.5>
AnchorPoint: "Anchor-4" 405 0 basechar 0
AnchorPoint: "Anchor-2" 315 -22 basechar 0
AnchorPoint: "Anchor-0" 315 508 basechar 0
LayerCount: 2
Fore
SplineSet
69 242 m 0
 69 401 190 498 316 498 c 0
 455 498 537 407 537 270 c 0
 537 253 536 235 534 223 c 1
 154 223 l 1
 158 120 234 54 340 54 c 0
 397 54 443 71 488 99 c 1
 517 45 l 1
 469 14 408 -12 330 -12 c 0
 186 -12 69 83 69 242 c 0
153 282 m 1
 461 282 l 1
 461 379 407 433 317 433 c 0
 238 433 166 377 153 282 c 1
EndSplineSet
Substitution2: "'sups' Superscript in Latin lookup 12 subtable" e.sups
Substitution2: "'aalt' Access All Alternates in Latin lookup 0 subtable" e.sups
EndChar

StartChar: f
Encoding: 102 102 33
Width: 600
GlyphClass: 2
Flags: MW
HStem: 0 21G<242 323 242 242> 419 67<103 242 323 527> 657 67<402.5 462 371 467>
VStem: 242 81<0 419 0 419 486 527 527 530>
AnchorPoint: "Anchor-2" 291 -22 basechar 0
AnchorPoint: "Anchor-0" 420 740 basechar 0
LayerCount: 2
Fore
SplineSet
578 696 m 1
 559 634 l 1
 519 652 488 657 446 657 c 0
 359 657 323 609 323 530 c 2
 323 486 l 1
 527 486 l 1
 527 419 l 1
 323 419 l 1
 323 0 l 1
 242 0 l 1
 242 419 l 1
 103 419 l 1
 103 481 l 1
 242 486 l 1
 242 527 l 2
 242 646 304 724 438 724 c 0
 486 724 532 715 578 696 c 1
EndSplineSet
Substitution2: "'sups' Superscript in Latin lookup 12 subtable" f.sups
Substitution2: "'aalt' Access All Alternates in Latin lookup 0 subtable" f.sups
EndChar

StartChar: g
Encoding: 103 103 34
Width: 600
GlyphClass: 2
Flags: MW
HStem: -224 57<250 358.5 250 378.5> -8 68<272 279 279 374> 0 21G 154 55<278.5 322 260.5 343.5> 423 63<434 564 434 434> 438 60<260.5 305 239.5 322>
VStem: 72 71<-106.5 -69.5> 100 79<295 358 289 377> 102 69<96.5 118.5> 403 76<289 342.5 269 358> 485 81<-92 -44>
AnchorPoint: "Anchor-2" 297 -230 basechar 0
AnchorPoint: "Anchor-0" 307 508 basechar 0
LayerCount: 2
Fore
SplineSet
143 -81 m 0xba40
 143 -132 198 -167 302 -167 c 0
 415 -167 485 -117 485 -67 c 0
 485 -21 448 -8 374 -8 c 2
 279 -8 l 2xd920
 251 -8 226 -6 205 0 c 1
 159 -25 143 -53 143 -81 c 0xba40
72 -89 m 0
 72 -50 100 -11 152 19 c 1
 152 23 l 1
 126 37 102 62 102 103 c 0xb8c0
 102 134 123 169 160 194 c 1
 160 198 l 1
 127 223 100 266 100 324 c 0
 100 430 188 498 291 498 c 0xd540
 319 498 342 494 363 486 c 1
 564 486 l 1
 564 423 l 1
 434 423 l 1
 457 399 479 364 479 321 c 0xd940
 479 217 396 154 291 154 c 0
 266 154 236 160 209 172 c 1
 185 157 171 139 171 116 c 0
 171 77 208 60 272 60 c 2
 381 60 l 2
 506 60 566 28 566 -54 c 0xd8a0
 566 -145 461 -224 296 -224 c 0
 154 -224 72 -175 72 -89 c 0
291 209 m 0xd540
 353 209 403 254 403 324 c 0
 403 392 353 438 291 438 c 0
 230 438 179 392 179 324 c 0
 179 254 230 209 291 209 c 0xd540
EndSplineSet
Substitution2: "'ss03' Style Set 3 in Latin lookup 19 subtable" g.a
Substitution2: "'sups' Superscript in Latin lookup 12 subtable" g.sups
AlternateSubs2: "'aalt' Access All Alternates in Latin lookup 1 subtable" g.sups g.a
EndChar

StartChar: h
Encoding: 104 104 35
Width: 600
GlyphClass: 2
Flags: MW
HStem: 0 21G<93 93 93 175 441 441 441 523> 427 71<317 369> 692 20G<93 175 175 175>
VStem: 93 82<0 339 518 712> 441 82<0 291 291 302 0 337>
AnchorPoint: "Anchor-2" 314 -22 basechar 0
AnchorPoint: "Anchor-0" 151 730 basechar 0
LayerCount: 2
Fore
SplineSet
93 0 m 1
 93 712 l 1
 175 712 l 1
 175 518 l 1
 171 403 l 1
 223 457 279 498 355 498 c 0
 470 498 523 430 523 302 c 2
 523 0 l 1
 441 0 l 1
 441 291 l 2
 441 383 409 427 329 427 c 0
 271 427 232 398 175 339 c 1
 175 0 l 1
 93 0 l 1
EndSplineSet
Substitution2: "'sups' Superscript in Latin lookup 12 subtable" h.sups
Substitution2: "'aalt' Access All Alternates in Latin lookup 0 subtable" h.sups
EndChar

StartChar: i
Encoding: 105 105 36
Width: 600
GlyphClass: 2
Flags: MW
HStem: 0 21G<316 398 316 316> 419 67<90 398 90 316> 586 127<329 366.5>
VStem: 282 132<630 668.5> 316 82<0 419 419 419>
AnchorPoint: "Anchor-4" 385 0 basechar 0
AnchorPoint: "Anchor-2" 348 -22 basechar 0
AnchorPoint: "Anchor-0" 348 694 basechar 0
LayerCount: 2
Fore
SplineSet
90 419 m 1xe8
 90 486 l 1
 398 486 l 1
 398 0 l 1
 316 0 l 1
 316 419 l 1
 90 419 l 1xe8
348 586 m 0xf0
 310 586 282 611 282 649 c 0
 282 688 310 713 348 713 c 0
 385 713 414 688 414 649 c 0
 414 611 385 586 348 586 c 0xf0
EndSplineSet
Substitution2: "'sups' Superscript in Latin lookup 12 subtable" i.sups
Substitution2: "'aalt' Access All Alternates in Latin lookup 0 subtable" i.sups
EndChar

StartChar: j
Encoding: 106 106 37
Width: 600
GlyphClass: 2
Flags: MW
HStem: -217 67<174.5 241.5 174.5 272.5> 419 67<90 398 90 316> 586 127<329 366.5>
VStem: 282 132<630 668.5> 316 82<-18 -12 -12 419 419 419>
AnchorPoint: "Anchor-2" 236 -231 basechar 0
AnchorPoint: "Anchor-0" 348 694 basechar 0
LayerCount: 2
Fore
SplineSet
90 419 m 1xe8
 90 486 l 1
 398 486 l 1
 398 -12 l 2
 398 -132 351 -217 194 -217 c 0
 143 -217 94 -203 55 -184 c 1
 82 -123 l 1
 117 -140 156 -150 193 -150 c 0
 290 -150 316 -101 316 -18 c 2
 316 419 l 1
 90 419 l 1xe8
348 586 m 0xf0
 310 586 282 611 282 649 c 0
 282 688 310 713 348 713 c 0
 385 713 414 688 414 649 c 0
 414 611 385 586 348 586 c 0xf0
EndSplineSet
Substitution2: "'sups' Superscript in Latin lookup 12 subtable" j.sups
Substitution2: "'aalt' Access All Alternates in Latin lookup 0 subtable" j.sups
EndChar

StartChar: k
Encoding: 107 107 38
Width: 600
GlyphClass: 2
Flags: MW
HStem: 0 21G<106 106 106 188 482 482 482 574> 466 20G<454 548 548 548> 692 20G<106 188 188 188>
VStem: 106 82<0 132 230 712>
AnchorPoint: "Anchor-2" 335 -22 basechar 0
AnchorPoint: "Anchor-0" 178 730 basechar 0
LayerCount: 2
Fore
SplineSet
106 0 m 1
 106 712 l 1
 188 712 l 1
 188 230 l 1
 192 230 l 1
 454 486 l 1
 548 486 l 1
 354 293 l 1
 574 0 l 1
 482 0 l 1
 303 243 l 1
 188 132 l 1
 188 0 l 1
 106 0 l 1
EndSplineSet
Substitution2: "'sups' Superscript in Latin lookup 12 subtable" k.sups
Substitution2: "'aalt' Access All Alternates in Latin lookup 0 subtable" k.sups
EndChar

StartChar: l
Encoding: 108 108 39
Width: 600
GlyphClass: 2
Flags: MW
HStem: -12 68<395 432.5> 645 67<81 329 81 247>
VStem: 247 82<163 645 645 645>
AnchorPoint: "Anchor-2" 371 -22 basechar 0
AnchorPoint: "Anchor-0" 284 730 basechar 0
LayerCount: 2
Fore
SplineSet
81 645 m 1
 81 712 l 1
 329 712 l 1
 329 157 l 2
 329 86 366 56 424 56 c 0
 452 56 480 63 516 79 c 1
 537 17 l 1
 493 1 459 -12 406 -12 c 0
 303 -12 247 48 247 163 c 2
 247 645 l 1
 81 645 l 1
EndSplineSet
Substitution2: "'sups' Superscript in Latin lookup 12 subtable" l.sups
Substitution2: "'aalt' Access All Alternates in Latin lookup 0 subtable" l.sups
EndChar

StartChar: m
Encoding: 109 109 40
Width: 600
GlyphClass: 2
Flags: MW
HStem: 0 21G<60 60 60 139 275 275 275 341 477 477 477 556> 427 71<215.5 238 423 442> 466 20G<60 124 124 124>
VStem: 60 79<0 352 0 486> 275 66<0 341 341 352 0 369.5> 477 79<0 341 341 348 0 369.5>
CounterMasks: 1 1c
AnchorPoint: "Anchor-2" 309 -22 basechar 0
AnchorPoint: "Anchor-0" 316 508 basechar 0
LayerCount: 2
Fore
SplineSet
60 0 m 1xdc
 60 486 l 1
 124 486 l 1xbc
 131 422 l 1
 134 422 l 1
 158 467 188 498 243 498 c 0
 292 498 323 470 335 414 c 1
 364 465 396 498 450 498 c 0
 517 498 556 445 556 348 c 2
 556 0 l 1
 477 0 l 1
 477 341 l 2
 477 398 460 427 424 427 c 0
 389 427 366 402 341 352 c 1
 341 0 l 1
 275 0 l 1
 275 341 l 2
 275 398 256 427 220 427 c 0
 186 427 164 402 139 352 c 1
 139 0 l 1
 60 0 l 1xdc
EndSplineSet
Substitution2: "'sups' Superscript in Latin lookup 12 subtable" m.sups
Substitution2: "'aalt' Access All Alternates in Latin lookup 0 subtable" m.sups
EndChar

StartChar: n
Encoding: 110 110 41
Width: 600
GlyphClass: 2
Flags: MW
HStem: 0 21G<93 93 93 175 441 441 441 523> 427 71<317 369> 466 20G<93 161 161 161>
VStem: 93 82<0 339 0 486> 441 82<0 291 291 302 0 337>
AnchorPoint: "Anchor-2" 313 -22 basechar 0
AnchorPoint: "Anchor-0" 318 508 basechar 0
LayerCount: 2
Fore
SplineSet
93 0 m 1xd8
 93 486 l 1
 161 486 l 1xb8
 168 403 l 1
 172 403 l 1
 223 457 279 498 355 498 c 0
 470 498 523 430 523 302 c 2
 523 0 l 1
 441 0 l 1
 441 291 l 2
 441 383 409 427 329 427 c 0
 271 427 232 398 175 339 c 1
 175 0 l 1
 93 0 l 1xd8
EndSplineSet
Substitution2: "'sups' Superscript in Latin lookup 12 subtable" n.sups
Substitution2: "'aalt' Access All Alternates in Latin lookup 0 subtable" n.sups
EndChar

StartChar: o
Encoding: 111 111 42
Width: 600
GlyphClass: 2
Flags: MW
HStem: -12 68<253.5 346.5 253.5 364> 430 68<253.5 346.5>
VStem: 60 85<186.5 298 186.5 323.5> 455 85<186.5 298>
AnchorPoint: "Anchor-4" 349 0 basechar 0
AnchorPoint: "Anchor-3" 413 486 basechar 0
AnchorPoint: "Anchor-2" 300 -22 basechar 0
AnchorPoint: "Anchor-0" 300 508 basechar 0
LayerCount: 2
Fore
SplineSet
60 242 m 0
 60 405 172 498 300 498 c 0
 428 498 540 405 540 242 c 0
 540 81 428 -12 300 -12 c 0
 172 -12 60 81 60 242 c 0
145 242 m 0
 145 131 207 56 300 56 c 0
 393 56 455 131 455 242 c 0
 455 354 393 430 300 430 c 0
 207 430 145 354 145 242 c 0
EndSplineSet
Substitution2: "'sups' Superscript in Latin lookup 12 subtable" o.sups
Substitution2: "'aalt' Access All Alternates in Latin lookup 0 subtable" o.sups
EndChar

StartChar: p
Encoding: 112 112 43
Width: 600
GlyphClass: 2
Flags: MW
HStem: -205 21G<93 175 93 93> -12 69<296.5 348.5 288.5 377.5> 429 69<309 366.5> 466 20G<93 161 161 161>
VStem: 93 82<-205 -41 114 356> 455 85<190 303.5>
AnchorPoint: "Anchor-2" 136 -218 basechar 0
AnchorPoint: "Anchor-0" 314 508 basechar 0
LayerCount: 2
Fore
SplineSet
173 51 m 1xec
 175 -41 l 1
 175 -205 l 1
 93 -205 l 1
 93 486 l 1
 161 486 l 1xdc
 168 424 l 1
 171 424 l 1
 216 467 279 498 339 498 c 0
 470 498 540 401 540 250 c 0
 540 85 436 -12 319 -12 c 0
 274 -12 217 11 173 51 c 1xec
175 114 m 1
 221 73 272 57 305 57 c 0
 392 57 455 130 455 250 c 0
 455 357 415 429 318 429 c 0
 275 429 225 406 175 356 c 1xec
 175 114 l 1
EndSplineSet
Substitution2: "'sups' Superscript in Latin lookup 12 subtable" p.sups
Substitution2: "'aalt' Access All Alternates in Latin lookup 0 subtable" p.sups
EndChar

StartChar: q
Encoding: 113 113 44
Width: 600
GlyphClass: 2
Flags: MW
HStem: -205 21G<425 507 425 425> -12 69<243 300.5> 429 69<255 310.5 223.5 318> 466 20G<441 507 507 507>
VStem: 60 85<185 298.5 185 321> 425 82<-205 -26 -26 -26 130 372 372 372>
AnchorPoint: "Anchor-2" 449 -218 basechar 0
AnchorPoint: "Anchor-0" 301 508 basechar 0
LayerCount: 2
Fore
SplineSet
60 242 m 0xec
 60 400 166 498 281 498 c 0
 340 498 385 475 431 432 c 1
 434 432 l 1xec
 441 486 l 1
 507 486 l 1xdc
 507 -205 l 1
 425 -205 l 1
 425 -26 l 1
 429 62 l 1
 386 21 330 -12 271 -12 c 0
 144 -12 60 80 60 242 c 0xec
145 243 m 0
 145 127 198 57 288 57 c 0
 336 57 382 82 425 130 c 1
 425 372 l 1
 381 413 339 429 297 429 c 0
 213 429 145 354 145 243 c 0
EndSplineSet
Substitution2: "'sups' Superscript in Latin lookup 12 subtable" q.sups
Substitution2: "'aalt' Access All Alternates in Latin lookup 0 subtable" q.sups
EndChar

StartChar: r
Encoding: 114 114 45
Width: 600
GlyphClass: 2
Flags: MW
HStem: 0 21G<146 146 146 228> 424 74<396 447> 466 20G<146 214 214 214> 478 20
VStem: 146 82<0 285 0 486>
AnchorPoint: "Anchor-2" 200 -22 basechar 0
AnchorPoint: "Anchor-0" 342 508 basechar 0
LayerCount: 2
Fore
SplineSet
146 0 m 1xc8
 146 486 l 1
 214 486 l 1xa8
 221 371 l 1
 224 371 l 1
 275 449 351 498 441 498 c 0xc8
 477 498 507 493 537 478 c 1x98
 518 407 l 1
 484 419 466 424 428 424 c 0
 355 424 286 386 228 285 c 1
 228 0 l 1
 146 0 l 1xc8
EndSplineSet
Substitution2: "'sups' Superscript in Latin lookup 12 subtable" r.sups
Substitution2: "'aalt' Access All Alternates in Latin lookup 0 subtable" r.sups
EndChar

StartChar: s
Encoding: 115 115 46
Width: 600
GlyphClass: 2
Flags: MW
HStem: -12 64<269.5 356.5 269.5 379.5> 434 64<258.5 334>
VStem: 100 84<344 383 344 399> 443 83<107 147>
AnchorPoint: "Anchor-2" 310 -22 basechar 0
AnchorPoint: "Anchor-1" 314 0 basechar 0
AnchorPoint: "Anchor-0" 303 508 basechar 0
LayerCount: 2
Fore
SplineSet
72 64 m 1
 112 118 l 1
 166 78 226 52 313 52 c 0
 400 52 443 86 443 128 c 0
 443 166 404 193 285 222 c 0
 185 247 100 291 100 360 c 0
 100 438 170 498 304 498 c 0
 377 498 451 469 499 436 c 1
 459 383 l 1
 416 413 364 434 304 434 c 0
 213 434 184 402 184 364 c 0
 184 324 244 300 332 278 c 0
 463 245 526 207 526 133 c 0
 526 54 449 -12 310 -12 c 0
 215 -12 131 23 72 64 c 1
EndSplineSet
Substitution2: "'sups' Superscript in Latin lookup 12 subtable" s.sups
Substitution2: "'aalt' Access All Alternates in Latin lookup 0 subtable" s.sups
EndChar

StartChar: t
Encoding: 116 116 47
Width: 600
GlyphClass: 2
Flags: MW
HStem: -12 67<364 419.5> 419 67<69 209 288 527>
VStem: 206 82<189 419>
AnchorPoint: "Anchor-2" 379 -22 basechar 0
AnchorPoint: "Anchor-1" 376 0 basechar 0
AnchorPoint: "Anchor-0" 263 643 basechar 0
LayerCount: 2
Fore
SplineSet
206 189 m 2
 206 419 l 1
 69 419 l 1
 69 481 l 1
 209 486 l 1
 220 622 l 1
 288 622 l 1
 288 486 l 1
 527 486 l 1
 527 419 l 1
 288 419 l 1
 288 188 l 2
 288 101 317 55 411 55 c 0
 457 55 494 64 528 77 c 1
 546 17 l 1
 502 1 446 -12 393 -12 c 0
 252 -12 206 69 206 189 c 2
EndSplineSet
Substitution2: "'sups' Superscript in Latin lookup 12 subtable" t.sups
Substitution2: "'aalt' Access All Alternates in Latin lookup 0 subtable" t.sups
EndChar

StartChar: u
Encoding: 117 117 48
Width: 600
GlyphClass: 2
Flags: MW
HStem: -12 71<231.5 283.5> 0 21G<438 505 438 438> 466 20G<77 160 160 160 423 505 505 505>
VStem: 77 83<184 195 195 486> 423 82<149 486 0 486>
AnchorPoint: "Anchor-2" 321 -22 basechar 0
AnchorPoint: "Anchor-0" 295 508 basechar 0
LayerCount: 2
Fore
SplineSet
505 486 m 1xb8
 505 0 l 1
 438 0 l 1x78
 431 85 l 1
 427 85 l 1
 378 28 321 -12 246 -12 c 0
 130 -12 77 56 77 184 c 2
 77 486 l 1
 160 486 l 1
 160 195 l 2
 160 103 191 59 272 59 c 0
 328 59 369 86 423 149 c 1
 423 486 l 1
 505 486 l 1xb8
EndSplineSet
Substitution2: "'sups' Superscript in Latin lookup 12 subtable" u.sups
Substitution2: "'aalt' Access All Alternates in Latin lookup 0 subtable" u.sups
EndChar

StartChar: v
Encoding: 118 118 49
Width: 600
GlyphClass: 2
Flags: MW
HStem: 0 67<256 305 301 305 301 348> 466 20G<51 134 134 134 470 549 549 549>
VStem: 51 498<486 486>
AnchorPoint: "Anchor-2" 301 -22 basechar 0
AnchorPoint: "Anchor-0" 301 508 basechar 0
LayerCount: 2
Fore
SplineSet
256 0 m 1
 51 486 l 1
 134 486 l 1
 246 210 l 2
 266 161 284 113 301 67 c 1
 305 67 l 1
 322 113 338 161 358 210 c 2
 470 486 l 1
 549 486 l 1
 348 0 l 1
 256 0 l 1
EndSplineSet
Substitution2: "'sups' Superscript in Latin lookup 12 subtable" v.sups
Substitution2: "'aalt' Access All Alternates in Latin lookup 0 subtable" v.sups
EndChar

StartChar: w
Encoding: 119 119 50
Width: 600
GlyphClass: 2
Flags: MW
HStem: 0 70<117 179 175 179 175 215 427 431> 387 70<298 302 298 298> 466 20G<8 92 92 92 514 592 592 592>
VStem: 8 584<486 486>
AnchorPoint: "Anchor-2" 300 -22 basechar 0
AnchorPoint: "Anchor-0" 300 508 basechar 0
LayerCount: 2
Fore
SplineSet
117 0 m 1
 8 486 l 1
 92 486 l 1xb0
 151 205 l 2
 160 159 168 115 175 70 c 1
 179 70 l 1
 188 115 197 160 208 205 c 2
 267 457 l 1
 337 457 l 1xf0
 397 205 l 2
 408 159 417 115 427 70 c 1
 431 70 l 1
 440 115 447 159 455 205 c 1
 514 486 l 1
 592 486 l 1xb0
 486 0 l 1
 387 0 l 1
 329 246 l 1
 320 292 312 338 302 387 c 1
 298 387 l 1xf0
 290 345 283 301 271 245 c 2
 215 0 l 1
 117 0 l 1
EndSplineSet
Substitution2: "'sups' Superscript in Latin lookup 12 subtable" w.sups
Substitution2: "'aalt' Access All Alternates in Latin lookup 0 subtable" w.sups
EndChar

StartChar: x
Encoding: 120 120 51
Width: 600
GlyphClass: 2
Flags: MW
HStem: 0 21G<64 64 64 152 445 445 445 535> 466 20G<78 169 169 169 435 522 522 522>
VStem: 64 471<0 0>
AnchorPoint: "Anchor-2" 300 -22 basechar 0
AnchorPoint: "Anchor-0" 300 508 basechar 0
LayerCount: 2
Fore
SplineSet
64 0 m 1
 249 252 l 1
 78 486 l 1
 169 486 l 1
 246 379 l 1
 263 353 283 324 303 297 c 1
 307 297 l 1
 325 324 345 354 362 381 c 1
 435 486 l 1
 522 486 l 1
 349 245 l 1
 535 0 l 1
 445 0 l 1
 360 112 l 2
 340 140 317 172 296 200 c 1
 292 200 l 1
 272 171 252 143 232 112 c 1
 152 0 l 1
 64 0 l 1
EndSplineSet
Substitution2: "'sups' Superscript in Latin lookup 12 subtable" x.sups
Substitution2: "'aalt' Access All Alternates in Latin lookup 0 subtable" x.sups
EndChar

StartChar: y
Encoding: 121 121 52
Width: 600
GlyphClass: 2
Flags: MW
HStem: -209 68<120.5 162 120.5 186> 466 20G<49 132 132 132 473 551 551 551>
VStem: 49 502<486 486>
AnchorPoint: "Anchor-2" 266 -242 basechar 0
AnchorPoint: "Anchor-0" 304 508 basechar 0
LayerCount: 2
Fore
SplineSet
84 -134 m 1
 97 -138 113 -141 128 -141 c 0
 196 -141 237 -97 261 -37 c 2
 276 -1 l 1
 49 486 l 1
 132 486 l 1
 251 217 l 2
 270 174 291 123 311 76 c 1
 315 76 l 1
 332 122 351 173 367 217 c 1
 473 486 l 1
 551 486 l 1
 337 -40 l 1
 301 -136 241 -209 131 -209 c 0
 108 -209 84 -205 67 -199 c 1
 84 -134 l 1
EndSplineSet
Substitution2: "'sups' Superscript in Latin lookup 12 subtable" y.sups
Substitution2: "'aalt' Access All Alternates in Latin lookup 0 subtable" y.sups
EndChar

StartChar: z
Encoding: 122 122 53
Width: 600
GlyphClass: 2
Flags: MW
HStem: 0 67<188 532 188 532> 419 67<108 404 108 522>
VStem: 71 461<0 44 44 44>
AnchorPoint: "Anchor-2" 317 -22 basechar 0
AnchorPoint: "Anchor-0" 320 508 basechar 0
LayerCount: 2
Fore
SplineSet
71 0 m 1
 71 44 l 1
 404 419 l 1
 108 419 l 1
 108 486 l 1
 522 486 l 1
 522 442 l 1
 188 67 l 1
 532 67 l 1
 532 0 l 1
 71 0 l 1
EndSplineSet
Substitution2: "'sups' Superscript in Latin lookup 12 subtable" z.sups
Substitution2: "'aalt' Access All Alternates in Latin lookup 0 subtable" z.sups
EndChar

StartChar: braceleft
Encoding: 123 123 515
Width: 600
Flags: MW
HStem: -152 48<378 502 450 502 450 502> 252 52<120 120> 660 48<441 450 450 502>
VStem: 120 121<276 280 276 304 276 304> 256 76
LayerCount: 2
Fore
SplineSet
256 -19 m 0
 256 54 265 107 265 174 c 0xe8
 265 213 238 251 120 252 c 1
 120 304 l 1xf8
 238 305 265 343 265 382 c 0
 265 445 256 506 256 575 c 0
 256 678 315 708 441 708 c 2
 502 708 l 1
 502 660 l 1
 450 660 l 2
 348 660 326 635 326 570 c 0
 326 513 332 451 332 389 c 0
 332 324 310 292 241 280 c 1
 241 276 l 1
 310 264 332 232 332 167 c 0
 332 99 326 47 326 -14 c 0
 326 -79 348 -104 450 -104 c 2
 502 -104 l 1
 502 -152 l 1
 441 -152 l 2
 315 -152 256 -122 256 -19 c 0
EndSplineSet
EndChar

StartChar: bar
Encoding: 124 124 518
Width: 600
Flags: MW
HStem: -250 1000<263 337 263 337>
VStem: 263 74<-250 750 -250 750>
LayerCount: 2
Fore
SplineSet
263 -250 m 1
 263 750 l 1
 337 750 l 1
 337 -250 l 1
 263 -250 l 1
EndSplineSet
EndChar

StartChar: braceright
Encoding: 125 125 516
Width: 600
Flags: MW
HStem: -152 48<99 150 150 160 99 150> 252 52<480 480> 660 48<99 150 99 160>
VStem: 269 75 359 121<276 280 280 280>
LayerCount: 2
Fore
SplineSet
99 -104 m 1
 150 -104 l 2
 252 -104 275 -79 275 -14 c 0
 275 47 269 99 269 167 c 0
 269 232 290 264 359 276 c 1
 359 280 l 1
 290 292 269 324 269 389 c 0
 269 451 275 513 275 570 c 0
 275 635 252 660 150 660 c 2
 99 660 l 1
 99 708 l 1
 160 708 l 2
 285 708 344 678 344 575 c 0
 344 506 335 445 335 382 c 0xf0
 335 343 362 305 480 304 c 1
 480 252 l 1xf8
 362 251 335 213 335 174 c 0
 335 107 344 54 344 -19 c 0
 344 -122 285 -152 160 -152 c 2
 99 -152 l 1
 99 -104 l 1
EndSplineSet
EndChar

StartChar: asciitilde
Encoding: 126 126 673
Width: 600
Flags: MW
HStem: 257 62<361.5 405.5 361.5 413.5> 341 62<194.5 238.5>
VStem: 76 448<278 381>
LayerCount: 2
Fore
SplineSet
129 255 m 1
 76 278 l 1x60
 111 372 161 403 212 403 c 0
 291 403 333 319 390 319 c 0
 421 319 448 335 471 405 c 1
 524 381 l 1xe0
 489 288 439 257 388 257 c 0
 309 257 267 341 210 341 c 0
 179 341 152 324 129 255 c 1
EndSplineSet
EndChar

StartChar: exclamdown
Encoding: 161 161 487
Width: 600
Flags: MW
HStem: 344 154<280 320> 478 20G<280 320>
VStem: 227 146<397 444.5> 267 66
LayerCount: 2
Fore
SplineSet
328 254 m 1x50
 338 -90 l 1
 340 -184 l 1
 260 -184 l 1
 262 -90 l 1
 272 254 l 1
 328 254 l 1x50
373 421 m 0x60
 373 373 340 344 300 344 c 0xa0
 260 344 227 373 227 421 c 0
 227 468 260 498 300 498 c 0
 340 498 373 468 373 421 c 0x60
EndSplineSet
EndChar

StartChar: cent
Encoding: 162 162 634
Width: 600
Flags: MW
HStem: 70 68<365 365> 482 68<365 365>
VStem: 113 81<265.5 354 265.5 379> 314 51<-33 70 -33 71 -33 71 142 477 477 477 550 653>
LayerCount: 2
Fore
SplineSet
314 142 m 1
 314 477 l 1
 240 460 194 398 194 310 c 0
 194 221 239 159 314 142 c 1
470 185 m 1
 506 133 l 1
 466 98 417 74 365 70 c 1
 365 -33 l 1
 314 -33 l 1
 314 71 l 1
 195 84 113 169 113 310 c 0
 113 448 201 532 314 547 c 1
 314 653 l 1
 365 653 l 1
 365 550 l 1
 423 547 465 521 496 492 c 1
 456 440 l 1
 430 464 400 480 365 482 c 1
 365 138 l 1
 407 141 442 161 470 185 c 1
EndSplineSet
EndChar

StartChar: sterling
Encoding: 163 163 631
Width: 600
Flags: MW
HStem: 0 71<200 531 200 531> 285 56<176 176 176 194 269 269 269 442> 581 69<314.5 386>
VStem: 144 79<445 498.5 443 522.5> 202 73<194 239 194 239.5>
LayerCount: 2
Fore
SplineSet
200 71 m 1xe8
 531 71 l 1
 531 0 l 1
 78 0 l 1
 78 50 l 1
 161 87 202 155 202 230 c 0
 202 249 199 267 194 285 c 1xe8
 77 285 l 1
 77 337 l 1
 176 341 l 1
 161 383 144 424 144 466 c 0
 144 579 227 650 354 650 c 0
 436 650 491 618 530 575 c 1
 482 528 l 1
 451 559 414 581 358 581 c 0
 271 581 223 533 223 464 c 0
 223 422 238 383 253 341 c 1xf0
 442 341 l 1
 442 285 l 1
 269 285 l 1
 273 267 275 249 275 229 c 0
 275 159 250 116 200 75 c 1
 200 71 l 1xe8
EndSplineSet
EndChar

StartChar: currency
Encoding: 164 164 629
Width: 600
Flags: MW
HStem: 134 61<279.5 320> 463 61<279.5 320 279.5 332.5>
VStem: 106 76<306 352> 418 76<306 352 306 369>
LayerCount: 2
Fore
SplineSet
102 83 m 1
 58 128 l 1
 142 213 l 1
 119 244 106 283 106 329 c 0
 106 375 119 415 141 446 c 1
 58 532 l 1
 102 577 l 1
 189 487 l 1
 220 511 259 524 300 524 c 0
 340 524 379 511 411 487 c 1
 498 577 l 1
 542 532 l 1
 458 446 l 1
 481 415 494 375 494 329 c 0
 494 283 480 244 458 213 c 1
 542 128 l 1
 498 83 l 1
 410 172 l 1
 379 147 340 134 300 134 c 0
 259 134 221 147 189 172 c 1
 102 83 l 1
182 329 m 0
 182 249 235 195 300 195 c 0
 365 195 418 249 418 329 c 0
 418 409 365 463 300 463 c 0
 235 463 182 409 182 329 c 0
EndSplineSet
EndChar

StartChar: yen
Encoding: 165 165 632
Width: 600
Flags: MW
HStem: 0 206<77 340 77 258> 158 48<77 258 77 258 340 523> 271 47<77 238 77 258 77 238 361 523> 618 20G<53 138 138 138 465 547 547 547>
VStem: 258 82<0 158 0 158 206 271>
LayerCount: 2
Fore
SplineSet
53 638 m 1x78
 138 638 l 1
 230 467 l 2
 253 423 274 379 299 332 c 1
 303 332 l 1
 327 379 349 423 373 467 c 2
 465 638 l 1
 547 638 l 1
 361 318 l 1
 523 318 l 1
 523 271 l 1
 340 271 l 1
 340 206 l 1
 523 206 l 1
 523 158 l 1
 340 158 l 1x78
 340 0 l 1
 258 0 l 1xb8
 258 158 l 1
 77 158 l 1
 77 206 l 1
 258 206 l 1
 258 271 l 1
 77 271 l 1
 77 318 l 1
 238 318 l 1
 53 638 l 1x78
EndSplineSet
EndChar

StartChar: brokenbar
Encoding: 166 166 520
Width: 600
Flags: MW
HStem: -250 1000<263 337 263 337>
VStem: 263 74<-250 214 -250 214 291 750>
LayerCount: 2
Fore
SplineSet
263 291 m 1
 263 750 l 1
 337 750 l 1
 337 291 l 1
 263 291 l 1
263 214 m 1
 337 214 l 1
 337 -250 l 1
 263 -250 l 1
 263 214 l 1
EndSplineSet
EndChar

StartChar: section
Encoding: 167 167 524
Width: 600
Flags: MW
HStem: -64 64<259 314 259 334.5> 620 64<278 329>
VStem: 91 71<304 368.5 304 372.5> 151 75<537 574 503 588.5> 373 75<50 90 33.5 126> 438 71<255.5 323>
LayerCount: 2
Fore
SplineSet
371 192 m 1xe4
 414 211 438 233 438 278 c 0
 438 368 315 387 230 436 c 1
 189 415 162 389 162 348 c 0
 162 260 286 242 371 192 c 1xe4
463 627 m 1
 423 574 l 1
 389 600 352 620 306 620 c 0
 250 620 226 591 226 557 c 0
 226 449 509 468 509 284 c 0xd4
 509 220 473 183 419 154 c 1
 437 133 448 107 448 73 c 0
 448 -6 382 -64 287 -64 c 0
 214 -64 150 -37 108 7 c 1
 158 52 l 1
 193 20 231 0 287 0 c 0
 341 0 373 31 373 69 c 0
 373 183 91 158 91 343 c 0xe8
 91 402 129 445 182 473 c 1
 163 494 151 520 151 554 c 0xd4
 151 623 202 684 302 684 c 0
 368 684 423 658 463 627 c 1
EndSplineSet
EndChar

StartChar: dieresis
Encoding: 168 168 725
Width: 600
Flags: MW
HStem: 588 110<188 219.5 380.5 412>
VStem: 150 108<627.5 658.5> 342 108<627.5 658.5>
LayerCount: 2
Fore
SplineSet
204 588 m 0
 172 588 150 612 150 643 c 0
 150 674 172 698 204 698 c 0
 235 698 258 674 258 643 c 0
 258 612 235 588 204 588 c 0
396 588 m 0
 365 588 342 612 342 643 c 0
 342 674 365 698 396 698 c 0
 428 698 450 674 450 643 c 0
 450 612 428 588 396 588 c 0
EndSplineSet
EndChar

StartChar: copyright
Encoding: 169 169 526
Width: 600
Flags: MW
HStem: -11 42<233 367 233 376.5> 125 55<280.5 327.5 280.5 333> 457 55<283.5 327.5> 612 41<233 367>
VStem: 30 46<235.5 410.5 235.5 425> 146 66<279 362 279 381> 524 46<235.5 410.5>
LayerCount: 2
Fore
SplineSet
30 323 m 0
 30 527 147 653 300 653 c 0
 453 653 570 527 570 323 c 0
 570 119 453 -11 300 -11 c 0
 147 -11 30 119 30 323 c 0
76 323 m 0
 76 148 166 31 300 31 c 0
 434 31 524 148 524 323 c 0
 524 498 434 612 300 612 c 0
 166 612 76 498 76 323 c 0
146 323 m 0
 146 439 224 512 311 512 c 0
 358 512 389 492 415 465 c 1
 381 426 l 1
 360 445 341 457 314 457 c 0
 253 457 212 401 212 323 c 0
 212 235 251 180 310 180 c 0
 345 180 368 195 391 214 c 1
 421 172 l 1
 391 145 358 125 308 125 c 0
 218 125 146 199 146 323 c 0
EndSplineSet
EndChar

StartChar: ordfeminine
Encoding: 170 170 594
Width: 600
Flags: MW
HStem: 252 50<272.5 291> 539 51<291.5 334>
VStem: 167 63<333 368 333 380> 378 64<342 424 424 424>
LayerCount: 2
Fore
SplineSet
167 345 m 0
 167 415 234 450 378 465 c 1
 377 505 360 539 308 539 c 0
 270 539 234 522 205 505 c 1
 180 548 l 1
 214 568 265 590 318 590 c 0
 402 590 442 539 442 455 c 2
 442 260 l 1
 390 260 l 1
 385 297 l 1
 383 297 l 1
 351 272 312 252 270 252 c 0
 213 252 167 288 167 345 c 0
230 349 m 0
 230 317 256 302 289 302 c 0
 319 302 348 317 378 342 c 1
 378 424 l 1
 270 412 230 387 230 349 c 0
EndSplineSet
Substitution2: "'ss02' Style Set 2 in Latin lookup 18 subtable" ordfeminine.a
Substitution2: "'aalt' Access All Alternates in Latin lookup 0 subtable" ordfeminine.a
EndChar

StartChar: guillemotleft
Encoding: 171 171 500
Width: 600
Flags: MW
HStem: 52 400<235 235 235 464>
VStem: 82 65<252 252 252 292 252 292> 312 65<252 252 252 292 252 292>
LayerCount: 2
Fore
SplineSet
235 52 m 1
 82 212 l 1
 82 292 l 1
 235 452 l 1
 274 417 l 1
 147 252 l 1
 274 86 l 1
 235 52 l 1
464 52 m 1
 312 212 l 1
 312 292 l 1
 464 452 l 1
 504 417 l 1
 377 252 l 1
 504 86 l 1
 464 52 l 1
EndSplineSet
EndChar

StartChar: logicalnot
Encoding: 172 172 675
Width: 600
Flags: MW
HStem: 299 62<85 515 85 449>
VStem: 449 66<104 299 299 299>
LayerCount: 2
Fore
SplineSet
85 299 m 1
 85 361 l 1
 515 361 l 1
 515 104 l 1
 449 104 l 1
 449 299 l 1
 85 299 l 1
EndSplineSet
EndChar

StartChar: uni00AD
Encoding: 173 173 503
Width: 600
Flags: MW
HStem: 299 62<85 515 85 515>
VStem: 85 430<299 361 299 361>
LayerCount: 2
Fore
SplineSet
85 299 m 1
 85 361 l 1
 515 361 l 1
 515 299 l 1
 85 299 l 1
EndSplineSet
Substitution2: "'ss01' Style Set 1 in Latin lookup 17 subtable" uni00AD.a
Substitution2: "'aalt' Access All Alternates in Latin lookup 0 subtable" uni00AD.a
EndChar

StartChar: registered
Encoding: 174 174 528
Width: 600
Flags: MW
HStem: 319 37<258 342 258 351.5> 487 32<268 294 294 307.5 268 309 268 294> 586 34<268 296 268 268> 677 36<258 342>
VStem: 112 39<468.5 563 468.5 574.5> 227 41<417 487 519 586> 338 44<543 563> 448 40<468.5 563>
LayerCount: 2
Fore
SplineSet
300 319 m 0
 196 319 112 399 112 516 c 0
 112 633 196 713 300 713 c 0
 403 713 488 633 488 516 c 0
 488 399 403 319 300 319 c 0
300 356 m 0
 384 356 448 421 448 516 c 0
 448 610 384 677 300 677 c 0
 216 677 151 610 151 516 c 0
 151 421 216 356 300 356 c 0
227 417 m 1
 227 620 l 1
 303 620 l 2
 345 620 382 603 382 555 c 0
 382 531 366 508 344 500 c 1
 390 417 l 1
 344 417 l 1
 309 487 l 1
 268 487 l 1
 268 417 l 1
 227 417 l 1
268 519 m 1
 294 519 l 2
 321 519 338 531 338 553 c 0
 338 573 326 586 296 586 c 2
 268 586 l 1
 268 519 l 1
EndSplineSet
EndChar

StartChar: degree
Encoding: 176 176 628
Width: 600
Flags: MW
HStem: 429 46<278 322.5 278 333.5> 639 46<278 322.5>
VStem: 175 50<532.5 580.5 532.5 595.5> 376 50<532.5 580.5>
LayerCount: 2
Fore
SplineSet
300 429 m 0
 233 429 175 479 175 556 c 0
 175 635 233 685 300 685 c 0
 367 685 426 635 426 556 c 0
 426 479 367 429 300 429 c 0
300 475 m 0
 345 475 376 509 376 556 c 0
 376 605 345 639 300 639 c 0
 256 639 225 605 225 556 c 0
 225 509 256 475 300 475 c 0
EndSplineSet
EndChar

StartChar: plusminus
Encoding: 177 177 670
Width: 600
Flags: MW
HStem: 0 62<85 515 85 515> 304 62<85 267 85 267 333 515>
VStem: 267 66<127 304 127 304 366 556>
LayerCount: 2
Fore
SplineSet
267 127 m 1
 267 304 l 1
 85 304 l 1
 85 366 l 1
 267 366 l 1
 267 556 l 1
 333 556 l 1
 333 366 l 1
 515 366 l 1
 515 304 l 1
 333 304 l 1
 333 127 l 1
 267 127 l 1
85 0 m 1
 85 62 l 1
 515 62 l 1
 515 0 l 1
 85 0 l 1
EndSplineSet
EndChar

StartChar: two.sups
Encoding: 178 178 540
Width: 600
Flags: MW
HStem: 440 53<286 422 286 422> 705 52<270.5 303.5>
VStem: 184 238<440 476 476 476> 345 62<627 664>
LayerCount: 2
Fore
SplineSet
184 440 m 1xe0
 184 476 l 1
 288 555 345 602 345 646 c 0
 345 682 323 705 284 705 c 0
 257 705 232 688 213 663 c 1
 173 696 l 1
 203 731 244 757 292 757 c 0
 364 757 407 720 407 654 c 0xd0
 407 600 353 553 286 493 c 1
 422 493 l 1
 422 440 l 1
 184 440 l 1xe0
EndSplineSet
EndChar

StartChar: three.sups
Encoding: 179 179 541
Width: 600
Flags: MW
HStem: 428 50<277 313 277 333> 576 38<261 288.5 261 293.5> 708 49<276 306>
VStem: 342 63<654 678> 357 63<508.5 541.5 491.5 542>
LayerCount: 2
Fore
SplineSet
172 482 m 1xe8
 204 521 l 1
 224 497 259 478 295 478 c 0
 331 478 357 492 357 525 c 0
 357 559 326 576 261 576 c 1xe8
 261 614 l 1
 316 614 342 634 342 665 c 0
 342 691 325 708 287 708 c 0
 263 708 234 694 214 674 c 1
 184 712 l 1
 209 739 253 757 299 757 c 0
 361 757 405 726 405 673 c 0xf0
 405 635 388 612 349 598 c 1
 392 588 420 562 420 521 c 0
 420 462 367 428 299 428 c 0
 253 428 205 448 172 482 c 1xe8
EndSplineSet
EndChar

StartChar: acute
Encoding: 180 180 716
Width: 600
Flags: MW
HStem: 573 148<235 415 235 415>
VStem: 235 180<573 721>
LayerCount: 2
Fore
SplineSet
415 721 m 1
 298 573 l 1
 235 573 l 1
 325 721 l 1
 415 721 l 1
EndSplineSet
EndChar

StartChar: uni00B5
Encoding: 181 181 678
Width: 600
Flags: MW
HStem: -12 68<484.5 530.5> -10 69<244.5 294.5 231 299>
VStem: 77 83<150.5 195 195 486> 423 78<79 486>
LayerCount: 2
Fore
SplineSet
77 -187 m 1x70
 77 486 l 1
 160 486 l 1
 160 195 l 2
 160 106 193 59 269 59 c 0x70
 320 59 369 77 423 170 c 1
 423 486 l 1
 506 486 l 1
 503 355 501 208 501 92 c 0
 501 66 513 56 528 56 c 0
 533 56 537 56 546 58 c 1
 558 -4 l 1
 546 -9 531 -12 510 -12 c 0xb0
 459 -12 438 22 431 99 c 1
 428 99 l 1
 386 25 330 -10 268 -10 c 0
 221 -10 180 0 154 43 c 1
 154 -58 155 -107 160 -187 c 1
 77 -187 l 1x70
EndSplineSet
EndChar

StartChar: paragraph
Encoding: 182 182 525
Width: 600
Flags: MW
HStem: 636 20G<307 350 350 350 404 485 485 485>
VStem: 72 278<367.5 521.5> 404 81<-80 656 -80 656>
LayerCount: 2
Fore
SplineSet
404 -80 m 1
 404 656 l 1
 485 656 l 1
 485 -80 l 1
 404 -80 l 1
350 656 m 1
 350 226 l 1
 318 226 l 2
 177 226 72 292 72 443 c 0
 72 600 173 656 307 656 c 2
 350 656 l 1
EndSplineSet
EndChar

StartChar: periodcentered
Encoding: 183 183 508
Width: 600
Flags: MW
HStem: 263 169<277.5 322.5>
VStem: 219 162<322 372>
LayerCount: 2
Fore
SplineSet
219 347 m 0
 219 397 255 432 300 432 c 0
 345 432 381 397 381 347 c 0
 381 297 345 263 300 263 c 0
 255 263 219 297 219 347 c 0
EndSplineSet
EndChar

StartChar: cedilla
Encoding: 184 184 731
Width: 600
Flags: MW
HStem: -213 41<222 230> -50 53<315 315>
VStem: 310 64<-137.5 -111>
LayerCount: 2
Fore
SplineSet
247 -75 m 1
 287 3 l 1
 341 3 l 1
 315 -50 l 1
 348 -61 374 -80 374 -121 c 0
 374 -179 305 -206 230 -213 c 1
 222 -172 l 1
 274 -165 310 -151 310 -124 c 0
 310 -98 288 -85 247 -75 c 1
EndSplineSet
EndChar

StartChar: one.sups
Encoding: 185 185 539
Width: 600
Flags: MW
HStem: 670 75<208 353>
VStem: 290 63<440 670 670 670>
LayerCount: 2
Fore
SplineSet
290 440 m 1
 290 670 l 1
 208 670 l 1
 208 712 l 1
 252 719 275 729 303 745 c 1
 353 745 l 1
 353 440 l 1
 290 440 l 1
EndSplineSet
EndChar

StartChar: ordmasculine
Encoding: 186 186 596
Width: 600
Flags: MW
HStem: 252 52<271.5 328.5 271.5 342.5> 538 52<271.5 328.5>
VStem: 142 66<386 455.5 386 474.5> 392 66<386 455.5>
LayerCount: 2
Fore
SplineSet
142 421 m 0
 142 528 216 590 300 590 c 0
 385 590 458 528 458 421 c 0
 458 314 385 252 300 252 c 0
 216 252 142 314 142 421 c 0
208 421 m 0
 208 351 243 304 300 304 c 0
 357 304 392 351 392 421 c 0
 392 490 357 538 300 538 c 0
 243 538 208 490 208 421 c 0
EndSplineSet
EndChar

StartChar: guillemotright
Encoding: 187 187 501
Width: 600
Flags: MW
HStem: 52 400<136 136 136 365>
VStem: 223 65<252 252> 453 65<252 252>
LayerCount: 2
Fore
SplineSet
96 86 m 1
 223 252 l 1
 96 417 l 1
 136 452 l 1
 288 292 l 1
 288 212 l 1
 136 52 l 1
 96 86 l 1
326 86 m 1
 453 252 l 1
 326 417 l 1
 365 452 l 1
 518 292 l 1
 518 212 l 1
 365 52 l 1
 326 86 l 1
EndSplineSet
EndChar

StartChar: onequarter
Encoding: 188 188 651
Width: 600
Flags: MW
HStem: 0 116<370 525 370 468> 73 43<370 468 370 468 525 575> 254 51<469 473 469 469> 563 42<74 156 74 74> 563 75<74 219>
VStem: 156 63<333 563 563 563> 468 57<0 73 0 73 116 172 172 172>
LayerCount: 2
Fore
SplineSet
572 579 m 1x4e
 389 391 l 1
 356 421 l 1
 523 624 l 1
 572 579 l 1x4e
156 333 m 1
 156 563 l 1
 74 563 l 1x6e
 74 605 l 1x56
 118 612 141 621 168 638 c 1
 219 638 l 1
 219 333 l 1
 156 333 l 1
28 77 m 1
 211 265 l 1
 244 235 l 1
 77 32 l 1
 28 77 l 1
370 116 m 1
 468 116 l 1
 468 172 l 1
 473 254 l 1
 469 254 l 1
 424 189 l 1
 370 116 l 1
575 116 m 1
 575 73 l 1
 525 73 l 1x4e
 525 0 l 1
 468 0 l 1x8e
 468 73 l 1
 306 73 l 1
 306 104 l 1
 454 305 l 1
 525 305 l 1
 525 116 l 1
 575 116 l 1
EndSplineSet
EndChar

StartChar: onehalf
Encoding: 189 189 652
Width: 600
Flags: MW
HStem: 0 53<421 557 421 557> 265 52<404.5 437.5> 563 42<74 156 74 74> 563 75<74 219>
VStem: 156 63<333 563 563 563> 318 239<0 36 36 36> 479 63<187 224>
LayerCount: 2
Fore
SplineSet
156 333 m 1xda
 156 563 l 1
 74 563 l 1xdc
 74 605 l 1xea
 118 612 141 621 168 638 c 1
 219 638 l 1
 219 333 l 1
 156 333 l 1xda
77 32 m 1
 28 77 l 1
 211 265 l 1
 244 235 l 1
 77 32 l 1
523 624 m 1
 572 579 l 1
 389 391 l 1
 356 421 l 1
 523 624 l 1
318 0 m 1
 318 36 l 1
 422 115 479 162 479 206 c 0
 479 242 457 265 418 265 c 0
 391 265 366 248 347 223 c 1
 308 256 l 1
 337 291 378 317 426 317 c 0
 498 317 542 280 542 214 c 0xda
 542 160 487 113 421 53 c 1
 557 53 l 1
 557 0 l 1
 318 0 l 1
EndSplineSet
EndChar

StartChar: threequarters
Encoding: 190 190 653
Width: 600
Flags: MW
HStem: 0 116<371 526 371 468> 73 43<371 468 371 468 526 576> 254 51<469 473 469 469> 321 49<142.5 178 142.5 199> 469 38<127 154.5 127 159> 600 50<141.5 172>
VStem: 208 63<547 570> 222 63<401 434.5> 468 58<0 73 0 73 116 172 172 172>
LayerCount: 2
Fore
SplineSet
597 579 m 1x9d80
 414 391 l 1
 381 421 l 1
 549 624 l 1
 597 579 l 1x9d80
54 77 m 1
 237 265 l 1
 269 235 l 1
 102 32 l 1
 54 77 l 1
79 567 m 1
 49 605 l 1
 75 632 118 650 165 650 c 0
 226 650 271 618 271 566 c 0xbe80
 271 528 254 505 215 491 c 1
 258 481 285 455 285 414 c 0
 285 355 233 321 165 321 c 0
 119 321 71 341 38 375 c 1
 69 414 l 1
 90 390 125 370 160 370 c 0
 196 370 222 385 222 417 c 0
 222 452 191 469 127 469 c 1x9d80
 127 507 l 1
 182 507 208 527 208 557 c 0
 208 583 191 600 153 600 c 0x9e80
 129 600 99 587 79 567 c 1
371 116 m 1
 468 116 l 1
 468 172 l 1
 473 254 l 1
 469 254 l 1
 425 189 l 1
 371 116 l 1
526 305 m 1
 526 116 l 1
 576 116 l 1x9d80
 576 73 l 1
 526 73 l 1x5d80
 526 0 l 1
 468 0 l 1x9d80
 468 73 l 1
 306 73 l 1
 306 104 l 1x5d80
 455 305 l 1
 526 305 l 1
EndSplineSet
EndChar

StartChar: questiondown
Encoding: 191 191 489
Width: 600
Flags: MW
HStem: -196 69<277.5 339 277.5 346.5> 344 154<295 335> 478 20G<295 335>
VStem: 123 80<-58.5 20 -58.5 25.5> 242 147<397 444.5>
LayerCount: 2
Fore
SplineSet
359 254 m 1xb8
 383 111 203 71 203 -31 c 0
 203 -86 241 -127 314 -127 c 0
 364 -127 408 -106 444 -70 c 1
 492 -115 l 1
 448 -162 385 -196 308 -196 c 0
 197 -196 123 -135 123 -40 c 0
 123 91 304 124 286 254 c 1
 359 254 l 1xb8
389 421 m 0
 389 373 355 344 315 344 c 0xd8
 275 344 242 373 242 421 c 0
 242 468 275 498 315 498 c 0
 355 498 389 468 389 421 c 0
EndSplineSet
EndChar

StartChar: Agrave
Encoding: 192 192 54
Width: 600
Flags: MW
HStem: 0 21G<32 117 32 32 480 568 480 480> 200 67<201 397 201 418 180 397> 588 68<297 301 297 297> 706 112<169 351 169 282>
VStem: 32 536<0 0>
LayerCount: 2
Fore
SplineSet
351 706 m 1
 282 706 l 1
 169 818 l 1
 263 818 l 1
 351 706 l 1
201 267 m 1
 397 267 l 1
 366 367 l 2
 343 440 322 512 301 588 c 1
 297 588 l 1
 276 512 255 440 232 367 c 2
 201 267 l 1
480 0 m 1
 418 200 l 1
 180 200 l 1
 117 0 l 1
 32 0 l 1
 253 656 l 1
 347 656 l 1
 568 0 l 1
 480 0 l 1
EndSplineSet
EndChar

StartChar: Aacute
Encoding: 193 193 55
Width: 600
Flags: MW
HStem: 0 21G<32 117 32 32 480 568 480 480> 200 67<201 397 201 418 180 397> 588 68<297 301 297 297> 706 112<249 431 249 431>
VStem: 32 536<0 0>
LayerCount: 2
Fore
SplineSet
431 818 m 1
 318 706 l 1
 249 706 l 1
 337 818 l 1
 431 818 l 1
201 267 m 1
 397 267 l 1
 366 367 l 2
 343 440 322 512 301 588 c 1
 297 588 l 1
 276 512 255 440 232 367 c 2
 201 267 l 1
480 0 m 1
 418 200 l 1
 180 200 l 1
 117 0 l 1
 32 0 l 1
 253 656 l 1
 347 656 l 1
 568 0 l 1
 480 0 l 1
EndSplineSet
EndChar

StartChar: Acircumflex
Encoding: 194 194 56
Width: 600
Flags: MW
HStem: 0 21G<32 117 32 32 480 568 480 480> 200 67<201 397 201 418 180 397> 588 68<297 301 297 297> 706 112<164 340 164 340 260 369 260 436>
VStem: 32 536<0 0>
LayerCount: 2
Fore
SplineSet
298 774 m 1
 231 706 l 1
 164 706 l 1
 260 818 l 1
 340 818 l 1
 436 706 l 1
 369 706 l 1
 302 774 l 1
 298 774 l 1
201 267 m 1
 397 267 l 1
 366 367 l 2
 343 440 322 512 301 588 c 1
 297 588 l 1
 276 512 255 440 232 367 c 2
 201 267 l 1
480 0 m 1
 418 200 l 1
 180 200 l 1
 117 0 l 1
 32 0 l 1
 253 656 l 1
 347 656 l 1
 568 0 l 1
 480 0 l 1
EndSplineSet
EndChar

StartChar: Atilde
Encoding: 195 195 57
Width: 600
Flags: MW
HStem: 0 21G<32 117 32 32 480 568 480 480> 200 67<201 397 201 418 180 397> 588 68<297 301 297 297> 711 56<340.5 368.5 340.5 384> 763 56<231.5 259.5>
VStem: 155 46<711 711> 399 46<819 819>
LayerCount: 2
Fore
SplineSet
399 819 m 1xee
 445 819 l 1
 439 758 408 711 360 711 c 0
 307 711 278 763 241 763 c 0
 222 763 206 745 201 711 c 1
 155 711 l 1xee
 161 773 192 819 240 819 c 0
 293 819 322 767 359 767 c 0xf6
 378 767 394 786 399 819 c 1xee
201 267 m 1
 397 267 l 1
 366 367 l 2
 343 440 322 512 301 588 c 1
 297 588 l 1
 276 512 255 440 232 367 c 2
 201 267 l 1
480 0 m 1
 418 200 l 1
 180 200 l 1
 117 0 l 1
 32 0 l 1
 253 656 l 1
 347 656 l 1
 568 0 l 1
 480 0 l 1
EndSplineSet
EndChar

StartChar: Adieresis
Encoding: 196 196 58
Width: 600
Flags: MW
HStem: 0 21G<32 117 32 32 480 568 480 480> 200 67<201 397 201 418 180 397> 588 68<297 301 297 297> 715 98<199.5 228 372 400.5>
VStem: 165 98<750 778.5> 337 98<750 778.5>
LayerCount: 2
Fore
SplineSet
386 715 m 0
 358 715 337 736 337 764 c 0
 337 793 358 813 386 813 c 0
 415 813 435 793 435 764 c 0
 435 736 415 715 386 715 c 0
214 715 m 0
 185 715 165 736 165 764 c 0
 165 793 185 813 214 813 c 0
 242 813 263 793 263 764 c 0
 263 736 242 715 214 715 c 0
201 267 m 1
 397 267 l 1
 366 367 l 2
 343 440 322 512 301 588 c 1
 297 588 l 1
 276 512 255 440 232 367 c 2
 201 267 l 1
480 0 m 1
 418 200 l 1
 180 200 l 1
 117 0 l 1
 32 0 l 1
 253 656 l 1
 347 656 l 1
 568 0 l 1
 480 0 l 1
EndSplineSet
EndChar

StartChar: Aring
Encoding: 197 197 61
Width: 600
Flags: MW
HStem: 0 21G<32 117 32 32 480 568 480 480> 200 67<201 397 201 418 180 397> 588 68<297 301 297 297> 699 36<286.5 312.5 286.5 326.5> 838 37<286.5 312.5>
VStem: 207 45<770.5 802.5 770.5 813.5> 347 46<770.5 802.5>
LayerCount: 2
Fore
SplineSet
300 838 m 0
 273 838 252 818 252 787 c 0
 252 754 273 735 300 735 c 0
 325 735 347 754 347 787 c 0
 347 818 325 838 300 838 c 0
300 699 m 0
 246 699 207 733 207 787 c 0
 207 840 246 875 300 875 c 0
 353 875 393 840 393 787 c 0
 393 733 353 699 300 699 c 0
201 267 m 1
 397 267 l 1
 366 367 l 2
 343 440 322 512 301 588 c 1
 297 588 l 1
 276 512 255 440 232 367 c 2
 201 267 l 1
480 0 m 1
 418 200 l 1
 180 200 l 1
 117 0 l 1
 32 0 l 1
 253 656 l 1
 347 656 l 1
 568 0 l 1
 480 0 l 1
EndSplineSet
EndChar

StartChar: AE
Encoding: 198 198 76
Width: 600
GlyphClass: 2
Flags: MW
HStem: 0 71<393 591 393 591> 191 67<185 317 185 317 159 317> 310 71<393 540 393 540> 586 70<393 582 393 393>
VStem: 317 76<71 71 71 191 191 191 258 310 381 586>
AnchorPoint: "Anchor-0" 451 694 basechar 0
LayerCount: 2
Fore
SplineSet
185 258 m 1
 317 258 l 1
 317 590 l 1
 314 590 l 1
 287 518 258 448 231 377 c 2
 185 258 l 1
393 71 m 1
 591 71 l 1
 591 0 l 1
 317 0 l 1
 317 191 l 1
 159 191 l 1
 86 0 l 1
 -1 0 l 1
 259 656 l 1
 582 656 l 1
 582 586 l 1
 393 586 l 1
 393 381 l 1
 540 381 l 1
 540 310 l 1
 393 310 l 1
 393 71 l 1
EndSplineSet
EndChar

StartChar: Ccedilla
Encoding: 199 199 78
Width: 600
Flags: MW
HStem: -213 41<257 265> -10 71<316 316> 595 73<296 386.5>
VStem: 66 86<247.5 411.5 247.5 433.5> 346 64<-137.5 -111>
LayerCount: 2
Fore
SplineSet
506 134 m 1
 554 83 l 1
 505 27 446 -8 369 -12 c 1
 350 -50 l 1
 383 -61 410 -80 410 -121 c 0
 410 -179 341 -206 265 -213 c 1
 257 -172 l 1
 309 -165 346 -151 346 -124 c 0
 346 -98 323 -85 282 -75 c 1
 316 -10 l 1
 170 9 66 131 66 328 c 0
 66 539 188 668 359 668 c 0
 438 668 500 630 538 588 c 1
 491 535 l 1
 457 571 414 595 359 595 c 0
 233 595 152 493 152 330 c 0
 152 165 233 61 359 61 c 0
 419 61 464 87 506 134 c 1
EndSplineSet
EndChar

StartChar: Egrave
Encoding: 200 200 87
Width: 600
Flags: MW
HStem: 0 71<199 530 199 530> 309 71<199 470 199 470> 586 70<199 520 199 199> 706 112<200 313 200 382>
VStem: 115 84<71 309 380 586>
LayerCount: 2
Fore
SplineSet
115 0 m 1
 115 656 l 1
 520 656 l 1
 520 586 l 1
 199 586 l 1
 199 380 l 1
 470 380 l 1
 470 309 l 1
 199 309 l 1
 199 71 l 1
 530 71 l 1
 530 0 l 1
 115 0 l 1
313 706 m 1
 200 818 l 1
 294 818 l 1
 382 706 l 1
 313 706 l 1
EndSplineSet
EndChar

StartChar: Eacute
Encoding: 201 201 88
Width: 600
Flags: MW
HStem: 0 71<199 530 199 530> 309 71<199 470 199 470> 586 70<199 520 199 199> 706 112<280 462 280 462>
VStem: 115 84<71 309 380 586>
LayerCount: 2
Fore
SplineSet
115 0 m 1
 115 656 l 1
 520 656 l 1
 520 586 l 1
 199 586 l 1
 199 380 l 1
 470 380 l 1
 470 309 l 1
 199 309 l 1
 199 71 l 1
 530 71 l 1
 530 0 l 1
 115 0 l 1
462 818 m 1
 349 706 l 1
 280 706 l 1
 368 818 l 1
 462 818 l 1
EndSplineSet
EndChar

StartChar: Ecircumflex
Encoding: 202 202 89
Width: 600
Flags: MW
HStem: 0 71<199 530 199 530> 309 71<199 470 199 470> 586 70<199 520 199 199> 706 112<195 370 195 370 291 400 291 466>
VStem: 115 84<71 309 380 586>
LayerCount: 2
Fore
SplineSet
115 0 m 1
 115 656 l 1
 520 656 l 1
 520 586 l 1
 199 586 l 1
 199 380 l 1
 470 380 l 1
 470 309 l 1
 199 309 l 1
 199 71 l 1
 530 71 l 1
 530 0 l 1
 115 0 l 1
262 706 m 1
 195 706 l 1
 291 818 l 1
 370 818 l 1
 466 706 l 1
 400 706 l 1
 333 774 l 1
 329 774 l 1
 262 706 l 1
EndSplineSet
MultipleSubs2: "Multiple Substitution lookup 2 subtable" E uni0302
EndChar

StartChar: Edieresis
Encoding: 203 203 91
Width: 600
Flags: MW
HStem: 0 71<199 530 199 530> 309 71<199 470 199 470> 586 70<199 520 199 199> 715 98<230 258.5 403 431>
VStem: 115 84<71 309 380 586> 195 98<750 778.5> 368 98<750 778.5>
LayerCount: 2
Fore
SplineSet
115 0 m 1xe8
 115 656 l 1
 520 656 l 1
 520 586 l 1
 199 586 l 1
 199 380 l 1
 470 380 l 1
 470 309 l 1
 199 309 l 1
 199 71 l 1
 530 71 l 1
 530 0 l 1
 115 0 l 1xe8
244 715 m 0xf6
 216 715 195 736 195 764 c 0
 195 793 216 813 244 813 c 0
 273 813 293 793 293 764 c 0
 293 736 273 715 244 715 c 0xf6
417 715 m 0
 389 715 368 736 368 764 c 0
 368 793 389 813 417 813 c 0
 445 813 466 793 466 764 c 0
 466 736 445 715 417 715 c 0
EndSplineSet
EndChar

StartChar: Iacute
Encoding: 205 205 116
Width: 600
Flags: MW
HStem: 0 71<95 258 95 258 342 505> 586 70<95 258 95 505 342 342 342 505> 706 112<249 431 249 431>
VStem: 258 84<71 586 71 586>
LayerCount: 2
Fore
SplineSet
95 0 m 1
 95 71 l 1
 258 71 l 1
 258 586 l 1
 95 586 l 1
 95 656 l 1
 505 656 l 1
 505 586 l 1
 342 586 l 1
 342 71 l 1
 505 71 l 1
 505 0 l 1
 95 0 l 1
431 818 m 1
 318 706 l 1
 249 706 l 1
 337 818 l 1
 431 818 l 1
EndSplineSet
EndChar

StartChar: Icircumflex
Encoding: 206 206 117
Width: 600
Flags: MW
HStem: 0 71<95 258 95 258 342 505> 586 70<95 258 95 505 342 342 342 505> 706 112<164 340 164 340 260 369 260 436>
VStem: 258 84<71 586 71 586>
LayerCount: 2
Fore
SplineSet
95 0 m 1
 95 71 l 1
 258 71 l 1
 258 586 l 1
 95 586 l 1
 95 656 l 1
 505 656 l 1
 505 586 l 1
 342 586 l 1
 342 71 l 1
 505 71 l 1
 505 0 l 1
 95 0 l 1
231 706 m 1
 164 706 l 1
 260 818 l 1
 340 818 l 1
 436 706 l 1
 369 706 l 1
 302 774 l 1
 298 774 l 1
 231 706 l 1
EndSplineSet
EndChar

StartChar: Idieresis
Encoding: 207 207 119
Width: 600
Flags: MW
HStem: 0 71<95 258 95 258 342 505> 586 70<95 258 95 505 342 342 342 505> 715 98<199.5 228 372 400.5>
VStem: 165 98<750 778.5> 258 84<71 586 71 586> 337 98<750 778.5>
LayerCount: 2
Fore
SplineSet
95 0 m 1xc8
 95 71 l 1
 258 71 l 1
 258 586 l 1
 95 586 l 1
 95 656 l 1
 505 656 l 1
 505 586 l 1
 342 586 l 1
 342 71 l 1
 505 71 l 1
 505 0 l 1
 95 0 l 1xc8
214 715 m 0xf4
 185 715 165 736 165 764 c 0
 165 793 185 813 214 813 c 0
 242 813 263 793 263 764 c 0
 263 736 242 715 214 715 c 0xf4
386 715 m 0
 358 715 337 736 337 764 c 0
 337 793 358 813 386 813 c 0
 415 813 435 793 435 764 c 0
 435 736 415 715 386 715 c 0
EndSplineSet
EndChar

StartChar: Ntilde
Encoding: 209 209 140
Width: 600
Flags: MW
HStem: 0 21G<83 83 83 162 432 432 432 517> 0 108<432 449 447 449 447 517> 548 108<151 153 151 151> 636 20G<83 168 168 168 438 517 517 517> 711 56<346.5 374.5 346.5 390> 763 56<237.5 265.5>
VStem: 83 79<0 343 0 656> 161 46<711 711> 405 46<819 819> 438 79<316 656 0 656>
LayerCount: 2
Fore
SplineSet
83 0 m 1x9640
 83 656 l 1
 168 656 l 1
 381 242 l 1
 447 108 l 1
 449 108 l 1x5640
 446 173 438 247 438 316 c 2
 438 656 l 1
 517 656 l 1
 517 0 l 1
 432 0 l 1
 219 414 l 1
 153 548 l 1
 151 548 l 1xa640
 154 481 162 411 162 343 c 2
 162 0 l 1
 83 0 l 1x9640
366 711 m 0x9a80
 313 711 284 763 247 763 c 0
 228 763 212 745 207 711 c 1
 161 711 l 1x9540
 167 773 198 819 246 819 c 0
 299 819 328 767 365 767 c 0x9980
 384 767 400 786 405 819 c 1
 451 819 l 1x9680
 445 758 414 711 366 711 c 0x9a80
EndSplineSet
EndChar

StartChar: Ograve
Encoding: 210 210 145
Width: 600
Flags: MW
HStem: -12 73<250 350 250 374> 595 73<250 350> 706 112<169 282 169 351>
VStem: 48 86<249 412.5 249 436> 466 86<249 412.5>
LayerCount: 2
Fore
SplineSet
300 -12 m 0
 152 -12 48 120 48 331 c 0
 48 541 152 668 300 668 c 0
 448 668 552 540 552 331 c 0
 552 120 448 -12 300 -12 c 0
300 61 m 0
 400 61 466 167 466 331 c 0
 466 494 400 595 300 595 c 0
 200 595 134 494 134 331 c 0
 134 167 200 61 300 61 c 0
282 706 m 1
 169 818 l 1
 263 818 l 1
 351 706 l 1
 282 706 l 1
EndSplineSet
EndChar

StartChar: Oacute
Encoding: 211 211 146
Width: 600
Flags: MW
HStem: -12 73<250 350 250 374> 595 73<250 350> 706 112<249 431 249 431>
VStem: 48 86<249 412.5 249 436> 466 86<249 412.5>
LayerCount: 2
Fore
SplineSet
300 -12 m 0
 152 -12 48 120 48 331 c 0
 48 541 152 668 300 668 c 0
 448 668 552 540 552 331 c 0
 552 120 448 -12 300 -12 c 0
300 61 m 0
 400 61 466 167 466 331 c 0
 466 494 400 595 300 595 c 0
 200 595 134 494 134 331 c 0
 134 167 200 61 300 61 c 0
431 818 m 1
 318 706 l 1
 249 706 l 1
 337 818 l 1
 431 818 l 1
EndSplineSet
EndChar

StartChar: Ocircumflex
Encoding: 212 212 147
Width: 600
Flags: MW
HStem: -12 73<250 350 250 374> 595 73<250 350> 706 112<164 340 164 340 260 369 260 436>
VStem: 48 86<249 412.5 249 436> 466 86<249 412.5>
LayerCount: 2
Fore
SplineSet
300 -12 m 0
 152 -12 48 120 48 331 c 0
 48 541 152 668 300 668 c 0
 448 668 552 540 552 331 c 0
 552 120 448 -12 300 -12 c 0
300 61 m 0
 400 61 466 167 466 331 c 0
 466 494 400 595 300 595 c 0
 200 595 134 494 134 331 c 0
 134 167 200 61 300 61 c 0
231 706 m 1
 164 706 l 1
 260 818 l 1
 340 818 l 1
 436 706 l 1
 369 706 l 1
 302 774 l 1
 298 774 l 1
 231 706 l 1
EndSplineSet
MultipleSubs2: "Multiple Substitution lookup 2 subtable" O uni0302
EndChar

StartChar: Otilde
Encoding: 213 213 148
Width: 600
Flags: MW
HStem: -12 73<250 350 250 374> 595 73<250 350> 711 56<340.5 368.5 340.5 384> 763 56<231.5 259.5>
VStem: 48 86<249 412.5 249 436> 155 46<711 711> 399 46<819 819> 466 86<249 412.5>
LayerCount: 2
Fore
SplineSet
300 -12 m 0xd9
 152 -12 48 120 48 331 c 0
 48 541 152 668 300 668 c 0
 448 668 552 540 552 331 c 0
 552 120 448 -12 300 -12 c 0xd9
300 61 m 0
 400 61 466 167 466 331 c 0
 466 494 400 595 300 595 c 0
 200 595 134 494 134 331 c 0
 134 167 200 61 300 61 c 0
360 711 m 0xeb
 307 711 278 763 241 763 c 0
 222 763 206 745 201 711 c 1
 155 711 l 1xdd
 161 773 192 819 240 819 c 0
 293 819 322 767 359 767 c 0xef
 378 767 394 786 399 819 c 1
 445 819 l 1xdb
 439 758 408 711 360 711 c 0xeb
EndSplineSet
EndChar

StartChar: multiply
Encoding: 215 215 662
Width: 600
Flags: MW
HStem: 126 407<146 146 146 454>
VStem: 102 396<171 171 171 488>
LayerCount: 2
Fore
SplineSet
146 126 m 1
 102 171 l 1
 256 330 l 1
 102 488 l 1
 146 533 l 1
 300 374 l 1
 454 533 l 1
 498 488 l 1
 344 330 l 1
 498 171 l 1
 454 126 l 1
 300 286 l 1
 146 126 l 1
EndSplineSet
EndChar

StartChar: Oslash
Encoding: 216 216 161
Width: 600
GlyphClass: 2
Flags: MW
HStem: -12 73<278.5 350 278.5 374> 595 73<250 322>
VStem: 48 86<300 412.5 300 436> 466 86<249 361>
AnchorPoint: "Anchor-0" 301 678 basechar 0
LayerCount: 2
Fore
SplineSet
441 484 m 1
 192 116 l 1
 220 81 257 61 300 61 c 0
 400 61 466 167 466 331 c 0
 466 391 457 443 441 484 c 1
161 172 m 1
 410 540 l 1
 382 575 344 595 300 595 c 0
 200 595 134 494 134 331 c 0
 134 269 143 215 161 172 c 1
556 654 m 1
 493 561 l 1
 531 504 552 426 552 331 c 0
 552 120 448 -12 300 -12 c 0
 240 -12 188 9 146 49 c 1
 93 -30 l 1
 45 2 l 1
 108 95 l 1
 70 154 48 234 48 331 c 0
 48 541 152 668 300 668 c 0
 361 668 414 647 455 607 c 1
 509 686 l 1
 556 654 l 1
EndSplineSet
EndChar

StartChar: Ugrave
Encoding: 217 217 189
Width: 600
Flags: MW
HStem: -12 73<261.5 340.5 261.5 365> 636 20G<79 163 163 163 440 521 521 521> 706 112<169 282 169 351>
VStem: 79 84<248 656> 440 81<246 248 248 656>
LayerCount: 2
Fore
SplineSet
79 248 m 2
 79 656 l 1
 163 656 l 1
 163 246 l 2
 163 110 222 61 301 61 c 0
 380 61 440 110 440 246 c 2
 440 656 l 1
 521 656 l 1
 521 248 l 2
 521 60 429 -12 301 -12 c 0
 172 -12 79 60 79 248 c 2
282 706 m 1
 169 818 l 1
 263 818 l 1
 351 706 l 1
 282 706 l 1
EndSplineSet
EndChar

StartChar: Udieresis
Encoding: 220 220 193
Width: 600
Flags: MW
HStem: -12 73<261.5 340.5 261.5 365> 636 20G<79 163 163 163 440 521 521 521> 715 98<199.5 228 372 400.5>
VStem: 79 84<248 656> 165 98<750 778.5> 337 98<750 778.5> 440 81<246 248 248 656>
LayerCount: 2
Fore
SplineSet
79 248 m 2
 79 656 l 1
 163 656 l 1
 163 246 l 2
 163 110 222 61 301 61 c 0
 380 61 440 110 440 246 c 2
 440 656 l 1
 521 656 l 1
 521 248 l 2
 521 60 429 -12 301 -12 c 0
 172 -12 79 60 79 248 c 2
214 715 m 0xec
 185 715 165 736 165 764 c 0
 165 793 185 813 214 813 c 0
 242 813 263 793 263 764 c 0
 263 736 242 715 214 715 c 0xec
386 715 m 0
 358 715 337 736 337 764 c 0
 337 793 358 813 386 813 c 0
 415 813 435 793 435 764 c 0
 435 736 415 715 386 715 c 0
EndSplineSet
EndChar

StartChar: Yacute
Encoding: 221 221 217
Width: 600
Flags: MW
HStem: 0 21G<258 258 258 342> 636 20G<38 126 126 126 476 562 562 562> 706 112<249 431 249 431>
VStem: 258 84<0 234 0 234>
LayerCount: 2
Fore
SplineSet
258 0 m 1
 258 234 l 1
 38 656 l 1
 126 656 l 1
 225 461 l 2
 250 411 273 361 300 308 c 1
 304 308 l 1
 330 361 356 411 381 462 c 2
 476 656 l 1
 562 656 l 1
 342 234 l 1
 342 0 l 1
 258 0 l 1
431 818 m 1
 318 706 l 1
 249 706 l 1
 337 818 l 1
 431 818 l 1
EndSplineSet
EndChar

StartChar: Thorn
Encoding: 222 222 229
Width: 600
Flags: MW
HStem: 0 21G<101 101 101 185> 150 68<185 292 292 303 185 292> 478 68<185 292 185 303> 478 178<101 292 101 185>
VStem: 101 84<0 150 218 478 546 656> 462 83<306 400>
LayerCount: 2
Fore
SplineSet
101 0 m 1xec
 101 656 l 1
 185 656 l 1xdc
 185 546 l 1
 303 546 l 2
 448 546 545 496 545 353 c 0
 545 214 446 150 303 150 c 2
 185 150 l 1
 185 0 l 1
 101 0 l 1xec
185 218 m 1
 292 218 l 2
 407 218 462 259 462 353 c 0
 462 447 405 478 292 478 c 2
 185 478 l 1xec
 185 218 l 1
EndSplineSet
EndChar

StartChar: germandbls
Encoding: 223 223 363
Width: 600
Flags: MW
HStem: -12 64<379.5 427 379.5 450.5> 0 21G<88 88 88 170> 657 67<251.5 315.5>
VStem: 88 82<0 507 0 519 0 580.5> 284 79<325.5 408.5 325.5 409.5> 374 79<528.5 595.5> 486 78<109.5 188>
LayerCount: 2
Fore
SplineSet
88 0 m 1x7e
 88 519 l 2
 88 642 164 724 289 724 c 0xbe
 395 724 453 655 453 576 c 0
 453 476 363 443 363 374 c 0
 363 277 564 295 564 137 c 0
 564 53 500 -12 401 -12 c 0
 345 -12 299 5 257 33 c 1
 290 91 l 1
 327 65 360 52 399 52 c 0
 455 52 486 89 486 130 c 0xba
 486 246 284 225 284 364 c 0
 284 455 374 486 374 571 c 0
 374 620 343 657 288 657 c 0
 215 657 170 606 170 507 c 2
 170 0 l 1
 88 0 l 1x7e
EndSplineSet
EndChar

StartChar: aacute
Encoding: 225 225 232
Width: 600
Flags: MW
HStem: -12 66<240 280.5> 0 21G<448 515 448 448> 430 68<275.5 351> 573 148<248 428 248 428>
VStem: 81 80<104.5 164 104.5 180.5> 433 82<126 254 254 254>
LayerCount: 2
Fore
SplineSet
81 126 m 0xbc
 81 235 182 288 433 308 c 1
 431 374 398 430 304 430 c 0
 241 430 179 400 134 372 c 1
 102 428 l 1
 151 460 233 498 318 498 c 0
 451 498 515 419 515 298 c 2
 515 0 l 1
 448 0 l 1x7c
 441 66 l 1
 438 66 l 1
 384 24 315 -12 246 -12 c 0
 155 -12 81 39 81 126 c 0xbc
161 132 m 0
 161 77 212 54 268 54 c 0
 323 54 378 80 433 126 c 1
 433 254 l 1
 225 237 161 196 161 132 c 0
428 721 m 1
 312 573 l 1
 248 573 l 1
 339 721 l 1
 428 721 l 1
EndSplineSet
Substitution2: "'ss02' Style Set 2 in Latin lookup 18 subtable" aacute.a
Substitution2: "'aalt' Access All Alternates in Latin lookup 0 subtable" aacute.a
EndChar

StartChar: acircumflex
Encoding: 226 226 233
Width: 600
Flags: MW
HStem: -12 66<240 280.5> 0 21G<448 515 448 448> 430 68<275.5 351> 573 148<181 349 181 349 278 383 278 446> 672 49<312 316 312 312>
VStem: 81 80<104.5 164 104.5 180.5> 433 82<126 254 254 254>
LayerCount: 2
Fore
SplineSet
81 126 m 0xb6
 81 235 182 288 433 308 c 1
 431 374 398 430 304 430 c 0
 241 430 179 400 134 372 c 1
 102 428 l 1
 151 460 233 498 318 498 c 0
 451 498 515 419 515 298 c 2
 515 0 l 1
 448 0 l 1x76
 441 66 l 1
 438 66 l 1
 384 24 315 -12 246 -12 c 0
 155 -12 81 39 81 126 c 0xb6
161 132 m 0
 161 77 212 54 268 54 c 0
 323 54 378 80 433 126 c 1
 433 254 l 1
 225 237 161 196 161 132 c 0
181 573 m 1
 278 721 l 1
 349 721 l 1
 446 573 l 1
 383 573 l 1xb6
 316 672 l 1
 312 672 l 1xae
 245 573 l 1
 181 573 l 1
EndSplineSet
Substitution2: "'ss02' Style Set 2 in Latin lookup 18 subtable" acircumflex.a
Substitution2: "'aalt' Access All Alternates in Latin lookup 0 subtable" acircumflex.a
EndChar

StartChar: atilde
Encoding: 227 227 234
Width: 600
Flags: MW
HStem: -12 66<240 280.5> 0 21G<448 515 448 448> 430 68<275.5 351> 579 55<172 275.5 352 379> 634 54<248 275.5>
VStem: 81 80<104.5 164 104.5 180.5> 172 47<579 579> 408 47<688 688> 433 82<126 254 254 254>
LayerCount: 2
Fore
SplineSet
81 126 m 0xac80
 81 235 182 288 433 308 c 1
 431 374 398 430 304 430 c 0
 241 430 179 400 134 372 c 1
 102 428 l 1
 151 460 233 498 318 498 c 0
 451 498 515 419 515 298 c 2
 515 0 l 1
 448 0 l 1x6c80
 441 66 l 1
 438 66 l 1
 384 24 315 -12 246 -12 c 0
 155 -12 81 39 81 126 c 0xac80
161 132 m 0
 161 77 212 54 268 54 c 0
 323 54 378 80 433 126 c 1
 433 254 l 1
 225 237 161 196 161 132 c 0
172 579 m 1xaf
 178 642 206 688 260 688 c 0
 308 688 336 634 368 634 c 0
 390 634 402 652 408 688 c 1
 455 688 l 1xb7
 449 626 421 579 368 579 c 0
 319 579 292 634 259 634 c 0
 237 634 225 616 219 579 c 1
 172 579 l 1xaf
EndSplineSet
Substitution2: "'ss02' Style Set 2 in Latin lookup 18 subtable" atilde.a
Substitution2: "'aalt' Access All Alternates in Latin lookup 0 subtable" atilde.a
EndChar

StartChar: adieresis
Encoding: 228 228 235
Width: 600
Flags: MW
HStem: -12 66<240 280.5> 0 21G<448 515 448 448> 430 68<275.5 351> 588 110<201.5 233 394 426>
VStem: 81 80<104.5 164 104.5 180.5> 163 108<627.5 658.5> 356 108<627.5 658.5> 433 82<126 254 254 254>
LayerCount: 2
Fore
SplineSet
81 126 m 0xb9
 81 235 182 288 433 308 c 1
 431 374 398 430 304 430 c 0
 241 430 179 400 134 372 c 1
 102 428 l 1
 151 460 233 498 318 498 c 0
 451 498 515 419 515 298 c 2
 515 0 l 1
 448 0 l 1x79
 441 66 l 1
 438 66 l 1
 384 24 315 -12 246 -12 c 0
 155 -12 81 39 81 126 c 0xb9
161 132 m 0
 161 77 212 54 268 54 c 0
 323 54 378 80 433 126 c 1
 433 254 l 1
 225 237 161 196 161 132 c 0
217 588 m 0xb6
 186 588 163 612 163 643 c 0
 163 674 186 698 217 698 c 0
 249 698 271 674 271 643 c 0
 271 612 249 588 217 588 c 0xb6
410 588 m 0
 378 588 356 612 356 643 c 0
 356 674 378 698 410 698 c 0
 442 698 464 674 464 643 c 0
 464 612 442 588 410 588 c 0
EndSplineSet
Substitution2: "'ss02' Style Set 2 in Latin lookup 18 subtable" adieresis.a
Substitution2: "'aalt' Access All Alternates in Latin lookup 0 subtable" adieresis.a
EndChar

StartChar: aring
Encoding: 229 229 238
Width: 600
Flags: MW
HStem: -12 66<240 280.5> 0 21G<448 515 448 448> 430 68<275.5 351> 542 37<300.5 327 300.5 341> 690 37<300.5 327>
VStem: 81 80<104.5 164 104.5 180.5> 220 45<618 651.5 618 662.5> 362 45<618 651.5> 433 82<126 254 254 254>
LayerCount: 2
Fore
SplineSet
81 126 m 0xbe80
 81 235 182 288 433 308 c 1
 431 374 398 430 304 430 c 0
 241 430 179 400 134 372 c 1
 102 428 l 1
 151 460 233 498 318 498 c 0
 451 498 515 419 515 298 c 2
 515 0 l 1
 448 0 l 1x7e80
 441 66 l 1
 438 66 l 1
 384 24 315 -12 246 -12 c 0
 155 -12 81 39 81 126 c 0xbe80
161 132 m 0
 161 77 212 54 268 54 c 0
 323 54 378 80 433 126 c 1
 433 254 l 1
 225 237 161 196 161 132 c 0
314 542 m 0xbf80
 259 542 220 579 220 635 c 0
 220 690 259 727 314 727 c 0
 368 727 407 690 407 635 c 0
 407 579 368 542 314 542 c 0xbf80
314 579 m 0
 340 579 362 601 362 635 c 0
 362 668 340 690 314 690 c 0
 287 690 265 668 265 635 c 0
 265 601 287 579 314 579 c 0
EndSplineSet
Substitution2: "'ss02' Style Set 2 in Latin lookup 18 subtable" aring.a
Substitution2: "'aalt' Access All Alternates in Latin lookup 0 subtable" aring.a
EndChar

StartChar: ae
Encoding: 230 230 253
Width: 600
Flags: MW
HStem: -12 66<144.5 172.5 419 475.5> 223 55<335 528 334 593 335 335> 433 65<418 475.5>
VStem: 17 76<107 164 107 177.5> 265 69<229 278> 528 69<278 319.5>
LayerCount: 2
Fore
SplineSet
17 129 m 0
 17 226 101 283 265 308 c 1
 264 380 241 431 178 431 c 0
 143 431 95 411 64 390 c 1
 33 446 l 1
 73 472 128 498 188 498 c 0
 251 498 291 456 309 400 c 1
 341 462 386 498 450 498 c 0
 549 498 597 395 597 276 c 0
 597 257 595 240 593 223 c 1
 335 223 l 1
 339 122 379 54 457 54 c 0
 494 54 525 68 553 85 c 1
 582 31 l 1
 549 8 504 -12 454 -12 c 0
 384 -12 337 22 305 79 c 1
 251 20 198 -12 147 -12 c 0
 68 -12 17 42 17 129 c 0
334 278 m 1
 528 278 l 1
 528 361 508 433 443 433 c 0
 381 433 340 375 334 278 c 1
93 133 m 0
 93 81 122 54 167 54 c 0
 201 54 246 79 281 125 c 1
 271 154 266 191 265 229 c 2
 264 254 l 1
 142 233 93 195 93 133 c 0
EndSplineSet
EndChar

StartChar: ccedilla
Encoding: 231 231 255
Width: 600
Flags: MW
HStem: -213 21G<265 265> -11 67<315 315 369 369> 430 68<298 379.5>
VStem: 80 85<186.5 298 186.5 323.5> 346 64<-137.5 -111>
LayerCount: 2
Fore
SplineSet
369 -11 m 1
 351 -50 l 1
 383 -61 410 -80 410 -121 c 0
 410 -179 341 -206 265 -213 c 1
 257 -172 l 1
 309 -165 346 -151 346 -124 c 0
 346 -98 323 -85 282 -75 c 1
 315 -11 l 1
 179 1 80 92 80 242 c 0
 80 405 204 498 351 498 c 0
 430 498 488 466 528 427 c 1
 487 374 l 1
 447 409 405 430 354 430 c 0
 242 430 165 354 165 242 c 0
 165 131 240 56 352 56 c 0
 412 56 462 83 503 117 c 1
 539 64 l 1
 492 21 433 -6 369 -11 c 1
EndSplineSet
EndChar

StartChar: egrave
Encoding: 232 232 264
Width: 600
Flags: MW
HStem: -12 66<287 368.5 287 369> 223 59<154 461 153 534 154 154> 433 65<277.5 362> 573 148<200 316 200 380>
VStem: 69 85<223 223 223 321.5> 461 76<282 330.5>
LayerCount: 2
Fore
SplineSet
69 242 m 0
 69 401 190 498 316 498 c 0
 455 498 537 407 537 270 c 0
 537 253 536 235 534 223 c 1
 154 223 l 1
 158 120 234 54 340 54 c 0
 397 54 443 71 488 99 c 1
 517 45 l 1
 469 14 408 -12 330 -12 c 0
 186 -12 69 83 69 242 c 0
153 282 m 1
 461 282 l 1
 461 379 407 433 317 433 c 0
 238 433 166 377 153 282 c 1
316 573 m 1
 200 721 l 1
 289 721 l 1
 380 573 l 1
 316 573 l 1
EndSplineSet
Substitution2: "'sups' Superscript in Latin lookup 12 subtable" egrave.sups
Substitution2: "'aalt' Access All Alternates in Latin lookup 0 subtable" egrave.sups
EndChar

StartChar: edieresis
Encoding: 235 235 268
Width: 600
Flags: MW
HStem: -12 66<287 368.5 287 369> 223 59<154 461 153 534 154 154> 433 65<277.5 362> 588 110<202.5 234 395 427>
VStem: 69 85<223 223 223 321.5> 165 107<627.5 658.5> 357 108<627.5 658.5> 461 76<282 330.5>
LayerCount: 2
Fore
SplineSet
69 242 m 0xe9
 69 401 190 498 316 498 c 0
 455 498 537 407 537 270 c 0
 537 253 536 235 534 223 c 1
 154 223 l 1
 158 120 234 54 340 54 c 0
 397 54 443 71 488 99 c 1
 517 45 l 1
 469 14 408 -12 330 -12 c 0
 186 -12 69 83 69 242 c 0xe9
153 282 m 1
 461 282 l 1
 461 379 407 433 317 433 c 0
 238 433 166 377 153 282 c 1
218 588 m 0xfe
 187 588 165 612 165 643 c 0
 165 674 187 698 218 698 c 0
 250 698 272 674 272 643 c 0
 272 612 250 588 218 588 c 0xfe
411 588 m 0
 379 588 357 612 357 643 c 0
 357 674 379 698 411 698 c 0
 443 698 465 674 465 643 c 0
 465 612 443 588 411 588 c 0
EndSplineSet
EndChar

StartChar: igrave
Encoding: 236 236 292
Width: 600
Flags: MW
HStem: 0 21G<316 398 316 316> 419 67<90 398 90 316> 573 148<233 350 233 413>
VStem: 316 82<0 419 419 419>
LayerCount: 2
Fore
SplineSet
90 419 m 1
 90 486 l 1
 398 486 l 1
 398 0 l 1
 316 0 l 1
 316 419 l 1
 90 419 l 1
350 573 m 1
 233 721 l 1
 323 721 l 1
 413 573 l 1
 350 573 l 1
EndSplineSet
EndChar

StartChar: iacute
Encoding: 237 237 293
Width: 600
Flags: MW
HStem: 0 21G<316 398 316 316> 419 67<90 398 90 316> 573 148<283 462 283 462>
VStem: 316 82<0 419 419 419>
LayerCount: 2
Fore
SplineSet
90 419 m 1
 90 486 l 1
 398 486 l 1
 398 0 l 1
 316 0 l 1
 316 419 l 1
 90 419 l 1
462 721 m 1
 346 573 l 1
 283 573 l 1
 373 721 l 1
 462 721 l 1
EndSplineSet
EndChar

StartChar: icircumflex
Encoding: 238 238 294
Width: 600
Flags: MW
HStem: 0 21G<316 398 316 316> 419 67<90 398 90 316> 573 148<216 383 216 383 312 417 312 480> 672 49<346 350 346 346>
VStem: 316 82<0 419 419 419>
LayerCount: 2
Fore
SplineSet
90 419 m 1xe8
 90 486 l 1
 398 486 l 1
 398 0 l 1
 316 0 l 1
 316 419 l 1
 90 419 l 1xe8
216 573 m 1
 312 721 l 1
 383 721 l 1
 480 573 l 1
 417 573 l 1xe8
 350 672 l 1
 346 672 l 1xd8
 279 573 l 1
 216 573 l 1
EndSplineSet
EndChar

StartChar: idieresis
Encoding: 239 239 296
Width: 600
Flags: MW
HStem: 0 21G<316 398 316 316> 419 67<90 398 90 316> 588 110<235.5 267 428 460>
VStem: 198 107<627.5 658.5> 316 82<0 419 419 419> 390 108<627.5 658.5>
LayerCount: 2
Fore
SplineSet
90 419 m 1xe8
 90 486 l 1
 398 486 l 1
 398 0 l 1
 316 0 l 1
 316 419 l 1
 90 419 l 1xe8
251 588 m 0xf4
 220 588 198 612 198 643 c 0
 198 674 220 698 251 698 c 0
 283 698 305 674 305 643 c 0
 305 612 283 588 251 588 c 0xf4
444 588 m 0
 412 588 390 612 390 643 c 0
 390 674 412 698 444 698 c 0
 476 698 498 674 498 643 c 0
 498 612 476 588 444 588 c 0
EndSplineSet
EndChar

StartChar: eth
Encoding: 240 240 409
Width: 600
Flags: MW
HStem: -12 68<255.5 353 255.5 371> 383 64<246.5 319 222 326> 692 20G<486 486>
VStem: 60 77<172 268 172 290> 457 79<196 261.5>
LayerCount: 2
Fore
SplineSet
300 56 m 0
 406 56 457 138 457 254 c 0
 457 269 457 284 456 298 c 1
 409 360 352 383 300 383 c 0
 193 383 137 314 137 222 c 0
 137 122 211 56 300 56 c 0
509 671 m 1
 390 610 l 1
 478 529 536 418 536 257 c 0
 536 97 444 -12 298 -12 c 0
 172 -12 60 77 60 222 c 0
 60 358 156 447 288 447 c 0
 350 447 410 417 447 367 c 1
 429 458 387 524 326 577 c 1
 176 500 l 1
 153 541 l 1
 285 609 l 1
 250 634 210 656 165 678 c 1
 203 730 l 1
 256 705 306 677 351 643 c 1
 486 712 l 1
 509 671 l 1
EndSplineSet
EndChar

StartChar: ntilde
Encoding: 241 241 319
Width: 600
Flags: MW
HStem: 0 21G<93 93 93 175 441 441 441 523> 427 71<317 369> 466 20G<93 161 161 161> 579 55<176 279.5 356.5 383> 634 54<252.5 279.5>
VStem: 93 82<0 339 0 486> 176 47<579 579> 413 46<688 688> 441 82<0 291 291 302 0 337>
LayerCount: 2
Fore
SplineSet
93 0 m 1xcc80
 93 486 l 1
 161 486 l 1xac80
 168 403 l 1
 172 403 l 1
 223 457 279 498 355 498 c 0
 470 498 523 430 523 302 c 2
 523 0 l 1
 441 0 l 1
 441 291 l 2
 441 383 409 427 329 427 c 0
 271 427 232 398 175 339 c 1
 175 0 l 1
 93 0 l 1xcc80
176 579 m 1xcb
 183 642 211 688 264 688 c 0
 312 688 341 634 372 634 c 0xd3
 394 634 406 652 413 688 c 1
 459 688 l 1
 453 626 425 579 372 579 c 0
 323 579 296 634 263 634 c 0
 242 634 229 616 223 579 c 1
 176 579 l 1xcb
EndSplineSet
EndChar

StartChar: ograve
Encoding: 242 242 325
Width: 600
Flags: MW
HStem: -12 68<253.5 346.5 253.5 364> 430 68<253.5 346.5> 573 148<185 302 185 365>
VStem: 60 85<186.5 298 186.5 323.5> 455 85<186.5 298>
LayerCount: 2
Fore
SplineSet
60 242 m 0
 60 405 172 498 300 498 c 0
 428 498 540 405 540 242 c 0
 540 81 428 -12 300 -12 c 0
 172 -12 60 81 60 242 c 0
145 242 m 0
 145 131 207 56 300 56 c 0
 393 56 455 131 455 242 c 0
 455 354 393 430 300 430 c 0
 207 430 145 354 145 242 c 0
302 573 m 1
 185 721 l 1
 275 721 l 1
 365 573 l 1
 302 573 l 1
EndSplineSet
EndChar

StartChar: oacute
Encoding: 243 243 326
Width: 600
Flags: MW
HStem: -12 68<253.5 346.5 253.5 364> 430 68<253.5 346.5> 573 148<235 415 235 415>
VStem: 60 85<186.5 298 186.5 323.5> 455 85<186.5 298>
LayerCount: 2
Fore
SplineSet
60 242 m 0
 60 405 172 498 300 498 c 0
 428 498 540 405 540 242 c 0
 540 81 428 -12 300 -12 c 0
 172 -12 60 81 60 242 c 0
145 242 m 0
 145 131 207 56 300 56 c 0
 393 56 455 131 455 242 c 0
 455 354 393 430 300 430 c 0
 207 430 145 354 145 242 c 0
415 721 m 1
 298 573 l 1
 235 573 l 1
 325 721 l 1
 415 721 l 1
EndSplineSet
EndChar

StartChar: ocircumflex
Encoding: 244 244 327
Width: 600
Flags: MW
HStem: -12 68<253.5 346.5 253.5 364> 430 68<253.5 346.5> 573 148<168 335 168 335 265 369 265 432> 672 49<298 302 298 298>
VStem: 60 85<186.5 298 186.5 323.5> 455 85<186.5 298>
LayerCount: 2
Fore
SplineSet
60 242 m 0xec
 60 405 172 498 300 498 c 0
 428 498 540 405 540 242 c 0
 540 81 428 -12 300 -12 c 0
 172 -12 60 81 60 242 c 0xec
145 242 m 0
 145 131 207 56 300 56 c 0
 393 56 455 131 455 242 c 0
 455 354 393 430 300 430 c 0
 207 430 145 354 145 242 c 0
168 573 m 1
 265 721 l 1
 335 721 l 1
 432 573 l 1
 369 573 l 1xec
 302 672 l 1
 298 672 l 1xdc
 231 573 l 1
 168 573 l 1
EndSplineSet
MultipleSubs2: "Multiple Substitution lookup 2 subtable" o uni0302
EndChar

StartChar: otilde
Encoding: 245 245 328
Width: 600
Flags: MW
HStem: -12 68<253.5 346.5 253.5 364> 430 68<253.5 346.5> 579 55<158 261.5 339 365.5> 634 54<234.5 261.5>
VStem: 60 85<186.5 298 186.5 323.5> 158 47<579 579> 395 47<688 688> 455 85<186.5 298>
LayerCount: 2
Fore
SplineSet
60 242 m 0xd9
 60 405 172 498 300 498 c 0
 428 498 540 405 540 242 c 0
 540 81 428 -12 300 -12 c 0
 172 -12 60 81 60 242 c 0xd9
145 242 m 0
 145 131 207 56 300 56 c 0
 393 56 455 131 455 242 c 0
 455 354 393 430 300 430 c 0
 207 430 145 354 145 242 c 0
158 579 m 1xdf
 165 642 193 688 246 688 c 0
 294 688 323 634 355 634 c 0xef
 376 634 389 652 395 688 c 1
 442 688 l 1
 435 626 407 579 354 579 c 0
 305 579 278 634 245 634 c 0
 224 634 211 616 205 579 c 1
 158 579 l 1xdf
EndSplineSet
EndChar

StartChar: odieresis
Encoding: 246 246 329
Width: 600
Flags: MW
HStem: -12 68<253.5 346.5 253.5 364> 430 68<253.5 346.5> 588 110<188 219.5 380.5 412>
VStem: 60 85<186.5 298 186.5 323.5> 150 108<627.5 658.5> 342 108<627.5 658.5> 455 85<186.5 298>
LayerCount: 2
Fore
SplineSet
60 242 m 0
 60 405 172 498 300 498 c 0
 428 498 540 405 540 242 c 0
 540 81 428 -12 300 -12 c 0
 172 -12 60 81 60 242 c 0
145 242 m 0
 145 131 207 56 300 56 c 0
 393 56 455 131 455 242 c 0
 455 354 393 430 300 430 c 0
 207 430 145 354 145 242 c 0
204 588 m 0xec
 172 588 150 612 150 643 c 0
 150 674 172 698 204 698 c 0
 235 698 258 674 258 643 c 0
 258 612 235 588 204 588 c 0xec
396 588 m 0
 365 588 342 612 342 643 c 0
 342 674 365 698 396 698 c 0
 428 698 450 674 450 643 c 0
 450 612 428 588 396 588 c 0
EndSplineSet
EndChar

StartChar: divide
Encoding: 247 247 663
Width: 600
Flags: MW
HStem: 96 107<284.5 315.5> 299 62<85 515 85 515> 456 107<284.5 315.5>
VStem: 246 108<134 165.5 494 525.5>
LayerCount: 2
Fore
SplineSet
300 456 m 0
 269 456 246 478 246 510 c 0
 246 541 269 563 300 563 c 0
 331 563 354 541 354 510 c 0
 354 478 331 456 300 456 c 0
246 150 m 0
 246 181 269 203 300 203 c 0
 331 203 354 181 354 150 c 0
 354 118 331 96 300 96 c 0
 269 96 246 118 246 150 c 0
85 299 m 1
 85 361 l 1
 515 361 l 1
 515 299 l 1
 85 299 l 1
EndSplineSet
EndChar

StartChar: oslash
Encoding: 248 248 341
Width: 600
GlyphClass: 2
Flags: MW
HStem: -12 21G<273 364> -12 66<280.5 346.5 280.5 364> 432 66<253.5 319.5> 478 20G<236 327>
VStem: 60 85<220 298 220 323.5> 455 85<186.5 264>
AnchorPoint: "Anchor-0" 300 508 basechar 0
LayerCount: 2
Fore
SplineSet
428 356 m 1x6c
 201 92 l 1
 227 68 261 54 300 54 c 0
 393 54 455 131 455 242 c 0
 455 286 445 325 428 356 c 1x6c
172 130 m 1
 398 394 l 1
 373 418 339 432 300 432 c 0
 207 432 145 354 145 242 c 0
 145 198 155 160 172 130 c 1
534 480 m 1x5c
 481 418 l 1
 517 375 540 315 540 242 c 0
 540 81 428 -12 300 -12 c 0
 246 -12 195 5 154 36 c 1
 103 -23 l 1x5c
 66 6 l 1
 119 68 l 1
 83 111 60 170 60 242 c 0
 60 405 172 498 300 498 c 0
 354 498 405 481 446 450 c 1
 497 509 l 1xac
 534 480 l 1x5c
EndSplineSet
EndChar

StartChar: uacute
Encoding: 250 250 371
Width: 600
Flags: MW
HStem: -12 71<231.5 283.5> 0 21G<438 505 438 438> 466 20G<77 160 160 160 423 505 505 505> 573 148<229 409 229 409>
VStem: 77 83<184 195 195 486> 423 82<149 486 0 486>
LayerCount: 2
Fore
SplineSet
505 486 m 1xbc
 505 0 l 1
 438 0 l 1x7c
 431 85 l 1
 427 85 l 1
 378 28 321 -12 246 -12 c 0
 130 -12 77 56 77 184 c 2
 77 486 l 1
 160 486 l 1
 160 195 l 2
 160 103 191 59 272 59 c 0
 328 59 369 86 423 149 c 1
 423 486 l 1
 505 486 l 1xbc
409 721 m 1
 293 573 l 1
 229 573 l 1
 320 721 l 1
 409 721 l 1
EndSplineSet
EndChar

StartChar: ucircumflex
Encoding: 251 251 372
Width: 600
Flags: MW
HStem: -12 71<231.5 283.5> 0 21G<438 505 438 438> 466 20G<77 160 160 160 423 505 505 505> 573 148<162 330 162 330 259 364 259 427> 672 49<293 297 293 293>
VStem: 77 83<184 195 195 486> 423 82<149 486 0 486>
LayerCount: 2
Fore
SplineSet
505 486 m 1xb6
 505 0 l 1
 438 0 l 1x76
 431 85 l 1
 427 85 l 1
 378 28 321 -12 246 -12 c 0
 130 -12 77 56 77 184 c 2
 77 486 l 1
 160 486 l 1
 160 195 l 2
 160 103 191 59 272 59 c 0
 328 59 369 86 423 149 c 1
 423 486 l 1
 505 486 l 1xb6
162 573 m 1
 259 721 l 1
 330 721 l 1
 427 573 l 1
 364 573 l 1xb6
 297 672 l 1
 293 672 l 1xae
 226 573 l 1
 162 573 l 1
EndSplineSet
EndChar

StartChar: udieresis
Encoding: 252 252 374
Width: 600
Flags: MW
HStem: -12 71<231.5 283.5> 0 21G<438 505 438 438> 466 20G<77 160 160 160 423 505 505 505> 588 110<182.5 214 375 407>
VStem: 77 83<184 195 195 486> 145 107<627.5 658.5> 337 108<627.5 658.5> 423 82<149 486 0 486>
LayerCount: 2
Fore
SplineSet
505 486 m 1xb9
 505 0 l 1
 438 0 l 1x75
 431 85 l 1
 427 85 l 1
 378 28 321 -12 246 -12 c 0
 130 -12 77 56 77 184 c 2
 77 486 l 1
 160 486 l 1
 160 195 l 2
 160 103 191 59 272 59 c 0
 328 59 369 86 423 149 c 1
 423 486 l 1
 505 486 l 1xb9
198 588 m 0
 167 588 145 612 145 643 c 0
 145 674 167 698 198 698 c 0
 230 698 252 674 252 643 c 0
 252 612 230 588 198 588 c 0
391 588 m 0xba
 359 588 337 612 337 643 c 0
 337 674 359 698 391 698 c 0
 423 698 445 674 445 643 c 0
 445 612 423 588 391 588 c 0xba
EndSplineSet
EndChar

StartChar: thorn
Encoding: 254 254 410
Width: 600
GlyphClass: 2
Flags: MW
HStem: -205 21G<93 175 93 93> -12 69<295 347.5 288 376.5> 429 69<308.5 365.5> 692 20G<93 175 175 175>
VStem: 93 82<-205 -41 114 356 511 712> 455 85<190 303.5>
AnchorPoint: "Anchor-2" 306 -22 basechar 0
AnchorPoint: "Anchor-0" 138 730 basechar 0
LayerCount: 2
Fore
SplineSet
175 -41 m 1
 175 -205 l 1
 93 -205 l 1
 93 712 l 1
 175 712 l 1
 175 511 l 1
 173 424 l 1
 220 469 280 498 337 498 c 0
 468 498 540 401 540 250 c 0
 540 85 434 -12 319 -12 c 0
 271 -12 218 13 174 51 c 1
 175 -41 l 1
175 114 m 1
 221 73 271 57 305 57 c 0
 390 57 455 130 455 250 c 0
 455 357 414 429 317 429 c 0
 274 429 225 406 175 356 c 1
 175 114 l 1
EndSplineSet
EndChar

StartChar: ydieresis
Encoding: 255 255 400
Width: 600
Flags: MW
HStem: -209 68<120.5 162 120.5 186> 466 20G<49 132 132 132 473 551 551 551> 588 110<192 224 385 416.5>
VStem: 154 108<627.5 658.5> 347 107<627.5 658.5>
LayerCount: 2
Fore
SplineSet
84 -134 m 1
 97 -138 113 -141 128 -141 c 0
 196 -141 237 -97 261 -37 c 2
 276 -1 l 1
 49 486 l 1
 132 486 l 1
 251 217 l 2
 270 174 291 123 311 76 c 1
 315 76 l 1
 332 122 351 173 367 217 c 1
 473 486 l 1
 551 486 l 1
 337 -40 l 1
 301 -136 241 -209 131 -209 c 0
 108 -209 84 -205 67 -199 c 1
 84 -134 l 1
208 588 m 0
 176 588 154 612 154 643 c 0
 154 674 176 698 208 698 c 0
 240 698 262 674 262 643 c 0
 262 612 240 588 208 588 c 0
401 588 m 0
 369 588 347 612 347 643 c 0
 347 674 369 698 401 698 c 0
 432 698 454 674 454 643 c 0
 454 612 432 588 401 588 c 0
EndSplineSet
EndChar

StartChar: Amacron
Encoding: 256 256 59
Width: 600
Flags: MW
HStem: 0 21G<32 117 32 32 480 568 480 480> 200 67<201 397 201 418 180 397> 588 68<297 301 297 297> 729 57<176 424 176 424>
VStem: 176 248<729 786 729 786>
LayerCount: 2
Fore
SplineSet
424 786 m 1
 424 729 l 1
 176 729 l 1
 176 786 l 1
 424 786 l 1
201 267 m 1
 397 267 l 1
 366 367 l 2
 343 440 322 512 301 588 c 1
 297 588 l 1
 276 512 255 440 232 367 c 2
 201 267 l 1
480 0 m 1
 418 200 l 1
 180 200 l 1
 117 0 l 1
 32 0 l 1
 253 656 l 1
 347 656 l 1
 568 0 l 1
 480 0 l 1
EndSplineSet
EndChar

StartChar: amacron
Encoding: 257 257 236
Width: 600
Flags: MW
HStem: -12 66<240 280.5> 0 21G<448 515 448 448> 430 68<275.5 351> 601 57<191 436 191 436>
VStem: 81 80<104.5 164 104.5 180.5> 191 245<601 658 601 658> 433 82<126 254 254 254>
LayerCount: 2
Fore
SplineSet
81 126 m 0xba
 81 235 182 288 433 308 c 1
 431 374 398 430 304 430 c 0
 241 430 179 400 134 372 c 1
 102 428 l 1
 151 460 233 498 318 498 c 0
 451 498 515 419 515 298 c 2
 515 0 l 1
 448 0 l 1x7a
 441 66 l 1
 438 66 l 1
 384 24 315 -12 246 -12 c 0
 155 -12 81 39 81 126 c 0xba
161 132 m 0
 161 77 212 54 268 54 c 0
 323 54 378 80 433 126 c 1
 433 254 l 1
 225 237 161 196 161 132 c 0
191 601 m 1xbc
 191 658 l 1
 436 658 l 1
 436 601 l 1
 191 601 l 1xbc
EndSplineSet
Substitution2: "'ss02' Style Set 2 in Latin lookup 18 subtable" amacron.a
Substitution2: "'aalt' Access All Alternates in Latin lookup 0 subtable" amacron.a
EndChar

StartChar: Abreve
Encoding: 258 258 60
Width: 600
Flags: MW
HStem: 0 21G<32 117 32 32 480 568 480 480> 200 67<201 397 201 418 180 397> 588 68<297 301 297 297> 708 47<277.5 322.5 277.5 340>
VStem: 32 536<0 0>
LayerCount: 2
Fore
SplineSet
373 818 m 1
 423 818 l 1
 416 762 380 708 300 708 c 0
 220 708 184 762 177 818 c 1
 227 818 l 1
 233 786 255 755 300 755 c 0
 345 755 367 786 373 818 c 1
201 267 m 1
 397 267 l 1
 366 367 l 2
 343 440 322 512 301 588 c 1
 297 588 l 1
 276 512 255 440 232 367 c 2
 201 267 l 1
480 0 m 1
 418 200 l 1
 180 200 l 1
 117 0 l 1
 32 0 l 1
 253 656 l 1
 347 656 l 1
 568 0 l 1
 480 0 l 1
EndSplineSet
EndChar

StartChar: abreve
Encoding: 259 259 237
Width: 600
Flags: MW
HStem: -12 66<240 280.5> 0 21G<448 515 448 448> 430 68<275.5 351> 575 51<289.5 338.5 289.5 358>
VStem: 81 80<104.5 164 104.5 180.5> 184 51<709 709> 393 51<709 709> 433 82<126 254 254 254>
LayerCount: 2
Fore
SplineSet
81 126 m 0xb9
 81 235 182 288 433 308 c 1
 431 374 398 430 304 430 c 0
 241 430 179 400 134 372 c 1
 102 428 l 1
 151 460 233 498 318 498 c 0
 451 498 515 419 515 298 c 2
 515 0 l 1
 448 0 l 1x79
 441 66 l 1
 438 66 l 1
 384 24 315 -12 246 -12 c 0
 155 -12 81 39 81 126 c 0xb9
161 132 m 0
 161 77 212 54 268 54 c 0
 323 54 378 80 433 126 c 1
 433 254 l 1
 225 237 161 196 161 132 c 0
314 575 m 0xbe
 225 575 188 646 184 709 c 1
 235 709 l 1
 240 666 265 626 314 626 c 0
 363 626 387 666 393 709 c 1
 444 709 l 1
 439 646 402 575 314 575 c 0xbe
EndSplineSet
Substitution2: "'ss02' Style Set 2 in Latin lookup 18 subtable" abreve.a
Substitution2: "'aalt' Access All Alternates in Latin lookup 0 subtable" abreve.a
EndChar

StartChar: Aogonek
Encoding: 260 260 75
Width: 600
GlyphClass: 2
Flags: MW
HStem: -212 59<522.5 532.5> 0 21G<32 117 32 32 480 499 480 480 568 568> 200 67<201 397 201 418 180 397> 588 68<297 301 297 297>
VStem: 424 64<-122.5 -98>
AnchorPoint: "Anchor-0" 300 678 basechar 0
LayerCount: 2
Fore
SplineSet
201 267 m 1
 397 267 l 1
 366 367 l 2
 343 440 322 512 301 588 c 1
 297 588 l 1
 276 512 255 440 232 367 c 2
 201 267 l 1
576 -139 m 1
 599 -184 l 1
 580 -199 546 -212 519 -212 c 0
 466 -212 424 -182 424 -125 c 0
 424 -71 464 -23 499 0 c 1
 480 0 l 1
 418 200 l 1
 180 200 l 1
 117 0 l 1
 32 0 l 1
 253 656 l 1
 347 656 l 1
 568 0 l 1
 522 -19 488 -65 488 -107 c 0
 488 -138 511 -153 534 -153 c 0
 551 -153 564 -148 576 -139 c 1
EndSplineSet
Ligature2: "'ccmp' Glyph Composition/Decomposition in Latin lookup 6 subtable" A uni0328
EndChar

StartChar: aogonek
Encoding: 261 261 252
Width: 600
GlyphClass: 2
Flags: MW
HStem: -206 55<463 470.5> -12 66<240 280.5> 0 21G<515 515> 430 68<275.5 351>
VStem: 81 80<104.5 164 104.5 180.5> 368 61<-120.5 -94> 433 82<126 254 254 254>
AnchorPoint: "Anchor-0" 314 508 basechar 0
LayerCount: 2
Fore
SplineSet
81 126 m 0xda
 81 235 182 288 433 308 c 1
 431 374 398 430 304 430 c 0
 241 430 179 400 134 372 c 1
 102 428 l 1
 151 460 233 498 318 498 c 0
 451 498 515 419 515 298 c 2
 515 0 l 1xba
 460 -22 429 -66 429 -105 c 0
 429 -136 451 -151 475 -151 c 0
 491 -151 504 -146 515 -138 c 1
 537 -179 l 1
 518 -194 483 -206 458 -206 c 0
 408 -206 368 -177 368 -121 c 0xdc
 368 -67 409 -21 448 4 c 1
 441 66 l 1
 438 66 l 1
 384 24 315 -12 246 -12 c 0
 155 -12 81 39 81 126 c 0xda
161 132 m 0
 161 77 212 54 268 54 c 0
 323 54 378 80 433 126 c 1
 433 254 l 1
 225 237 161 196 161 132 c 0
EndSplineSet
Substitution2: "'ss02' Style Set 2 in Latin lookup 18 subtable" aogonek.a
Ligature2: "'ccmp' Glyph Composition/Decomposition in Latin lookup 6 subtable" a uni0328
Substitution2: "'aalt' Access All Alternates in Latin lookup 0 subtable" aogonek.a
EndChar

StartChar: cacute
Encoding: 263 263 256
Width: 600
Flags: MW
HStem: -12 68<296 382 296 382> 430 68<298 379.5> 573 148<278 458 278 458>
VStem: 80 85<186.5 298 186.5 323.5>
LayerCount: 2
Fore
SplineSet
80 242 m 0
 80 405 204 498 351 498 c 0
 430 498 488 466 528 427 c 1
 487 374 l 1
 447 409 405 430 354 430 c 0
 242 430 165 354 165 242 c 0
 165 131 240 56 352 56 c 0
 412 56 462 83 503 117 c 1
 539 64 l 1
 486 16 418 -12 346 -12 c 0
 194 -12 80 81 80 242 c 0
458 721 m 1
 341 573 l 1
 278 573 l 1
 368 721 l 1
 458 721 l 1
EndSplineSet
EndChar

StartChar: Ccircumflex
Encoding: 264 264 80
Width: 600
Flags: MW
HStem: -12 73<296 389 296 396> 595 73<296 386.5> 706 112<211 387 211 387 307 416 307 483>
VStem: 66 86<247.5 411.5 247.5 433.5>
LayerCount: 2
Fore
SplineSet
66 328 m 0
 66 539 188 668 359 668 c 0
 438 668 500 630 538 588 c 1
 491 535 l 1
 457 571 414 595 359 595 c 0
 233 595 152 493 152 330 c 0
 152 165 233 61 359 61 c 0
 419 61 464 87 506 134 c 1
 554 83 l 1
 502 23 438 -12 354 -12 c 0
 189 -12 66 114 66 328 c 0
278 706 m 1
 211 706 l 1
 307 818 l 1
 387 818 l 1
 483 706 l 1
 416 706 l 1
 349 774 l 1
 345 774 l 1
 278 706 l 1
EndSplineSet
EndChar

StartChar: ccircumflex
Encoding: 265 265 257
Width: 600
Flags: MW
HStem: -12 68<296 382 296 382> 430 68<298 379.5> 573 148<211 379 211 379 308 412 308 475> 672 49<341 345 341 341>
VStem: 80 85<186.5 298 186.5 323.5>
LayerCount: 2
Fore
SplineSet
80 242 m 0xe8
 80 405 204 498 351 498 c 0
 430 498 488 466 528 427 c 1
 487 374 l 1
 447 409 405 430 354 430 c 0
 242 430 165 354 165 242 c 0
 165 131 240 56 352 56 c 0
 412 56 462 83 503 117 c 1
 539 64 l 1
 486 16 418 -12 346 -12 c 0
 194 -12 80 81 80 242 c 0xe8
211 573 m 1
 308 721 l 1
 379 721 l 1
 475 573 l 1
 412 573 l 1xe8
 345 672 l 1
 341 672 l 1xd8
 274 573 l 1
 211 573 l 1
EndSplineSet
EndChar

StartChar: Cdotaccent
Encoding: 266 266 82
Width: 600
Flags: MW
HStem: -12 73<296 389 296 396> 595 73<296 386.5> 714 107<331 363>
VStem: 66 86<247.5 411.5 247.5 433.5> 290 114<752 783.5>
LayerCount: 2
Fore
SplineSet
66 328 m 0
 66 539 188 668 359 668 c 0
 438 668 500 630 538 588 c 1
 491 535 l 1
 457 571 414 595 359 595 c 0
 233 595 152 493 152 330 c 0
 152 165 233 61 359 61 c 0
 419 61 464 87 506 134 c 1
 554 83 l 1
 502 23 438 -12 354 -12 c 0
 189 -12 66 114 66 328 c 0
347 714 m 0
 315 714 290 736 290 768 c 0
 290 799 315 821 347 821 c 0
 379 821 404 799 404 768 c 0
 404 736 379 714 347 714 c 0
EndSplineSet
EndChar

StartChar: cdotaccent
Encoding: 267 267 259
Width: 600
Flags: MW
HStem: -12 68<296 382 296 382> 430 68<298 379.5> 586 127<324.5 362>
VStem: 80 85<186.5 298 186.5 323.5> 277 132<630 668.5>
LayerCount: 2
Fore
SplineSet
80 242 m 0
 80 405 204 498 351 498 c 0
 430 498 488 466 528 427 c 1
 487 374 l 1
 447 409 405 430 354 430 c 0
 242 430 165 354 165 242 c 0
 165 131 240 56 352 56 c 0
 412 56 462 83 503 117 c 1
 539 64 l 1
 486 16 418 -12 346 -12 c 0
 194 -12 80 81 80 242 c 0
343 586 m 0
 306 586 277 611 277 649 c 0
 277 688 306 713 343 713 c 0
 381 713 409 688 409 649 c 0
 409 611 381 586 343 586 c 0
EndSplineSet
EndChar

StartChar: Ccaron
Encoding: 268 268 81
Width: 600
Flags: MW
HStem: -12 73<296 389 296 396> 595 73<296 386.5> 706 112<211 387 211 307>
VStem: 66 86<247.5 411.5 247.5 433.5>
LayerCount: 2
Fore
SplineSet
66 328 m 0
 66 539 188 668 359 668 c 0
 438 668 500 630 538 588 c 1
 491 535 l 1
 457 571 414 595 359 595 c 0
 233 595 152 493 152 330 c 0
 152 165 233 61 359 61 c 0
 419 61 464 87 506 134 c 1
 554 83 l 1
 502 23 438 -12 354 -12 c 0
 189 -12 66 114 66 328 c 0
416 818 m 1
 483 818 l 1
 387 706 l 1
 307 706 l 1
 211 818 l 1
 278 818 l 1
 345 750 l 1
 349 750 l 1
 416 818 l 1
EndSplineSet
EndChar

StartChar: ccaron
Encoding: 269 269 258
Width: 600
Flags: MW
HStem: -12 68<296 382 296 382> 430 68<298 379.5> 573 49<308 345 341 345 341 379> 573 148<211 308 211 379>
VStem: 80 85<186.5 298 186.5 323.5>
LayerCount: 2
Fore
SplineSet
80 242 m 0xd8
 80 405 204 498 351 498 c 0
 430 498 488 466 528 427 c 1
 487 374 l 1
 447 409 405 430 354 430 c 0
 242 430 165 354 165 242 c 0
 165 131 240 56 352 56 c 0
 412 56 462 83 503 117 c 1
 539 64 l 1
 486 16 418 -12 346 -12 c 0
 194 -12 80 81 80 242 c 0xd8
308 573 m 1
 211 721 l 1
 274 721 l 1xd8
 341 622 l 1
 345 622 l 1xe8
 412 721 l 1
 475 721 l 1
 379 573 l 1
 308 573 l 1
EndSplineSet
EndChar

StartChar: Dcaron
Encoding: 270 270 83
Width: 600
Flags: MW
HStem: 0 68<168 240 240 249> 588 68<168 240 168 168> 706 112<163 338 163 259>
VStem: 85 83<68 68 68 588> 463 86<248 413.5>
LayerCount: 2
Fore
SplineSet
85 0 m 1
 85 656 l 1
 245 656 l 2
 443 656 549 539 549 331 c 0
 549 122 443 0 249 0 c 2
 85 0 l 1
168 68 m 1
 240 68 l 2
 389 68 463 165 463 331 c 0
 463 496 389 588 240 588 c 2
 168 588 l 1
 168 68 l 1
367 818 m 1
 434 818 l 1
 338 706 l 1
 259 706 l 1
 163 818 l 1
 230 818 l 1
 297 750 l 1
 301 750 l 1
 367 818 l 1
EndSplineSet
EndChar

StartChar: dcaron
Encoding: 271 271 260
Width: 600
GlyphClass: 3
Flags: MW
HStem: -12 69<233 291> 0 21G<429 497 429 429> 429 69<245 300.5 213.5 308> 548 164<415 581 415 541> 548 212<541 581 541 541>
VStem: 50 85<185 298.5 185 321> 415 82<130 372 372 372 525 712 0 712> 539 49
LayerCount: 2
Fore
SplineSet
50 242 m 0xb7
 50 400 156 498 271 498 c 0
 330 498 373 474 418 435 c 1
 415 525 l 1
 415 712 l 1
 497 712 l 1
 497 0 l 1
 429 0 l 1x77
 422 64 l 1
 419 64 l 1
 379 23 321 -12 261 -12 c 0
 134 -12 50 80 50 242 c 0xb7
135 243 m 0
 135 127 188 57 278 57 c 0
 326 57 372 82 415 130 c 1
 415 372 l 1
 371 413 329 429 287 429 c 0
 203 429 135 354 135 243 c 0
581 548 m 1
 541 548 l 1xb7
 537 760 l 1
 596 760 l 1
 595 703 l 1xaf
 581 548 l 1
EndSplineSet
Ligature2: "'ccmp' Glyph Composition/Decomposition in Latin lookup 6 subtable" d uni030C
EndChar

StartChar: Dcroat
Encoding: 272 272 86
Width: 600
Flags: MW
HStem: 0 68<174 246 246 255> 321 47<16 91 174 317> 588 68<174 246 174 174>
VStem: 91 83<68 68 68 321 368 588> 469 86<248 413.5>
LayerCount: 2
Fore
SplineSet
91 0 m 1
 91 321 l 1
 16 321 l 1
 16 363 l 1
 91 368 l 1
 91 656 l 1
 252 656 l 2
 448 656 555 539 555 331 c 0
 555 122 448 0 255 0 c 2
 91 0 l 1
174 68 m 1
 246 68 l 2
 395 68 469 165 469 331 c 0
 469 496 395 588 246 588 c 2
 174 588 l 1
 174 368 l 1
 317 368 l 1
 317 321 l 1
 174 321 l 1
 174 68 l 1
EndSplineSet
EndChar

StartChar: dcroat
Encoding: 273 273 263
Width: 600
Flags: MW
HStem: -12 69<243 301> 0 21G<439 507 439 439> 409 69<255.5 310.5 223.5 318.5> 571 48<251 425 251 425> 571 141<251 507 425 507>
VStem: 60 85<178 285 178 308> 425 82<130 352 352 352 505 571 0 571 619 712>
LayerCount: 2
Fore
SplineSet
425 130 m 1xb6
 425 352 l 1
 381 393 339 409 298 409 c 0
 213 409 145 337 145 233 c 0
 145 123 198 57 288 57 c 0
 336 57 382 82 425 130 c 1xb6
579 619 m 1
 579 576 l 1
 507 571 l 1
 507 0 l 1
 439 0 l 1x76
 432 64 l 1
 429 64 l 1
 389 23 331 -12 271 -12 c 0
 144 -12 60 76 60 232 c 0
 60 384 166 478 281 478 c 0
 340 478 383 454 428 415 c 1
 425 505 l 1
 425 571 l 1
 251 571 l 1
 251 619 l 1
 425 619 l 1xb6
 425 712 l 1
 507 712 l 1xae
 507 619 l 1
 579 619 l 1
EndSplineSet
EndChar

StartChar: Emacron
Encoding: 274 274 92
Width: 600
Flags: MW
HStem: 0 71<199 530 199 530> 309 71<199 470 199 470> 586 70<199 520 199 199> 729 57<207 455 207 455>
VStem: 115 84<71 309 380 586> 207 248<729 786 729 786>
LayerCount: 2
Fore
SplineSet
115 0 m 1
 115 656 l 1
 520 656 l 1
 520 586 l 1
 199 586 l 1
 199 380 l 1
 470 380 l 1
 470 309 l 1
 199 309 l 1
 199 71 l 1
 530 71 l 1
 530 0 l 1
 115 0 l 1
207 729 m 1xfc
 207 786 l 1
 455 786 l 1
 455 729 l 1
 207 729 l 1xfc
EndSplineSet
EndChar

StartChar: emacron
Encoding: 275 275 269
Width: 600
Flags: MW
HStem: -12 66<287 368.5 287 369> 223 59<154 461 153 534 154 154> 433 65<277.5 362> 601 57<192 437 192 437>
VStem: 69 85<223 223 223 321.5> 192 245<601 658 601 658> 461 76<282 330.5>
LayerCount: 2
Fore
SplineSet
69 242 m 0
 69 401 190 498 316 498 c 0
 455 498 537 407 537 270 c 0
 537 253 536 235 534 223 c 1
 154 223 l 1
 158 120 234 54 340 54 c 0
 397 54 443 71 488 99 c 1
 517 45 l 1
 469 14 408 -12 330 -12 c 0
 186 -12 69 83 69 242 c 0
153 282 m 1
 461 282 l 1
 461 379 407 433 317 433 c 0
 238 433 166 377 153 282 c 1
192 601 m 1xfe
 192 658 l 1
 437 658 l 1
 437 601 l 1
 192 601 l 1xfe
EndSplineSet
EndChar

StartChar: Ebreve
Encoding: 276 276 93
Width: 600
Flags: MW
HStem: 0 71<199 530 199 530> 309 71<199 470 199 470> 586 70<199 520 199 199> 708 47<308 353.5 308 371>
VStem: 115 84<71 309 380 586>
LayerCount: 2
Fore
SplineSet
115 0 m 1
 115 656 l 1
 520 656 l 1
 520 586 l 1
 199 586 l 1
 199 380 l 1
 470 380 l 1
 470 309 l 1
 199 309 l 1
 199 71 l 1
 530 71 l 1
 530 0 l 1
 115 0 l 1
331 708 m 0
 251 708 214 762 208 818 c 1
 258 818 l 1
 264 786 285 755 331 755 c 0
 376 755 397 786 403 818 c 1
 454 818 l 1
 447 762 411 708 331 708 c 0
EndSplineSet
EndChar

StartChar: ebreve
Encoding: 277 277 270
Width: 600
Flags: MW
HStem: -12 66<287 368.5 287 369> 223 59<154 461 153 534 154 154> 433 65<277.5 362> 575 51<290.5 339.5 290.5 359>
VStem: 69 85<223 223 223 321.5> 185 51<709 709> 393 52<709 709> 461 76<282 330.5>
LayerCount: 2
Fore
SplineSet
69 242 m 0
 69 401 190 498 316 498 c 0
 455 498 537 407 537 270 c 0
 537 253 536 235 534 223 c 1
 154 223 l 1
 158 120 234 54 340 54 c 0
 397 54 443 71 488 99 c 1
 517 45 l 1
 469 14 408 -12 330 -12 c 0
 186 -12 69 83 69 242 c 0
153 282 m 1
 461 282 l 1
 461 379 407 433 317 433 c 0
 238 433 166 377 153 282 c 1
315 575 m 0
 226 575 189 646 185 709 c 1
 236 709 l 1
 241 666 266 626 315 626 c 0
 364 626 388 666 393 709 c 1
 445 709 l 1xff
 440 646 403 575 315 575 c 0
EndSplineSet
EndChar

StartChar: Edotaccent
Encoding: 278 278 94
Width: 600
Flags: MW
HStem: 0 71<199 530 199 530> 309 71<199 470 199 470> 586 70<199 520 199 199> 714 107<315 347>
VStem: 115 84<71 309 380 586> 274 113<752 783.5>
LayerCount: 2
Fore
SplineSet
115 0 m 1
 115 656 l 1
 520 656 l 1
 520 586 l 1
 199 586 l 1
 199 380 l 1
 470 380 l 1
 470 309 l 1
 199 309 l 1
 199 71 l 1
 530 71 l 1
 530 0 l 1
 115 0 l 1
331 714 m 0
 299 714 274 736 274 768 c 0
 274 799 299 821 331 821 c 0
 363 821 387 799 387 768 c 0
 387 736 363 714 331 714 c 0
EndSplineSet
EndChar

StartChar: Eogonek
Encoding: 280 280 103
Width: 600
GlyphClass: 2
Flags: MW
HStem: -212 59<470 478.5> 0 71<199 445 526 526 526 530> 309 71<199 470 199 470> 586 70<199 520 199 199>
VStem: 115 84<71 309 380 586> 370 65<-122.5 -97.5>
AnchorPoint: "Anchor-0" 331 678 basechar 0
LayerCount: 2
Fore
SplineSet
115 0 m 1
 115 656 l 1
 520 656 l 1
 520 586 l 1
 199 586 l 1
 199 380 l 1
 470 380 l 1
 470 309 l 1
 199 309 l 1
 199 71 l 1
 530 71 l 1
 530 0 l 1
 526 0 l 1
 481 -6 435 -54 435 -107 c 0
 435 -138 458 -153 482 -153 c 0
 498 -153 510 -148 523 -139 c 1
 545 -184 l 1
 526 -199 492 -212 465 -212 c 0
 413 -212 370 -182 370 -125 c 0
 370 -70 408 -24 445 0 c 1
 115 0 l 1
EndSplineSet
Ligature2: "'ccmp' Glyph Composition/Decomposition in Latin lookup 6 subtable" E uni0328
EndChar

StartChar: eogonek
Encoding: 281 281 280
Width: 600
GlyphClass: 2
Flags: MW
HStem: -206 55<434.5 442.5> -12 66<287 343> 223 59<154 461 153 534 154 154> 433 65<277.5 362>
VStem: 69 85<223 223 223 321.5> 340 60<-120.5 -95> 461 76<282 330.5>
AnchorPoint: "Anchor-0" 315 508 basechar 0
LayerCount: 2
Fore
SplineSet
488 99 m 1
 517 45 l 1
 426 -20 400 -61 400 -105 c 0
 400 -136 422 -151 447 -151 c 0
 462 -151 474 -146 487 -138 c 1
 508 -179 l 1
 489 -194 455 -206 430 -206 c 0
 379 -206 340 -177 340 -121 c 0
 340 -69 377 -24 406 0 c 1
 377 -11 356 -12 330 -12 c 0
 186 -12 69 83 69 242 c 0
 69 401 190 498 316 498 c 0
 455 498 537 407 537 270 c 0
 537 253 536 235 534 223 c 1
 154 223 l 1
 158 120 234 54 340 54 c 0
 397 54 443 71 488 99 c 1
153 282 m 1
 461 282 l 1
 461 379 407 433 317 433 c 0
 238 433 166 377 153 282 c 1
EndSplineSet
Ligature2: "'ccmp' Glyph Composition/Decomposition in Latin lookup 6 subtable" e uni0328
EndChar

StartChar: Ecaron
Encoding: 282 282 90
Width: 600
Flags: MW
HStem: 0 71<199 530 199 530> 309 71<199 470 199 470> 586 70<199 520 199 199> 706 112<195 370 195 291>
VStem: 115 84<71 309 380 586>
LayerCount: 2
Fore
SplineSet
115 0 m 1
 115 656 l 1
 520 656 l 1
 520 586 l 1
 199 586 l 1
 199 380 l 1
 470 380 l 1
 470 309 l 1
 199 309 l 1
 199 71 l 1
 530 71 l 1
 530 0 l 1
 115 0 l 1
400 818 m 1
 466 818 l 1
 370 706 l 1
 291 706 l 1
 195 818 l 1
 262 818 l 1
 329 750 l 1
 333 750 l 1
 400 818 l 1
EndSplineSet
EndChar

StartChar: ecaron
Encoding: 283 283 267
Width: 600
Flags: MW
HStem: -12 66<287 368.5 287 369> 223 59<154 461 153 534 154 154> 433 65<277.5 362> 573 49<279 317 313 317 313 350> 573 148<182 279 182 350>
VStem: 69 85<223 223 223 321.5> 461 76<282 330.5>
LayerCount: 2
Fore
SplineSet
69 242 m 0xee
 69 401 190 498 316 498 c 0
 455 498 537 407 537 270 c 0
 537 253 536 235 534 223 c 1
 154 223 l 1
 158 120 234 54 340 54 c 0
 397 54 443 71 488 99 c 1
 517 45 l 1
 469 14 408 -12 330 -12 c 0
 186 -12 69 83 69 242 c 0xee
153 282 m 1
 461 282 l 1
 461 379 407 433 317 433 c 0
 238 433 166 377 153 282 c 1
279 573 m 1
 182 721 l 1
 246 721 l 1xee
 313 622 l 1
 317 622 l 1xf6
 383 721 l 1
 447 721 l 1
 350 573 l 1
 279 573 l 1
EndSplineSet
EndChar

StartChar: Gbreve
Encoding: 286 286 105
Width: 600
Flags: MW
HStem: -12 73<277.5 365 277.5 379.5> 271 69<325 456 325 533> 595 73<282.5 375.5> 708 47<308.5 353.5 308.5 371>
VStem: 53 87<247.5 411.5 247.5 434> 456 77<100 271 271 271>
LayerCount: 2
Fore
SplineSet
53 328 m 0
 53 540 174 668 344 668 c 0
 431 668 488 627 525 588 c 1
 478 535 l 1
 446 569 407 595 344 595 c 0
 221 595 140 493 140 330 c 0
 140 165 213 61 342 61 c 0
 388 61 431 76 456 100 c 1
 456 271 l 1
 325 271 l 1
 325 340 l 1
 533 340 l 1
 533 64 l 1
 491 22 422 -12 337 -12 c 0
 172 -12 53 114 53 328 c 0
331 708 m 0
 251 708 215 762 208 818 c 1
 259 818 l 1
 265 786 286 755 331 755 c 0
 376 755 398 786 404 818 c 1
 454 818 l 1
 448 762 411 708 331 708 c 0
EndSplineSet
EndChar

StartChar: Gdotaccent
Encoding: 288 288 106
Width: 600
Flags: MW
HStem: -12 73<277.5 365 277.5 379.5> 271 69<325 456 325 533> 595 73<282.5 375.5> 714 107<315 347>
VStem: 53 87<247.5 411.5 247.5 434> 274 114<752 783.5> 456 77<100 271 271 271>
LayerCount: 2
Fore
SplineSet
53 328 m 0
 53 540 174 668 344 668 c 0
 431 668 488 627 525 588 c 1
 478 535 l 1
 446 569 407 595 344 595 c 0
 221 595 140 493 140 330 c 0
 140 165 213 61 342 61 c 0
 388 61 431 76 456 100 c 1
 456 271 l 1
 325 271 l 1
 325 340 l 1
 533 340 l 1
 533 64 l 1
 491 22 422 -12 337 -12 c 0
 172 -12 53 114 53 328 c 0
331 714 m 0
 299 714 274 736 274 768 c 0
 274 799 299 821 331 821 c 0
 363 821 388 799 388 768 c 0
 388 736 363 714 331 714 c 0
EndSplineSet
EndChar

StartChar: uni0123
Encoding: 291 291 284
Width: 600
GlyphClass: 3
Flags: MW
HStem: -224 57<250 358.5 250 378.5> -8 68<272 279 279 374> 0 21G 154 55<278.5 322 260.5 343.5> 423 63<434 564 434 434> 438 60<260.5 305 239.5 322> 669 41<383 391>
VStem: 72 71<-106.5 -69.5> 100 79<295 358 289 377> 102 69<96.5 118.5> 238 64<610.5 636.5 610.5 647> 403 76<289 342.5 269 358> 485 81<-92 -44>
LayerCount: 2
Fore
SplineSet
143 -81 m 0xb930
 143 -132 198 -167 302 -167 c 0
 415 -167 485 -117 485 -67 c 0
 485 -21 448 -8 374 -8 c 2
 279 -8 l 2xd8a8
 251 -8 226 -6 205 0 c 1
 159 -25 143 -53 143 -81 c 0xb930
72 -89 m 0
 72 -50 100 -11 152 19 c 1
 152 23 l 1
 126 37 102 62 102 103 c 0xb870
 102 134 123 169 160 194 c 1
 160 198 l 1
 127 223 100 266 100 324 c 0
 100 430 188 498 291 498 c 0xd4b0
 319 498 342 494 363 486 c 1
 564 486 l 1
 564 423 l 1
 434 423 l 1
 457 399 479 364 479 321 c 0xd8b0
 479 217 396 154 291 154 c 0
 266 154 236 160 209 172 c 1
 185 157 171 139 171 116 c 0
 171 77 208 60 272 60 c 2
 381 60 l 2
 506 60 566 28 566 -54 c 0xd868
 566 -145 461 -224 296 -224 c 0
 154 -224 72 -175 72 -89 c 0
291 209 m 0xd6b0
 353 209 403 254 403 324 c 0
 403 392 353 438 291 438 c 0
 230 438 179 392 179 324 c 0
 179 254 230 209 291 209 c 0xd6b0
335 541 m 1
 268 551 238 574 238 618 c 0
 238 676 307 703 383 710 c 1
 391 669 l 1
 339 662 302 649 302 624 c 0
 302 597 325 586 353 579 c 1
 335 541 l 1
EndSplineSet
Substitution2: "'ss03' Style Set 3 in Latin lookup 19 subtable" uni0123.a
Ligature2: "'ccmp' Glyph Composition/Decomposition in Latin lookup 6 subtable" g uni0327
Substitution2: "'aalt' Access All Alternates in Latin lookup 0 subtable" uni0123.a
EndChar

StartChar: Hcircumflex
Encoding: 292 292 111
Width: 600
Flags: MW
HStem: 0 21G<79 79 79 163 437 437 437 521> 309 72<163 437 163 437> 636 20G<79 163 163 163 437 521 521 521> 706 112<164 339 164 339 260 369 260 435>
VStem: 79 84<0 309 381 656> 437 84<0 309 309 309 381 656 0 656>
LayerCount: 2
Fore
SplineSet
79 0 m 1
 79 656 l 1
 163 656 l 1
 163 381 l 1
 437 381 l 1
 437 656 l 1
 521 656 l 1
 521 0 l 1
 437 0 l 1
 437 309 l 1
 163 309 l 1
 163 0 l 1
 79 0 l 1
231 706 m 1
 164 706 l 1
 260 818 l 1
 339 818 l 1
 435 706 l 1
 369 706 l 1
 302 774 l 1
 298 774 l 1
 231 706 l 1
EndSplineSet
EndChar

StartChar: hcircumflex
Encoding: 293 293 288
Width: 600
Flags: MW
HStem: 0 21G<93 93 93 175 441 441 441 523> 427 71<317 369> 692 20G<93 175 175 175> 749 111<10 185 10 185 106 214 106 281>
VStem: 93 82<0 339 518 712> 441 82<0 291 291 302 0 337>
LayerCount: 2
Fore
SplineSet
93 0 m 1
 93 712 l 1
 175 712 l 1
 175 518 l 1
 171 403 l 1
 223 457 279 498 355 498 c 0
 470 498 523 430 523 302 c 2
 523 0 l 1
 441 0 l 1
 441 291 l 2
 441 383 409 427 329 427 c 0
 271 427 232 398 175 339 c 1
 175 0 l 1
 93 0 l 1
76 749 m 1
 10 749 l 1
 106 860 l 1
 185 860 l 1
 281 749 l 1
 214 749 l 1
 147 817 l 1
 143 817 l 1
 76 749 l 1
EndSplineSet
EndChar

StartChar: Hbar
Encoding: 294 294 114
Width: 600
Flags: MW
HStem: 0 21G<79 163 79 79 437 521 437 437> 309 72<163 437 163 437> 492 47<10 79 163 437 521 590> 492 164<10 163 10 163 79 437 79 163>
VStem: 79 84<0 309 381 492 539 656> 437 84<0 309 309 309 381 492 0 492 539 656>
LayerCount: 2
Fore
SplineSet
437 381 m 1xec
 437 492 l 1
 163 492 l 1
 163 381 l 1
 437 381 l 1xec
590 539 m 1
 590 492 l 1
 521 492 l 1
 521 0 l 1
 437 0 l 1
 437 309 l 1
 163 309 l 1
 163 0 l 1
 79 0 l 1
 79 492 l 1
 10 492 l 1
 10 534 l 1
 79 539 l 1xec
 79 656 l 1
 163 656 l 1xdc
 163 539 l 1
 437 539 l 1xec
 437 656 l 1
 521 656 l 1xdc
 521 539 l 1
 590 539 l 1
EndSplineSet
EndChar

StartChar: hbar
Encoding: 295 295 291
Width: 600
Flags: MW
HStem: 0 21G<93 175 93 93 441 523 441 441> 407 71<317 369> 571 48<20 93 175 387> 571 141<20 175 20 175 93 175 93 387>
VStem: 93 82<0 319 498 571 619 712> 441 82<0 271 271 282 0 317>
LayerCount: 2
Fore
SplineSet
175 498 m 1xec
 171 383 l 1
 223 437 279 478 355 478 c 0
 470 478 523 410 523 282 c 2
 523 0 l 1
 441 0 l 1
 441 271 l 2
 441 363 409 407 329 407 c 0
 271 407 232 378 175 319 c 1
 175 0 l 1
 93 0 l 1
 93 571 l 1
 20 571 l 1
 20 614 l 1
 93 619 l 1xec
 93 712 l 1
 175 712 l 1xdc
 175 619 l 1
 387 619 l 1
 387 571 l 1
 175 571 l 1
 175 498 l 1xec
EndSplineSet
EndChar

StartChar: Itilde
Encoding: 296 296 118
Width: 600
Flags: MW
HStem: 0 71<95 258 95 258 342 505> 586 70<95 258 95 505 342 342 342 505> 711 56<340.5 368.5 340.5 384> 763 56<231.5 259.5>
VStem: 155 46<711 711> 258 84<71 586 71 586> 399 46<819 819>
LayerCount: 2
Fore
SplineSet
95 0 m 1xd4
 95 71 l 1
 258 71 l 1
 258 586 l 1
 95 586 l 1
 95 656 l 1
 505 656 l 1
 505 586 l 1
 342 586 l 1
 342 71 l 1
 505 71 l 1
 505 0 l 1
 95 0 l 1xd4
360 711 m 0xe6
 307 711 278 763 241 763 c 0
 222 763 206 745 201 711 c 1
 155 711 l 1xdc
 161 773 192 819 240 819 c 0
 293 819 322 767 359 767 c 0xee
 378 767 394 786 399 819 c 1
 445 819 l 1xd6
 439 758 408 711 360 711 c 0xe6
EndSplineSet
EndChar

StartChar: itilde
Encoding: 297 297 295
Width: 600
Flags: MW
HStem: 0 21G<316 398 316 316> 419 67<90 398 90 316> 579 55<206 309.5 386.5 413> 634 54<282.5 309.5>
VStem: 206 47<579 579> 316 82<0 419 419 419> 443 46<688 688>
LayerCount: 2
Fore
SplineSet
90 419 m 1xde
 90 486 l 1
 398 486 l 1
 398 0 l 1
 316 0 l 1
 316 419 l 1
 90 419 l 1xde
206 579 m 1
 213 642 241 688 294 688 c 0
 342 688 371 634 402 634 c 0xee
 424 634 436 652 443 688 c 1
 489 688 l 1
 483 626 455 579 402 579 c 0
 353 579 326 634 293 634 c 0
 272 634 259 616 253 579 c 1
 206 579 l 1
EndSplineSet
EndChar

StartChar: imacron
Encoding: 299 299 297
Width: 600
Flags: MW
HStem: 0 21G<316 398 316 316> 419 67<90 398 90 316> 601 57<225 470 225 470>
VStem: 225 245<601 658 601 658> 316 82<0 419 419 419>
LayerCount: 2
Fore
SplineSet
90 419 m 1xe8
 90 486 l 1
 398 486 l 1
 398 0 l 1
 316 0 l 1
 316 419 l 1
 90 419 l 1xe8
225 601 m 1xf0
 225 658 l 1
 470 658 l 1
 470 601 l 1
 225 601 l 1xf0
EndSplineSet
EndChar

StartChar: uni012C
Encoding: 300 300 121
Width: 600
Flags: MW
HStem: 0 71<95 258 95 258 342 505> 586 70<95 258 95 505 342 342 342 505> 708 47<277.5 322.5 277.5 340>
VStem: 258 84<71 586 71 586>
LayerCount: 2
Fore
SplineSet
95 0 m 1
 95 71 l 1
 258 71 l 1
 258 586 l 1
 95 586 l 1
 95 656 l 1
 505 656 l 1
 505 586 l 1
 342 586 l 1
 342 71 l 1
 505 71 l 1
 505 0 l 1
 95 0 l 1
300 708 m 0
 220 708 184 762 177 818 c 1
 227 818 l 1
 233 786 255 755 300 755 c 0
 345 755 367 786 373 818 c 1
 423 818 l 1
 416 762 380 708 300 708 c 0
EndSplineSet
EndChar

StartChar: uni012D
Encoding: 301 301 298
Width: 600
Flags: MW
HStem: 0 21G<316 398 316 316> 419 67<90 398 90 316> 575 51<323.5 372.5 323.5 392>
VStem: 218 51<709 709> 316 82<0 419 419 419> 427 51<709 709>
LayerCount: 2
Fore
SplineSet
90 419 m 1
 90 486 l 1
 398 486 l 1
 398 0 l 1
 316 0 l 1
 316 419 l 1
 90 419 l 1
348 575 m 0
 259 575 222 646 218 709 c 1
 269 709 l 1
 274 666 299 626 348 626 c 0
 397 626 421 666 427 709 c 1
 478 709 l 1xfc
 473 646 436 575 348 575 c 0
EndSplineSet
EndChar

StartChar: Iogonek
Encoding: 302 302 126
Width: 600
GlyphClass: 2
Flags: MW
HStem: -212 59<312 320.5> 0 71<95 258 95 258 95 278 342 505> 586 70<95 258 95 505 342 342 342 505>
VStem: 212 64<-122.5 -96.5> 258 84<71 586>
AnchorPoint: "Anchor-0" 300 678 basechar 0
LayerCount: 2
Fore
SplineSet
95 0 m 1x68
 95 71 l 1
 258 71 l 1
 258 586 l 1
 95 586 l 1
 95 656 l 1
 505 656 l 1
 505 586 l 1
 342 586 l 1
 342 71 l 1x68
 505 71 l 1
 505 0 l 1
 342 0 l 1
 300 -32 276 -66 276 -107 c 0
 276 -138 300 -153 324 -153 c 0
 340 -153 353 -148 364 -139 c 1
 387 -184 l 1
 368 -199 334 -212 307 -212 c 0
 254 -212 212 -182 212 -125 c 0
 212 -68 246 -29 278 0 c 1xf0
 95 0 l 1x68
EndSplineSet
Ligature2: "'ccmp' Glyph Composition/Decomposition in Latin lookup 6 subtable" I uni0328
EndChar

StartChar: iogonek
Encoding: 303 303 302
Width: 600
GlyphClass: 3
Flags: MW
HStem: -206 55<367.5 375.5> 0 21G<316 316 316 335 398 398> 419 67<90 316 90 398> 586 127<329 366.5>
VStem: 272 61<-120.5 -94> 282 132<630 668.5> 316 82<0 419 419 419>
LayerCount: 2
Fore
SplineSet
316 0 m 1xf2
 316 419 l 1
 90 419 l 1
 90 486 l 1
 398 486 l 1
 398 0 l 1xf2
 358 -29 333 -66 333 -105 c 0
 333 -136 355 -151 380 -151 c 0
 395 -151 407 -146 420 -138 c 1
 441 -179 l 1
 422 -194 388 -206 363 -206 c 0
 312 -206 272 -177 272 -121 c 0
 272 -67 308 -28 335 0 c 1xf8
 316 0 l 1xf2
348 586 m 0xf4
 310 586 282 611 282 649 c 0
 282 688 310 713 348 713 c 0
 385 713 414 688 414 649 c 0
 414 611 385 586 348 586 c 0xf4
EndSplineSet
Substitution2: "Single Substitution lookup 22 subtable" iogonek.d
Ligature2: "'ccmp' Glyph Composition/Decomposition in Latin lookup 6 subtable" i uni0328
EndChar

StartChar: Idotaccent
Encoding: 304 304 122
Width: 600
Flags: MW
HStem: 0 71<95 258 95 258 342 505> 586 70<95 258 95 505 342 342 342 505> 714 107<284 316>
VStem: 243 114<752 783.5> 258 84<71 586 71 586>
LayerCount: 2
Fore
SplineSet
95 0 m 1xc8
 95 71 l 1
 258 71 l 1
 258 586 l 1
 95 586 l 1
 95 656 l 1
 505 656 l 1
 505 586 l 1
 342 586 l 1
 342 71 l 1
 505 71 l 1
 505 0 l 1
 95 0 l 1xc8
300 714 m 0xf0
 268 714 243 736 243 768 c 0
 243 799 268 821 300 821 c 0
 332 821 357 799 357 768 c 0
 357 736 332 714 300 714 c 0xf0
EndSplineSet
EndChar

StartChar: dotlessi
Encoding: 305 305 304
Width: 600
GlyphClass: 2
Flags: MW
HStem: 0 21G<316 398 316 316> 419 67<90 398 90 316>
VStem: 316 82<0 419 419 419>
AnchorPoint: "Anchor-4" 385 0 basechar 0
AnchorPoint: "Anchor-2" 348 -22 basechar 0
AnchorPoint: "Anchor-0" 348 508 basechar 0
LayerCount: 2
Fore
SplineSet
90 419 m 1
 90 486 l 1
 398 486 l 1
 398 0 l 1
 316 0 l 1
 316 419 l 1
 90 419 l 1
EndSplineSet
EndChar

StartChar: Jcircumflex
Encoding: 308 308 127
Width: 600
Flags: MW
HStem: -12 73<248.5 321 248.5 357.5> 587 70<135 410 135 493> 706 112<185 360 185 360 281 390 281 456>
VStem: 410 83<217 587 587 587>
LayerCount: 2
Fore
SplineSet
81 97 m 1
 135 147 l 1
 173 89 223 61 274 61 c 0
 368 61 410 109 410 217 c 2
 410 587 l 1
 135 587 l 1
 135 657 l 1
 493 657 l 1
 493 210 l 2
 493 88 439 -12 276 -12 c 0
 202 -12 126 21 81 97 c 1
252 706 m 1
 185 706 l 1
 281 818 l 1
 360 818 l 1
 456 706 l 1
 390 706 l 1
 323 774 l 1
 319 774 l 1
 252 706 l 1
EndSplineSet
EndChar

StartChar: jcircumflex
Encoding: 309 309 305
Width: 600
Flags: MW
HStem: -217 67<174.5 241.5 174.5 272.5> 419 67<90 398 90 316> 573 148<216 383 216 383 312 417 312 480> 672 49<346 350 346 346>
VStem: 316 82<-18 -12 -12 419 419 419>
LayerCount: 2
Fore
SplineSet
90 419 m 1xe8
 90 486 l 1
 398 486 l 1
 398 -12 l 2
 398 -132 351 -217 194 -217 c 0
 143 -217 94 -203 55 -184 c 1
 82 -123 l 1
 117 -140 156 -150 193 -150 c 0
 290 -150 316 -101 316 -18 c 2
 316 419 l 1
 90 419 l 1xe8
216 573 m 1
 312 721 l 1
 383 721 l 1
 480 573 l 1
 417 573 l 1xe8
 350 672 l 1
 346 672 l 1xd8
 279 573 l 1
 216 573 l 1
EndSplineSet
EndChar

StartChar: uni0136
Encoding: 310 310 128
Width: 600
Flags: MW
HStem: -216 40<253 261> 0 21G<98 98 98 182 486 486 486 579> 636 20G<98 182 182 182 461 555 555 555>
VStem: 98 84<0 208 327 656> 342 64<-143 -117>
LayerCount: 2
Fore
SplineSet
98 0 m 1
 98 656 l 1
 182 656 l 1
 182 327 l 1
 185 327 l 1
 461 656 l 1
 555 656 l 1
 348 406 l 1
 579 0 l 1
 486 0 l 1
 296 341 l 1
 182 208 l 1
 182 0 l 1
 98 0 l 1
308 -48 m 1
 376 -58 406 -80 406 -125 c 0
 406 -183 337 -210 261 -216 c 1
 253 -176 l 1
 305 -169 342 -156 342 -130 c 0
 342 -104 319 -93 290 -86 c 1
 308 -48 l 1
EndSplineSet
EndChar

StartChar: uni0137
Encoding: 311 311 306
Width: 600
Flags: MW
HStem: -216 21G<259 259> -216 40<250 259> 0 21G<106 106 106 188 482 482 482 574> 466 20G<454 548 548 548> 692 20G<106 188 188 188>
VStem: 106 82<0 132 230 712> 339 64<-143 -117>
LayerCount: 2
Fore
SplineSet
106 0 m 1xbe
 106 712 l 1
 188 712 l 1
 188 230 l 1
 192 230 l 1
 454 486 l 1
 548 486 l 1
 354 293 l 1
 574 0 l 1
 482 0 l 1
 303 243 l 1
 188 132 l 1
 188 0 l 1
 106 0 l 1xbe
306 -48 m 1
 374 -58 403 -80 403 -125 c 0
 403 -183 334 -210 259 -216 c 1
 250 -176 l 1
 303 -169 339 -156 339 -130 c 0
 339 -104 317 -93 288 -86 c 1x7e
 306 -48 l 1
EndSplineSet
EndChar

StartChar: kgreenlandic
Encoding: 312 312 307
Width: 600
Flags: MW
HStem: 0 21G<106 106 106 188 482 482 482 574> 466 20G<106 188 188 188 454 548 548 548>
VStem: 106 82<0 130 230 486>
LayerCount: 2
Fore
SplineSet
106 0 m 1
 106 486 l 1
 188 486 l 1
 188 230 l 1
 191 231 l 1
 454 486 l 1
 548 486 l 1
 354 293 l 1
 574 0 l 1
 482 0 l 1
 303 240 l 1
 188 130 l 1
 188 0 l 1
 106 0 l 1
EndSplineSet
EndChar

StartChar: Lacute
Encoding: 313 313 129
Width: 600
Flags: MW
HStem: 0 71<216 541 216 541> 636 20G<134 216 216 216> 706 112<139 321 139 321>
VStem: 134 82<71 656 71 656 71 656>
LayerCount: 2
Fore
SplineSet
134 0 m 1
 134 656 l 1
 216 656 l 1
 216 71 l 1
 541 71 l 1
 541 0 l 1
 134 0 l 1
321 818 m 1
 208 706 l 1
 139 706 l 1
 227 818 l 1
 321 818 l 1
EndSplineSet
EndChar

StartChar: uni013B
Encoding: 315 315 131
Width: 600
Flags: MW
HStem: -216 40<262 270> 0 71<216 541 216 541> 636 20G<134 216 216 216>
VStem: 134 82<71 656 71 656 71 656> 350 64<-143 -117>
LayerCount: 2
Fore
SplineSet
134 0 m 1
 134 656 l 1
 216 656 l 1
 216 71 l 1
 541 71 l 1
 541 0 l 1
 134 0 l 1
317 -48 m 1
 385 -58 414 -80 414 -125 c 0
 414 -183 345 -210 270 -216 c 1
 262 -176 l 1
 314 -169 350 -156 350 -130 c 0
 350 -104 328 -93 299 -86 c 1
 317 -48 l 1
EndSplineSet
EndChar

StartChar: uni013C
Encoding: 316 316 311
Width: 600
Flags: MW
HStem: -216 21G<294 294> -216 40<286 294> -12 68<395 432.5> 645 67<81 329 81 247>
VStem: 247 82<163 645 645 645> 375 64<-143 -117>
LayerCount: 2
Fore
SplineSet
81 645 m 1xbc
 81 712 l 1
 329 712 l 1
 329 157 l 2
 329 86 366 56 424 56 c 0
 452 56 480 63 516 79 c 1
 537 17 l 1
 493 1 459 -12 406 -12 c 0
 303 -12 247 48 247 163 c 2
 247 645 l 1
 81 645 l 1xbc
341 -48 m 1
 409 -58 439 -80 439 -125 c 0
 439 -183 370 -210 294 -216 c 1
 286 -176 l 1
 338 -169 375 -156 375 -130 c 0
 375 -104 352 -93 323 -86 c 1x7c
 341 -48 l 1
EndSplineSet
EndChar

StartChar: Lcaron
Encoding: 317 317 130
Width: 600
Flags: MW
HStem: 0 71<216 541 216 541> 514 212<389 430 389 389> 636 20G<134 216 216 216>
VStem: 134 82<71 656 71 656 71 656> 387.5 49.5
LayerCount: 2
Fore
SplineSet
134 0 m 1xb8
 134 656 l 1
 216 656 l 1
 216 71 l 1
 541 71 l 1
 541 0 l 1
 134 0 l 1xb8
430 514 m 1xd8
 389 514 l 1
 386 726 l 1
 445 726 l 1
 444 669 l 1
 430 514 l 1xd8
EndSplineSet
EndChar

StartChar: lcaron
Encoding: 318 318 309
Width: 600
GlyphClass: 3
Flags: MW
HStem: -12 68<395 432.5> 548 212<402 442 402 402> 645 67<81 329 81 247>
VStem: 247 82<163 645 645 645> 400 49
LayerCount: 2
Fore
SplineSet
81 645 m 1xb8
 81 712 l 1
 329 712 l 1
 329 157 l 2
 329 86 366 56 424 56 c 0
 452 56 480 63 516 79 c 1
 537 17 l 1
 493 1 459 -12 406 -12 c 0
 303 -12 247 48 247 163 c 2
 247 645 l 1
 81 645 l 1xb8
442 548 m 1xd8
 402 548 l 1
 398 760 l 1
 457 760 l 1
 456 703 l 1
 442 548 l 1xd8
EndSplineSet
Ligature2: "'ccmp' Glyph Composition/Decomposition in Latin lookup 6 subtable" l uni030C
EndChar

StartChar: Ldot
Encoding: 319 319 132
Width: 600
Flags: MW
HStem: 0 71<216 541 216 541> 284 127<411.5 449> 636 20G<134 216 216 216>
VStem: 134 82<71 656 71 656 71 656> 365 131<328 366.5>
LayerCount: 2
Fore
SplineSet
134 0 m 1
 134 656 l 1
 216 656 l 1
 216 71 l 1
 541 71 l 1
 541 0 l 1
 134 0 l 1
430 284 m 0
 393 284 365 309 365 347 c 0
 365 386 393 411 430 411 c 0
 468 411 496 386 496 347 c 0
 496 309 468 284 430 284 c 0
EndSplineSet
EndChar

StartChar: ldot
Encoding: 320 320 310
Width: 600
Flags: MW
HStem: -12 68<356.5 393.5> 283 127<418.5 456> 645 67<42 290 42 208>
VStem: 208 82<163 645 645 645> 371 132<327 365.5>
LayerCount: 2
Fore
SplineSet
42 645 m 1
 42 712 l 1
 290 712 l 1
 290 157 l 2
 290 86 327 56 386 56 c 0
 413 56 441 63 477 79 c 1
 498 17 l 1
 454 1 420 -12 367 -12 c 0
 264 -12 208 48 208 163 c 2
 208 645 l 1
 42 645 l 1
437 283 m 0
 400 283 371 308 371 346 c 0
 371 385 400 410 437 410 c 0
 475 410 503 385 503 346 c 0
 503 308 475 283 437 283 c 0
EndSplineSet
EndChar

StartChar: Lslash
Encoding: 321 321 136
Width: 600
Flags: MW
HStem: 0 71<216 541 216 541> 636 20G<134 216 216 216>
VStem: 134 82<71 71 71 227 227 227 335 656>
LayerCount: 2
Fore
SplineSet
216 71 m 1
 541 71 l 1
 541 0 l 1
 134 0 l 1
 134 227 l 1
 53 184 l 1
 53 251 l 1
 134 295 l 1
 134 656 l 1
 216 656 l 1
 216 335 l 1
 442 455 l 1
 442 387 l 1
 216 267 l 1
 216 71 l 1
EndSplineSet
EndChar

StartChar: lslash
Encoding: 322 322 315
Width: 600
Flags: MW
HStem: -12 68<395 432.5> 645 67<81 247 81 329>
VStem: 247 82<163 332 332 332 445 645 645 645>
LayerCount: 2
Fore
SplineSet
516 79 m 1
 537 17 l 1
 493 1 459 -12 406 -12 c 0
 303 -12 247 48 247 163 c 2
 247 332 l 1
 123 261 l 1
 123 331 l 1
 247 402 l 1
 247 645 l 1
 81 645 l 1
 81 712 l 1
 329 712 l 1
 329 445 l 1
 492 536 l 1
 492 465 l 1
 329 374 l 1
 329 157 l 2
 329 86 366 56 424 56 c 0
 452 56 480 63 516 79 c 1
EndSplineSet
EndChar

StartChar: Nacute
Encoding: 323 323 138
Width: 600
Flags: MW
HStem: 0 21G<83 83 83 162 432 432 432 517> 0 108<432 449 447 449 447 517> 548 108<151 153 151 151> 636 20G<83 168 168 168 438 517 517 517> 706 112<255 437 255 437>
VStem: 83 79<0 343 0 656> 438 79<316 656 0 656>
LayerCount: 2
Fore
SplineSet
83 0 m 1x9e
 83 656 l 1
 168 656 l 1
 381 242 l 1
 447 108 l 1
 449 108 l 1x5e
 446 173 438 247 438 316 c 2
 438 656 l 1
 517 656 l 1
 517 0 l 1
 432 0 l 1
 219 414 l 1
 153 548 l 1
 151 548 l 1xae
 154 481 162 411 162 343 c 2
 162 0 l 1
 83 0 l 1x9e
437 818 m 1
 324 706 l 1
 255 706 l 1
 343 818 l 1
 437 818 l 1
EndSplineSet
EndChar

StartChar: uni0145
Encoding: 325 325 141
Width: 600
Flags: MW
HStem: -216 40<215 223> 0 21G<83 83 83 162 432 432 432 517> 0 108<432 449 447 449 447 517> 548 108<151 153 151 151> 636 20G<83 168 168 168 438 517 517 517>
VStem: 83 79<0 343 0 656> 304 64<-143 -117> 438 79<316 656 0 656>
LayerCount: 2
Fore
SplineSet
83 0 m 1xcd
 83 656 l 1
 168 656 l 1
 381 242 l 1
 447 108 l 1
 449 108 l 1xaf
 446 173 438 247 438 316 c 2
 438 656 l 1
 517 656 l 1
 517 0 l 1
 432 0 l 1
 219 414 l 1
 153 548 l 1
 151 548 l 1xd5
 154 481 162 411 162 343 c 2
 162 0 l 1
 83 0 l 1xcd
271 -48 m 1
 339 -58 368 -80 368 -125 c 0
 368 -183 299 -210 223 -216 c 1
 215 -176 l 1
 268 -169 304 -156 304 -130 c 0
 304 -104 281 -93 253 -86 c 1
 271 -48 l 1
EndSplineSet
EndChar

StartChar: uni0146
Encoding: 326 326 320
Width: 600
Flags: MW
HStem: -216 21G<236 236> -216 40<228 236> 0 21G<93 93 93 175 441 441 441 523> 427 71<317 369> 466 20G<93 161 161 161>
VStem: 93 82<0 339 0 486> 317 64<-143 -117> 441 82<0 291 291 302 0 337>
LayerCount: 2
Fore
SplineSet
93 0 m 1xb5
 93 486 l 1
 161 486 l 1x6f
 168 403 l 1
 172 403 l 1
 223 457 279 498 355 498 c 0
 470 498 523 430 523 302 c 2
 523 0 l 1
 441 0 l 1
 441 291 l 2
 441 383 409 427 329 427 c 0
 271 427 232 398 175 339 c 1
 175 0 l 1
 93 0 l 1xb5
284 -48 m 1
 351 -58 381 -80 381 -125 c 0
 381 -183 312 -210 236 -216 c 1
 228 -176 l 1
 280 -169 317 -156 317 -130 c 0
 317 -104 294 -93 266 -86 c 1
 284 -48 l 1
EndSplineSet
EndChar

StartChar: Ncaron
Encoding: 327 327 139
Width: 600
Flags: MW
HStem: 0 21G<83 83 83 162 432 432 432 517> 0 108<432 449 447 449 447 517> 548 108<151 153 151 151> 636 20G<83 168 168 168 438 517 517 517> 706 112<170 346 170 266>
VStem: 83 79<0 343 0 656> 438 79<316 656 0 656>
LayerCount: 2
Fore
SplineSet
83 0 m 1x9e
 83 656 l 1
 168 656 l 1
 381 242 l 1
 447 108 l 1
 449 108 l 1x5e
 446 173 438 247 438 316 c 2
 438 656 l 1
 517 656 l 1
 517 0 l 1
 432 0 l 1
 219 414 l 1
 153 548 l 1
 151 548 l 1xae
 154 481 162 411 162 343 c 2
 162 0 l 1
 83 0 l 1x9e
375 818 m 1
 442 818 l 1
 346 706 l 1
 266 706 l 1
 170 818 l 1
 237 818 l 1
 304 750 l 1
 308 750 l 1
 375 818 l 1
EndSplineSet
EndChar

StartChar: ncaron
Encoding: 328 328 318
Width: 600
Flags: MW
HStem: 0 21G<93 93 93 175 441 441 441 523> 427 71<317 369> 466 20G<93 161 161 161> 573 49<282 320 316 320 316 353> 573 148<186 282 186 353>
VStem: 93 82<0 339 0 486> 441 82<0 291 291 302 0 337>
LayerCount: 2
Fore
SplineSet
93 0 m 1xce
 93 486 l 1
 161 486 l 1xae
 168 403 l 1
 172 403 l 1
 223 457 279 498 355 498 c 0
 470 498 523 430 523 302 c 2
 523 0 l 1
 441 0 l 1
 441 291 l 2
 441 383 409 427 329 427 c 0
 271 427 232 398 175 339 c 1
 175 0 l 1
 93 0 l 1xce
282 573 m 1
 186 721 l 1
 249 721 l 1xce
 316 622 l 1
 320 622 l 1xd6
 387 721 l 1
 450 721 l 1
 353 573 l 1
 282 573 l 1
EndSplineSet
EndChar

StartChar: napostrophe
Encoding: 329 329 324
Width: 600
Flags: MW
HStem: 0 21G<196 278 196 196 515 598 515 515> 427 71<407.5 451.5> 466 20G<196 264 264 264> 550 149<37.5 60.5>
VStem: 82 67 196 82<0 346 0 486> 515 83<0 297 297 308 0 341>
LayerCount: 2
Fore
SplineSet
6 350 m 1xde
 -22 398 l 1
 41 433 78 486 82 556 c 1
 74 552 65 550 56 550 c 0
 14 550 -15 579 -15 621 c 0
 -15 667 16 699 59 699 c 0
 112 699 149 654 149 578 c 0
 149 478 95 396 6 350 c 1xde
271 410 m 1
 275 410 l 1
 322 459 372 498 443 498 c 0
 548 498 598 432 598 308 c 2
 598 0 l 1
 515 0 l 1
 515 297 l 2
 515 385 486 427 417 427 c 0
 365 427 330 399 278 346 c 1xde
 278 0 l 1
 196 0 l 1
 196 486 l 1
 264 486 l 1xbe
 271 410 l 1
EndSplineSet
EndChar

StartChar: Omacron
Encoding: 332 332 150
Width: 600
Flags: MW
HStem: -12 73<250 350 250 374> 595 73<250 350> 729 57<176 424 176 424>
VStem: 48 86<249 412.5 249 436> 176 248<729 786 729 786> 466 86<249 412.5>
LayerCount: 2
Fore
SplineSet
300 -12 m 0
 152 -12 48 120 48 331 c 0
 48 541 152 668 300 668 c 0
 448 668 552 540 552 331 c 0
 552 120 448 -12 300 -12 c 0
300 61 m 0
 400 61 466 167 466 331 c 0
 466 494 400 595 300 595 c 0
 200 595 134 494 134 331 c 0
 134 167 200 61 300 61 c 0
176 729 m 1
 176 786 l 1
 424 786 l 1
 424 729 l 1
 176 729 l 1
EndSplineSet
EndChar

StartChar: omacron
Encoding: 333 333 330
Width: 600
Flags: MW
HStem: -12 68<253.5 346.5 253.5 364> 430 68<253.5 346.5> 601 57<177 423 177 423>
VStem: 60 85<186.5 298 186.5 323.5> 177 246<601 658 601 658> 455 85<186.5 298>
LayerCount: 2
Fore
SplineSet
60 242 m 0
 60 405 172 498 300 498 c 0
 428 498 540 405 540 242 c 0
 540 81 428 -12 300 -12 c 0
 172 -12 60 81 60 242 c 0
145 242 m 0
 145 131 207 56 300 56 c 0
 393 56 455 131 455 242 c 0
 455 354 393 430 300 430 c 0
 207 430 145 354 145 242 c 0
177 601 m 1
 177 658 l 1
 423 658 l 1
 423 601 l 1
 177 601 l 1
EndSplineSet
EndChar

StartChar: uni014E
Encoding: 334 334 151
Width: 600
Flags: MW
HStem: -12 73<250 350 250 374> 595 73<250 350> 708 47<277.5 322.5 277.5 340>
VStem: 48 86<249 412.5 249 436> 466 86<249 412.5>
LayerCount: 2
Fore
SplineSet
300 -12 m 0
 152 -12 48 120 48 331 c 0
 48 541 152 668 300 668 c 0
 448 668 552 540 552 331 c 0
 552 120 448 -12 300 -12 c 0
300 61 m 0
 400 61 466 167 466 331 c 0
 466 494 400 595 300 595 c 0
 200 595 134 494 134 331 c 0
 134 167 200 61 300 61 c 0
300 708 m 0
 220 708 184 762 177 818 c 1
 227 818 l 1
 233 786 255 755 300 755 c 0
 345 755 367 786 373 818 c 1
 423 818 l 1
 416 762 380 708 300 708 c 0
EndSplineSet
EndChar

StartChar: uni014F
Encoding: 335 335 331
Width: 600
Flags: MW
HStem: -12 68<253.5 346.5 253.5 364> 430 68<253.5 346.5> 575 51<275.5 324.5 275.5 344>
VStem: 60 85<186.5 298 186.5 323.5> 170 51<709 709> 379 51<709 709> 455 85<186.5 298>
LayerCount: 2
Fore
SplineSet
60 242 m 0
 60 405 172 498 300 498 c 0
 428 498 540 405 540 242 c 0
 540 81 428 -12 300 -12 c 0
 172 -12 60 81 60 242 c 0
145 242 m 0
 145 131 207 56 300 56 c 0
 393 56 455 131 455 242 c 0
 455 354 393 430 300 430 c 0
 207 430 145 354 145 242 c 0
300 575 m 0xfe
 212 575 175 646 170 709 c 1
 221 709 l 1
 227 666 251 626 300 626 c 0
 349 626 373 666 379 709 c 1
 430 709 l 1
 425 646 388 575 300 575 c 0xfe
EndSplineSet
EndChar

StartChar: Ohungarumlaut
Encoding: 336 336 152
Width: 600
Flags: MW
HStem: -12 73<250 350 250 374> 595 73<250 350> 706 112<191 334 191 334 257 408 257 349>
VStem: 48 86<249 412.5 249 436> 466 86<249 412.5>
LayerCount: 2
Fore
SplineSet
300 -12 m 0
 152 -12 48 120 48 331 c 0
 48 541 152 668 300 668 c 0
 448 668 552 540 552 331 c 0
 552 120 448 -12 300 -12 c 0
300 61 m 0
 400 61 466 167 466 331 c 0
 466 494 400 595 300 595 c 0
 200 595 134 494 134 331 c 0
 134 167 200 61 300 61 c 0
251 706 m 1
 191 706 l 1
 257 818 l 1
 334 818 l 1
 251 706 l 1
349 706 m 1
 415 818 l 1
 492 818 l 1
 408 706 l 1
 349 706 l 1
EndSplineSet
EndChar

StartChar: ohungarumlaut
Encoding: 337 337 332
Width: 600
Flags: MW
HStem: -12 68<253.5 346.5 253.5 364> 430 68<253.5 346.5> 571 143<202 345 202 345 272 404 272 349>
VStem: 60 85<186.5 298 186.5 323.5> 455 85<186.5 298>
LayerCount: 2
Fore
SplineSet
60 242 m 0
 60 405 172 498 300 498 c 0
 428 498 540 405 540 242 c 0
 540 81 428 -12 300 -12 c 0
 172 -12 60 81 60 242 c 0
145 242 m 0
 145 131 207 56 300 56 c 0
 393 56 455 131 455 242 c 0
 455 354 393 430 300 430 c 0
 207 430 145 354 145 242 c 0
202 571 m 1
 272 714 l 1
 345 714 l 1
 257 571 l 1
 202 571 l 1
349 571 m 1
 420 714 l 1
 492 714 l 1
 404 571 l 1
 349 571 l 1
EndSplineSet
EndChar

StartChar: OE
Encoding: 338 338 162
Width: 600
GlyphClass: 2
Flags: MW
HStem: 0 68<289 296 296 310 289 591> 0 71<387 591 387 591> 309 71<387 535 387 535> 587 70<387 581 387 387>
VStem: 33 86<247.5 414.5 247.5 435.5> 310 77<71 309 380 587>
AnchorPoint: "Anchor-0" 408 678 basechar 0
LayerCount: 2
Fore
SplineSet
33 331 m 0x7c
 33 540 133 657 299 657 c 2
 581 657 l 1
 581 587 l 1
 387 587 l 1
 387 380 l 1
 535 380 l 1
 535 309 l 1
 387 309 l 1
 387 71 l 1
 591 71 l 1
 591 0 l 1
 296 0 l 2
 132 0 33 122 33 331 c 0x7c
119 331 m 0xbc
 119 164 175 68 289 68 c 2
 310 68 l 1
 310 588 l 1
 289 588 l 2
 175 588 119 498 119 331 c 0xbc
EndSplineSet
EndChar

StartChar: oe
Encoding: 339 339 342
Width: 600
GlyphClass: 2
Flags: MW
HStem: -12 67<157 218> 223 55<352 528 351 593 352 352> 430 68<157 218 137.5 221> 433 65<424.5 479.5>
VStem: 11 77<187.5 298.5 187.5 324> 290 62<223 223 223 298.5> 528 68<278 319>
AnchorPoint: "Anchor-0" 319 508 basechar 0
LayerCount: 2
Fore
SplineSet
88 243 m 0xee
 88 132 123 55 191 55 c 0
 251 55 290 132 290 243 c 0
 290 354 251 430 191 430 c 0
 123 430 88 354 88 243 c 0xee
11 243 m 0
 11 405 88 498 187 498 c 0
 249 498 297 455 323 381 c 1
 350 454 393 498 456 498 c 0
 548 498 596 396 596 276 c 0
 596 257 596 244 593 223 c 1
 352 223 l 1
 357 122 396 54 468 54 c 0
 502 54 526 67 553 85 c 1
 582 31 l 1
 551 8 511 -12 465 -12 c 0
 402 -12 352 27 323 100 c 1
 295 27 249 -12 187 -12 c 0
 87 -12 11 81 11 243 c 0
351 278 m 1
 528 278 l 1
 528 360 509 433 450 433 c 0xde
 391 433 359 373 351 278 c 1
EndSplineSet
EndChar

StartChar: racute
Encoding: 341 341 350
Width: 600
Flags: MW
HStem: 0 21G<146 146 146 228> 424 74<396 447> 466 20G<146 214 214 214> 478 20 573 148<277 456 277 456>
VStem: 146 82<0 285 0 486>
LayerCount: 2
Fore
SplineSet
146 0 m 1xcc
 146 486 l 1
 214 486 l 1xac
 221 371 l 1
 224 371 l 1
 275 449 351 498 441 498 c 0xcc
 477 498 507 493 537 478 c 1x9c
 518 407 l 1
 484 419 466 424 428 424 c 0
 355 424 286 386 228 285 c 1
 228 0 l 1
 146 0 l 1xcc
456 721 m 1
 340 573 l 1
 277 573 l 1
 367 721 l 1
 456 721 l 1
EndSplineSet
EndChar

StartChar: uni0156
Encoding: 342 342 172
Width: 600
Flags: MW
HStem: -216 40<235 243> 0 21G<100 183 100 100 458 553 458 458> 277 68<183 292 292 300 183 292> 589 67<183 183 183 292>
VStem: 100 83<0 277 345 589> 324 64<-143 -117> 450 83<429.5 515>
LayerCount: 2
Fore
SplineSet
273 -86 m 1
 291 -48 l 1
 359 -58 388 -80 388 -125 c 0
 388 -183 319 -210 243 -216 c 1
 235 -176 l 1
 288 -169 324 -156 324 -130 c 0
 324 -104 301 -93 273 -86 c 1
183 589 m 1
 183 345 l 1
 292 345 l 2
 394 345 450 387 450 472 c 0
 450 558 394 589 292 589 c 2
 183 589 l 1
386 286 m 1
 553 0 l 1
 458 0 l 1
 300 277 l 1
 183 277 l 1
 183 0 l 1
 100 0 l 1
 100 656 l 1
 304 656 l 2
 437 656 533 608 533 472 c 0
 533 370 475 309 386 286 c 1
EndSplineSet
EndChar

StartChar: uni0157
Encoding: 343 343 351
Width: 600
Flags: MW
HStem: -216 21G<124 124> -216 40<115 124> 0 21G<146 146 146 228> 424 74<396 447> 466 20G<146 214 214 214> 478 20
VStem: 146 82<0 285 0 486> 204 64<-143 -117>
LayerCount: 2
Fore
SplineSet
146 0 m 1xb2
 146 486 l 1
 214 486 l 1xaa
 221 371 l 1
 224 371 l 1
 275 449 351 498 441 498 c 0xb2
 477 498 507 493 537 478 c 1xa6
 518 407 l 1
 484 419 466 424 428 424 c 0
 355 424 286 386 228 285 c 1
 228 0 l 1
 146 0 l 1xb2
171 -48 m 1x71
 239 -58 268 -80 268 -125 c 0
 268 -183 199 -210 124 -216 c 1
 115 -176 l 1
 168 -169 204 -156 204 -130 c 0
 204 -104 182 -93 153 -86 c 1
 171 -48 l 1x71
EndSplineSet
EndChar

StartChar: Rcaron
Encoding: 344 344 171
Width: 600
Flags: MW
HStem: 0 21G<100 183 100 100 458 553 458 458> 277 68<183 292 292 300 183 292> 589 67<183 183 183 292> 706 112<169 344 169 265>
VStem: 100 83<0 277 345 589> 450 83<429.5 515>
LayerCount: 2
Fore
SplineSet
344 706 m 1
 265 706 l 1
 169 818 l 1
 236 818 l 1
 303 750 l 1
 307 750 l 1
 373 818 l 1
 440 818 l 1
 344 706 l 1
183 589 m 1
 183 345 l 1
 292 345 l 2
 394 345 450 387 450 472 c 0
 450 558 394 589 292 589 c 2
 183 589 l 1
553 0 m 1
 458 0 l 1
 300 277 l 1
 183 277 l 1
 183 0 l 1
 100 0 l 1
 100 656 l 1
 304 656 l 2
 437 656 533 608 533 472 c 0
 533 370 475 309 386 286 c 1
 553 0 l 1
EndSplineSet
EndChar

StartChar: rcaron
Encoding: 345 345 352
Width: 600
Flags: MW
HStem: 0 21G<146 146 146 228> 424 74<396 447> 466 20G<146 214 214 214> 478 20 573 49<306 344 340 344 340 377> 573 148<210 306 210 377>
VStem: 146 82<0 285 0 486>
LayerCount: 2
Fore
SplineSet
146 0 m 1xc6
 146 486 l 1
 214 486 l 1xa6
 221 371 l 1
 224 371 l 1
 275 449 351 498 441 498 c 0xc6
 477 498 507 493 537 478 c 1x96
 518 407 l 1
 484 419 466 424 428 424 c 0
 355 424 286 386 228 285 c 1
 228 0 l 1
 146 0 l 1xc6
306 573 m 1
 210 721 l 1
 273 721 l 1xc6
 340 622 l 1
 344 622 l 1xca
 411 721 l 1
 474 721 l 1
 377 573 l 1
 306 573 l 1
EndSplineSet
EndChar

StartChar: sacute
Encoding: 347 347 356
Width: 600
Flags: MW
HStem: -12 64<269.5 356.5 269.5 379.5> 434 64<258.5 334> 573 148<238 418 238 418>
VStem: 100 84<344 383 344 399> 443 83<107 147>
LayerCount: 2
Fore
SplineSet
72 64 m 1
 112 118 l 1
 166 78 226 52 313 52 c 0
 400 52 443 86 443 128 c 0
 443 166 404 193 285 222 c 0
 185 247 100 291 100 360 c 0
 100 438 170 498 304 498 c 0
 377 498 451 469 499 436 c 1
 459 383 l 1
 416 413 364 434 304 434 c 0
 213 434 184 402 184 364 c 0
 184 324 244 300 332 278 c 0
 463 245 526 207 526 133 c 0
 526 54 449 -12 310 -12 c 0
 215 -12 131 23 72 64 c 1
418 721 m 1
 301 573 l 1
 238 573 l 1
 329 721 l 1
 418 721 l 1
EndSplineSet
EndChar

StartChar: Scircumflex
Encoding: 348 348 177
Width: 600
Flags: MW
HStem: -12 73<270 352.5 270 377> 595 73<273.5 345.5> 706 112<175 351 175 351 271 380 271 447>
VStem: 98 85<467.5 528.5 467.5 544> 452 85<136 201.5>
LayerCount: 2
Fore
SplineSet
67 85 m 1
 117 143 l 1
 166 94 234 61 306 61 c 0
 399 61 452 104 452 168 c 0
 452 235 401 256 334 284 c 1
 240 325 l 1
 174 351 98 398 98 494 c 0
 98 594 188 668 313 668 c 0
 395 668 467 635 515 587 c 1
 471 533 l 1
 428 571 378 595 313 595 c 0
 234 595 183 558 183 499 c 0
 183 436 244 413 300 390 c 1
 392 350 l 1
 473 317 537 272 537 175 c 0
 537 71 449 -12 305 -12 c 0
 209 -12 126 26 67 85 c 1
242 706 m 1
 175 706 l 1
 271 818 l 1
 351 818 l 1
 447 706 l 1
 380 706 l 1
 313 774 l 1
 309 774 l 1
 242 706 l 1
EndSplineSet
EndChar

StartChar: scircumflex
Encoding: 349 349 357
Width: 600
Flags: MW
HStem: -12 64<269.5 356.5 269.5 379.5> 434 64<258.5 334> 573 148<171 339 171 339 268 372 268 436> 672 49<301 305 301 301>
VStem: 100 84<344 383 344 399> 443 83<107 147>
LayerCount: 2
Fore
SplineSet
72 64 m 1xec
 112 118 l 1
 166 78 226 52 313 52 c 0
 400 52 443 86 443 128 c 0
 443 166 404 193 285 222 c 0
 185 247 100 291 100 360 c 0
 100 438 170 498 304 498 c 0
 377 498 451 469 499 436 c 1
 459 383 l 1
 416 413 364 434 304 434 c 0
 213 434 184 402 184 364 c 0
 184 324 244 300 332 278 c 0
 463 245 526 207 526 133 c 0
 526 54 449 -12 310 -12 c 0
 215 -12 131 23 72 64 c 1xec
171 573 m 1
 268 721 l 1
 339 721 l 1
 436 573 l 1
 372 573 l 1xec
 305 672 l 1
 301 672 l 1xdc
 234 573 l 1
 171 573 l 1
EndSplineSet
EndChar

StartChar: uni015E
Encoding: 350 350 179
Width: 600
Flags: MW
HStem: -213 41<223 231> -11 72<281 281 335 335> 595 73<273.5 345.5>
VStem: 98 85<467.5 528.5 467.5 544> 312 64<-137.5 -111> 452 85<136 201.5>
LayerCount: 2
Fore
SplineSet
300 390 m 1
 392 350 l 1
 473 317 537 272 537 175 c 0
 537 78 461 0 335 -11 c 1
 316 -50 l 1
 349 -61 376 -80 376 -121 c 0
 376 -179 307 -206 231 -213 c 1
 223 -172 l 1
 275 -165 312 -151 312 -124 c 0
 312 -98 289 -85 248 -75 c 1
 281 -11 l 1
 195 -5 121 31 67 85 c 1
 117 143 l 1
 166 94 234 61 306 61 c 0
 399 61 452 104 452 168 c 0
 452 235 401 256 334 284 c 1
 240 325 l 1
 174 351 98 398 98 494 c 0
 98 594 188 668 313 668 c 0
 395 668 467 635 515 587 c 1
 471 533 l 1
 428 571 378 595 313 595 c 0
 234 595 183 558 183 499 c 0
 183 436 244 413 300 390 c 1
EndSplineSet
EndChar

StartChar: uni015F
Encoding: 351 351 359
Width: 600
Flags: MW
HStem: -213 21G<237 237> -11 63<287 287 341 341> 434 64<258.5 334>
VStem: 100 84<344 383 344 399> 318 64<-137.5 -111> 443 83<107 147>
LayerCount: 2
Fore
SplineSet
499 436 m 1
 459 383 l 1
 416 413 364 434 304 434 c 0
 213 434 184 402 184 364 c 0
 184 324 244 300 332 278 c 0
 463 245 526 207 526 133 c 0
 526 60 461 -2 341 -11 c 1
 323 -50 l 1
 355 -61 382 -80 382 -121 c 0
 382 -179 313 -206 237 -213 c 1
 229 -172 l 1
 281 -165 318 -151 318 -124 c 0
 318 -98 295 -85 254 -75 c 1
 287 -11 l 1
 201 -6 126 26 72 64 c 1
 112 118 l 1
 166 78 226 52 313 52 c 0
 400 52 443 86 443 128 c 0
 443 166 404 193 285 222 c 0
 185 247 100 291 100 360 c 0
 100 438 170 498 304 498 c 0
 377 498 451 469 499 436 c 1
EndSplineSet
EndChar

StartChar: uni0162
Encoding: 354 354 185
Width: 600
Flags: MW
HStem: -213 41<210 218> 0 21G<258 273 258 258 328 342 328 328> 586 70<42 258 42 558 342 342 342 558>
VStem: 258 84<0 586> 299 64<-137.5 -111>
LayerCount: 2
Fore
SplineSet
342 0 m 1x70
 328 0 l 1x70
 304 -50 l 1
 336 -61 363 -80 363 -121 c 0
 363 -179 294 -206 218 -213 c 1
 210 -172 l 1
 263 -165 299 -151 299 -124 c 0
 299 -98 276 -85 235 -75 c 1
 273 0 l 1xe8
 258 0 l 1
 258 586 l 1
 42 586 l 1
 42 656 l 1
 558 656 l 1
 558 586 l 1
 342 586 l 1
 342 0 l 1x70
EndSplineSet
EndChar

StartChar: uni0163
Encoding: 355 355 365
Width: 600
Flags: MW
HStem: -213 21G<299 299> -12 67<403 403> -9 21G<350 350> 419 67<69 209 288 527>
VStem: 206 82<189 419> 380 64<-137.5 -111>
LayerCount: 2
Fore
SplineSet
403 -12 m 1xd8
 385 -50 l 1xdc
 417 -61 444 -80 444 -121 c 0
 444 -179 375 -206 299 -213 c 1
 291 -172 l 1
 343 -165 380 -151 380 -124 c 0
 380 -98 357 -85 316 -75 c 1
 350 -9 l 1xbc
 242 6 206 82 206 189 c 2
 206 419 l 1
 69 419 l 1
 69 481 l 1
 209 486 l 1
 220 622 l 1
 288 622 l 1
 288 486 l 1
 527 486 l 1
 527 419 l 1
 288 419 l 1
 288 188 l 2
 288 101 317 55 411 55 c 0
 457 55 494 64 528 77 c 1
 546 17 l 1
 505 2 453 -10 403 -12 c 1xd8
EndSplineSet
EndChar

StartChar: Tcaron
Encoding: 356 356 184
Width: 600
Flags: MW
HStem: 0 21G<258 258 258 342> 586 70<42 258 42 558 342 342 342 558> 706 112<164 339 164 260>
VStem: 258 84<0 586 0 586>
LayerCount: 2
Fore
SplineSet
258 0 m 1
 258 586 l 1
 42 586 l 1
 42 656 l 1
 558 656 l 1
 558 586 l 1
 342 586 l 1
 342 0 l 1
 258 0 l 1
368 818 m 1
 435 818 l 1
 339 706 l 1
 260 706 l 1
 164 818 l 1
 230 818 l 1
 297 750 l 1
 301 750 l 1
 368 818 l 1
EndSplineSet
EndChar

StartChar: tcaron
Encoding: 357 357 364
Width: 600
GlyphClass: 3
Flags: MW
HStem: -12 67<364 419.5> 419 67<69 209 288 527> 548 212<396 436 396 396>
VStem: 206 82<189 419> 394 49
LayerCount: 2
Fore
SplineSet
206 189 m 2
 206 419 l 1
 69 419 l 1
 69 481 l 1
 209 486 l 1
 220 622 l 1
 288 622 l 1
 288 486 l 1
 527 486 l 1
 527 419 l 1
 288 419 l 1
 288 188 l 2
 288 101 317 55 411 55 c 0
 457 55 494 64 528 77 c 1
 546 17 l 1
 502 1 446 -12 393 -12 c 0
 252 -12 206 69 206 189 c 2
436 548 m 1
 396 548 l 1
 392 760 l 1
 451 760 l 1
 450 703 l 1
 436 548 l 1
EndSplineSet
Ligature2: "'ccmp' Glyph Composition/Decomposition in Latin lookup 6 subtable" t uni030C
EndChar

StartChar: Utilde
Encoding: 360 360 192
Width: 600
Flags: MW
HStem: -12 73<261.5 340.5 261.5 365> 636 20G<79 163 163 163 440 521 521 521> 711 56<340.5 368.5 340.5 384> 763 56<231.5 259.5>
VStem: 79 84<248 656> 155 46<711 711> 399 46<819 819> 440 81<246 248 248 656>
LayerCount: 2
Fore
SplineSet
79 248 m 2xd9
 79 656 l 1
 163 656 l 1
 163 246 l 2
 163 110 222 61 301 61 c 0
 380 61 440 110 440 246 c 2
 440 656 l 1
 521 656 l 1
 521 248 l 2
 521 60 429 -12 301 -12 c 0
 172 -12 79 60 79 248 c 2xd9
360 711 m 0xea
 307 711 278 763 241 763 c 0
 222 763 206 745 201 711 c 1
 155 711 l 1xd5
 161 773 192 819 240 819 c 0
 293 819 322 767 359 767 c 0xe6
 378 767 394 786 399 819 c 1
 445 819 l 1xda
 439 758 408 711 360 711 c 0xea
EndSplineSet
EndChar

StartChar: utilde
Encoding: 361 361 373
Width: 600
Flags: MW
HStem: -12 71<231.5 283.5> 0 21G<438 505 438 438> 466 20G<77 160 160 160 423 505 505 505> 579 55<153 256.5 333.5 360> 634 54<229.5 256.5>
VStem: 77 83<184 195 195 486> 153 47<579 579> 389 47<688 688> 423 82<149 486 0 486>
LayerCount: 2
Fore
SplineSet
505 486 m 1xac80
 505 0 l 1
 438 0 l 1x6a80
 431 85 l 1
 427 85 l 1
 378 28 321 -12 246 -12 c 0
 130 -12 77 56 77 184 c 2
 77 486 l 1
 160 486 l 1
 160 195 l 2
 160 103 191 59 272 59 c 0
 328 59 369 86 423 149 c 1
 423 486 l 1
 505 486 l 1xac80
153 579 m 1
 160 642 187 688 241 688 c 0
 289 688 318 634 349 634 c 0xb3
 371 634 383 652 389 688 c 1
 436 688 l 1
 430 626 402 579 349 579 c 0xad
 300 579 273 634 240 634 c 0
 219 634 206 616 200 579 c 1
 153 579 l 1
EndSplineSet
EndChar

StartChar: Umacron
Encoding: 362 362 194
Width: 600
Flags: MW
HStem: -12 73<261.5 340.5 261.5 365> 636 20G<79 163 163 163 440 521 521 521> 729 57<176 424 176 424>
VStem: 79 84<248 656> 176 248<729 786 729 786> 440 81<246 248 248 656>
LayerCount: 2
Fore
SplineSet
79 248 m 2
 79 656 l 1
 163 656 l 1
 163 246 l 2
 163 110 222 61 301 61 c 0
 380 61 440 110 440 246 c 2
 440 656 l 1
 521 656 l 1
 521 248 l 2
 521 60 429 -12 301 -12 c 0
 172 -12 79 60 79 248 c 2
176 729 m 1xfc
 176 786 l 1
 424 786 l 1
 424 729 l 1
 176 729 l 1xfc
EndSplineSet
EndChar

StartChar: umacron
Encoding: 363 363 375
Width: 600
Flags: MW
HStem: -12 71<231.5 283.5> 0 21G<438 505 438 438> 466 20G<77 160 160 160 423 505 505 505> 601 57<172 417 172 417>
VStem: 77 83<184 195 195 486> 172 245<601 658 601 658> 423 82<149 486 0 486>
LayerCount: 2
Fore
SplineSet
505 486 m 1xba
 505 0 l 1
 438 0 l 1x7a
 431 85 l 1
 427 85 l 1
 378 28 321 -12 246 -12 c 0
 130 -12 77 56 77 184 c 2
 77 486 l 1
 160 486 l 1
 160 195 l 2
 160 103 191 59 272 59 c 0
 328 59 369 86 423 149 c 1
 423 486 l 1
 505 486 l 1xba
172 601 m 1xbc
 172 658 l 1
 417 658 l 1
 417 601 l 1
 172 601 l 1xbc
EndSplineSet
EndChar

StartChar: Ubreve
Encoding: 364 364 195
Width: 600
Flags: MW
HStem: -12 73<261.5 340.5 261.5 365> 636 20G<79 163 163 163 440 521 521 521> 708 47<277.5 322.5 277.5 340>
VStem: 79 84<248 656> 440 81<246 248 248 656>
LayerCount: 2
Fore
SplineSet
79 248 m 2
 79 656 l 1
 163 656 l 1
 163 246 l 2
 163 110 222 61 301 61 c 0
 380 61 440 110 440 246 c 2
 440 656 l 1
 521 656 l 1
 521 248 l 2
 521 60 429 -12 301 -12 c 0
 172 -12 79 60 79 248 c 2
300 708 m 0
 220 708 184 762 177 818 c 1
 227 818 l 1
 233 786 255 755 300 755 c 0
 345 755 367 786 373 818 c 1
 423 818 l 1
 416 762 380 708 300 708 c 0
EndSplineSet
EndChar

StartChar: ubreve
Encoding: 365 365 376
Width: 600
Flags: MW
HStem: -12 71<231.5 283.5> 0 21G<438 505 438 438> 466 20G<77 160 160 160 423 505 505 505> 575 51<270.5 319.5 270.5 339>
VStem: 77 83<184 195 195 486> 165 51<709 709> 374 51<709 709> 423 82<149 486 0 486>
LayerCount: 2
Fore
SplineSet
505 486 m 1xb9
 505 0 l 1
 438 0 l 1x75
 431 85 l 1
 427 85 l 1
 378 28 321 -12 246 -12 c 0
 130 -12 77 56 77 184 c 2
 77 486 l 1
 160 486 l 1
 160 195 l 2
 160 103 191 59 272 59 c 0
 328 59 369 86 423 149 c 1
 423 486 l 1
 505 486 l 1xb9
295 575 m 0
 206 575 169 646 165 709 c 1
 216 709 l 1
 221 666 246 626 295 626 c 0
 344 626 368 666 374 709 c 1
 425 709 l 1xb6
 420 646 383 575 295 575 c 0
EndSplineSet
EndChar

StartChar: Uring
Encoding: 366 366 196
Width: 600
Flags: MW
HStem: -12 73<261.5 340.5 261.5 365> 636 20G<79 163 163 163 440 521 521 521> 699 36<286.5 312.5 286.5 326.5> 838 37<286.5 312.5>
VStem: 79 84<248 656> 207 45<770.5 802.5 770.5 813.5> 347 46<770.5 802.5> 440 81<246 248 248 656>
LayerCount: 2
Fore
SplineSet
79 248 m 2
 79 656 l 1
 163 656 l 1
 163 246 l 2
 163 110 222 61 301 61 c 0
 380 61 440 110 440 246 c 2
 440 656 l 1
 521 656 l 1
 521 248 l 2
 521 60 429 -12 301 -12 c 0
 172 -12 79 60 79 248 c 2
300 699 m 0
 246 699 207 733 207 787 c 0
 207 840 246 875 300 875 c 0
 353 875 393 840 393 787 c 0
 393 733 353 699 300 699 c 0
300 735 m 0
 325 735 347 754 347 787 c 0
 347 818 325 838 300 838 c 0
 273 838 252 818 252 787 c 0
 252 754 273 735 300 735 c 0
EndSplineSet
EndChar

StartChar: uring
Encoding: 367 367 377
Width: 600
Flags: MW
HStem: -12 71<231.5 283.5> 0 21G<438 505 438 438> 466 20G<77 160 160 160 423 505 505 505> 542 37<281.5 308 281.5 322> 690 37<281.5 308>
VStem: 77 83<184 195 195 486> 201 46<618 651.5 618 662.5> 343 45<618 651.5> 423 82<149 486 0 486>
LayerCount: 2
Fore
SplineSet
505 486 m 1xbf80
 505 0 l 1
 438 0 l 1x7f80
 431 85 l 1
 427 85 l 1
 378 28 321 -12 246 -12 c 0
 130 -12 77 56 77 184 c 2
 77 486 l 1
 160 486 l 1
 160 195 l 2
 160 103 191 59 272 59 c 0
 328 59 369 86 423 149 c 1
 423 486 l 1
 505 486 l 1xbf80
295 542 m 0
 240 542 201 579 201 635 c 0
 201 690 240 727 295 727 c 0
 349 727 388 690 388 635 c 0
 388 579 349 542 295 542 c 0
295 579 m 0
 321 579 343 601 343 635 c 0
 343 668 321 690 295 690 c 0
 268 690 247 668 247 635 c 0
 247 601 268 579 295 579 c 0
EndSplineSet
EndChar

StartChar: Uhungarumlaut
Encoding: 368 368 197
Width: 600
Flags: MW
HStem: -12 73<261.5 340.5 261.5 365> 636 20G<79 163 163 163 440 521 521 521> 706 112<191 334 191 334 257 408 257 349>
VStem: 79 84<248 656> 440 81<246 248 248 656>
LayerCount: 2
Fore
SplineSet
79 248 m 2
 79 656 l 1
 163 656 l 1
 163 246 l 2
 163 110 222 61 301 61 c 0
 380 61 440 110 440 246 c 2
 440 656 l 1
 521 656 l 1
 521 248 l 2
 521 60 429 -12 301 -12 c 0
 172 -12 79 60 79 248 c 2
251 706 m 1
 191 706 l 1
 257 818 l 1
 334 818 l 1
 251 706 l 1
349 706 m 1
 415 818 l 1
 492 818 l 1
 408 706 l 1
 349 706 l 1
EndSplineSet
EndChar

StartChar: uhungarumlaut
Encoding: 369 369 378
Width: 600
Flags: MW
HStem: -12 71<231.5 283.5> 0 21G<438 505 438 438> 466 20G<77 160 160 160 423 505 505 505> 571 143<197 339 197 339 267 398 267 344>
VStem: 77 83<184 195 195 486> 423 82<149 486 0 486>
LayerCount: 2
Fore
SplineSet
505 486 m 1xbc
 505 0 l 1
 438 0 l 1x7c
 431 85 l 1
 427 85 l 1
 378 28 321 -12 246 -12 c 0
 130 -12 77 56 77 184 c 2
 77 486 l 1
 160 486 l 1
 160 195 l 2
 160 103 191 59 272 59 c 0
 328 59 369 86 423 149 c 1
 423 486 l 1
 505 486 l 1xbc
197 571 m 1
 267 714 l 1
 339 714 l 1
 251 571 l 1
 197 571 l 1
344 571 m 1
 414 714 l 1
 486 714 l 1
 398 571 l 1
 344 571 l 1
EndSplineSet
EndChar

StartChar: Uogonek
Encoding: 370 370 205
Width: 600
GlyphClass: 2
Flags: MW
HStem: -212 59<331 340> -11 72 636 20G<79 163 163 163 440 521 521 521>
VStem: 79 84<248 656> 231 65<-122.5 -97.5> 440 81<246 248 248 656>
AnchorPoint: "Anchor-0" 299 678 basechar 0
LayerCount: 2
Fore
SplineSet
79 248 m 2
 79 656 l 1
 163 656 l 1
 163 246 l 2
 163 110 221 61 300 61 c 0
 379 61 440 110 440 246 c 2
 440 656 l 1
 521 656 l 1
 521 248 l 2
 521 112 471 39 397 5 c 0
 327 -27 296 -71 296 -107 c 0
 296 -138 319 -153 343 -153 c 0
 359 -153 371 -148 384 -139 c 1
 406 -184 l 1
 387 -199 353 -212 327 -212 c 0
 274 -212 231 -182 231 -125 c 0
 231 -70 271 -36 296 -11 c 1
 150 -9 79 83 79 248 c 2
EndSplineSet
Ligature2: "'ccmp' Glyph Composition/Decomposition in Latin lookup 6 subtable" U uni0328
EndChar

StartChar: uogonek
Encoding: 371 371 386
Width: 600
GlyphClass: 2
Flags: MW
HStem: -206 55<453 460.5> -12 71<231.5 283.5> 0 21G<505 505> 466 20G<77 160 160 160 423 505 505 505>
VStem: 77 83<184 195 195 486> 358 61<-120.5 -94> 423 82<149 486>
AnchorPoint: "Anchor-0" 295 508 basechar 0
LayerCount: 2
Fore
SplineSet
505 486 m 1xda
 505 0 l 1xba
 446 -29 419 -66 419 -105 c 0
 419 -136 441 -151 465 -151 c 0
 481 -151 494 -146 505 -138 c 1
 527 -179 l 1
 508 -194 473 -206 448 -206 c 0
 398 -206 358 -177 358 -121 c 0xdc
 358 -67 395 -27 438 4 c 1
 431 85 l 1
 427 85 l 1
 378 28 321 -12 246 -12 c 0
 130 -12 77 56 77 184 c 2
 77 486 l 1
 160 486 l 1
 160 195 l 2
 160 103 191 59 272 59 c 0
 328 59 369 86 423 149 c 1
 423 486 l 1
 505 486 l 1xda
EndSplineSet
Ligature2: "'ccmp' Glyph Composition/Decomposition in Latin lookup 6 subtable" u uni0328
EndChar

StartChar: Wcircumflex
Encoding: 372 372 214
Width: 600
Flags: MW
HStem: 0 83<111 163 160 163 160 201 443 447> 393 94<299 302 299 299> 637 20G<10 93 93 93 511 590 590 590> 706 112<164 340 164 340 260 369 260 436>
VStem: 10 580<657 657>
LayerCount: 2
Fore
SplineSet
111 0 m 1
 10 657 l 1
 93 657 l 1
 146 245 l 1
 149 190 156 137 160 83 c 1
 163 83 l 1
 177 137 192 191 205 245 c 1
 274 487 l 1
 333 487 l 1
 402 245 l 1
 414 192 429 137 443 83 c 1
 447 83 l 1
 451 137 457 191 461 245 c 1
 511 657 l 1
 590 657 l 1
 493 0 l 1
 401 0 l 1
 326 275 l 1
 317 314 309 354 302 393 c 1
 299 393 l 1
 291 354 283 314 273 275 c 2
 201 0 l 1
 111 0 l 1
231 706 m 1
 164 706 l 1
 260 818 l 1
 340 818 l 1
 436 706 l 1
 369 706 l 1
 302 774 l 1
 298 774 l 1
 231 706 l 1
EndSplineSet
EndChar

StartChar: wcircumflex
Encoding: 373 373 395
Width: 600
Flags: MW
HStem: 0 70<117 179 175 179 175 215 427 431> 387 70<298 302 298 298> 466 20G<8 92 92 92 514 592 592 592> 573 148<168 336 168 336 265 369 265 433> 672 49<298 302 298 298>
VStem: 8 584<486 486>
LayerCount: 2
Fore
SplineSet
117 0 m 1xb4
 8 486 l 1
 92 486 l 1xb4
 151 205 l 2
 160 159 168 115 175 70 c 1
 179 70 l 1
 188 115 197 160 208 205 c 2
 267 457 l 1
 337 457 l 1xf4
 397 205 l 2
 408 159 417 115 427 70 c 1
 431 70 l 1
 440 115 447 159 455 205 c 1
 514 486 l 1
 592 486 l 1xb4
 486 0 l 1
 387 0 l 1
 329 246 l 1
 320 292 312 338 302 387 c 1
 298 387 l 1xf4
 290 345 283 301 271 245 c 2
 215 0 l 1
 117 0 l 1xb4
168 573 m 1
 265 721 l 1
 336 721 l 1
 433 573 l 1
 369 573 l 1xb4
 302 672 l 1
 298 672 l 1xac
 231 573 l 1
 168 573 l 1
EndSplineSet
EndChar

StartChar: Ycircumflex
Encoding: 374 374 218
Width: 600
Flags: MW
HStem: 0 21G<258 258 258 342> 636 20G<38 126 126 126 476 562 562 562> 706 112<164 340 164 340 260 369 260 436>
VStem: 258 84<0 234 0 234>
LayerCount: 2
Fore
SplineSet
258 0 m 1
 258 234 l 1
 38 656 l 1
 126 656 l 1
 225 461 l 2
 250 411 273 361 300 308 c 1
 304 308 l 1
 330 361 356 411 381 462 c 2
 476 656 l 1
 562 656 l 1
 342 234 l 1
 342 0 l 1
 258 0 l 1
231 706 m 1
 164 706 l 1
 260 818 l 1
 340 818 l 1
 436 706 l 1
 369 706 l 1
 302 774 l 1
 298 774 l 1
 231 706 l 1
EndSplineSet
EndChar

StartChar: ycircumflex
Encoding: 375 375 399
Width: 600
Flags: MW
HStem: -209 68<120.5 162 120.5 186> 466 20G<49 132 132 132 473 551 551 551> 573 148<172 340 172 340 269 373 269 436> 672 49<302 306 302 302>
VStem: 49 502<486 486>
LayerCount: 2
Fore
SplineSet
84 -134 m 1xe8
 97 -138 113 -141 128 -141 c 0
 196 -141 237 -97 261 -37 c 2
 276 -1 l 1
 49 486 l 1
 132 486 l 1
 251 217 l 2
 270 174 291 123 311 76 c 1
 315 76 l 1
 332 122 351 173 367 217 c 1
 473 486 l 1
 551 486 l 1
 337 -40 l 1
 301 -136 241 -209 131 -209 c 0
 108 -209 84 -205 67 -199 c 1
 84 -134 l 1xe8
172 573 m 1
 269 721 l 1
 340 721 l 1
 436 573 l 1
 373 573 l 1xe8
 306 672 l 1
 302 672 l 1xd8
 235 573 l 1
 172 573 l 1
EndSplineSet
EndChar

StartChar: Ydieresis
Encoding: 376 376 219
Width: 600
Flags: MW
HStem: 0 21G<258 258 258 342> 636 20G<38 126 126 126 476 562 562 562> 715 98<199.5 228 372 400.5>
VStem: 165 98<750 778.5> 258 84<0 234 0 234> 337 98<750 778.5>
LayerCount: 2
Fore
SplineSet
258 0 m 1xe8
 258 234 l 1
 38 656 l 1
 126 656 l 1
 225 461 l 2
 250 411 273 361 300 308 c 1
 304 308 l 1
 330 361 356 411 381 462 c 2
 476 656 l 1
 562 656 l 1
 342 234 l 1
 342 0 l 1
 258 0 l 1xe8
214 715 m 0xf4
 185 715 165 736 165 764 c 0
 165 793 185 813 214 813 c 0
 242 813 263 793 263 764 c 0
 263 736 242 715 214 715 c 0xf4
386 715 m 0
 358 715 337 736 337 764 c 0
 337 793 358 813 386 813 c 0
 415 813 435 793 435 764 c 0
 435 736 415 715 386 715 c 0
EndSplineSet
EndChar

StartChar: Zacute
Encoding: 377 377 224
Width: 600
Flags: MW
HStem: 0 71<166 539 166 539> 587 70<97 432 97 534> 706 112<264 446 264 446>
VStem: 65 474<0 50 50 50>
LayerCount: 2
Fore
SplineSet
65 0 m 1
 65 50 l 1
 432 587 l 1
 97 587 l 1
 97 657 l 1
 534 657 l 1
 534 607 l 1
 166 71 l 1
 539 71 l 1
 539 0 l 1
 65 0 l 1
446 818 m 1
 333 706 l 1
 264 706 l 1
 352 818 l 1
 446 818 l 1
EndSplineSet
EndChar

StartChar: zacute
Encoding: 378 378 405
Width: 600
Flags: MW
HStem: 0 67<188 532 188 532> 419 67<108 404 108 522> 573 148<255 435 255 435>
VStem: 71 461<0 44 44 44>
LayerCount: 2
Fore
SplineSet
71 0 m 1
 71 44 l 1
 404 419 l 1
 108 419 l 1
 108 486 l 1
 522 486 l 1
 522 442 l 1
 188 67 l 1
 532 67 l 1
 532 0 l 1
 71 0 l 1
435 721 m 1
 318 573 l 1
 255 573 l 1
 345 721 l 1
 435 721 l 1
EndSplineSet
EndChar

StartChar: Zdotaccent
Encoding: 379 379 226
Width: 600
Flags: MW
HStem: 0 71<166 539 166 539> 587 70<97 432 97 534> 714 107<299 331>
VStem: 258 114<752 783.5>
LayerCount: 2
Fore
SplineSet
65 0 m 1
 65 50 l 1
 432 587 l 1
 97 587 l 1
 97 657 l 1
 534 657 l 1
 534 607 l 1
 166 71 l 1
 539 71 l 1
 539 0 l 1
 65 0 l 1
315 714 m 0
 283 714 258 736 258 768 c 0
 258 799 283 821 315 821 c 0
 347 821 372 799 372 768 c 0
 372 736 347 714 315 714 c 0
EndSplineSet
EndChar

StartChar: zdotaccent
Encoding: 380 380 407
Width: 600
Flags: MW
HStem: 0 67<188 532 188 532> 419 67<108 404 108 522> 586 127<301.5 339>
VStem: 254 132<630 668.5>
LayerCount: 2
Fore
SplineSet
71 0 m 1
 71 44 l 1
 404 419 l 1
 108 419 l 1
 108 486 l 1
 522 486 l 1
 522 442 l 1
 188 67 l 1
 532 67 l 1
 532 0 l 1
 71 0 l 1
320 586 m 0
 283 586 254 611 254 649 c 0
 254 688 283 713 320 713 c 0
 358 713 386 688 386 649 c 0
 386 611 358 586 320 586 c 0
EndSplineSet
EndChar

StartChar: Zcaron
Encoding: 381 381 225
Width: 600
Flags: MW
HStem: 0 71<166 539 166 539> 587 70<97 432 97 534> 706 112<180 355 180 276>
VStem: 65 474<0 50 50 50>
LayerCount: 2
Fore
SplineSet
65 0 m 1
 65 50 l 1
 432 587 l 1
 97 587 l 1
 97 657 l 1
 534 657 l 1
 534 607 l 1
 166 71 l 1
 539 71 l 1
 539 0 l 1
 65 0 l 1
384 818 m 1
 451 818 l 1
 355 706 l 1
 276 706 l 1
 180 818 l 1
 246 818 l 1
 313 750 l 1
 317 750 l 1
 384 818 l 1
EndSplineSet
EndChar

StartChar: zcaron
Encoding: 382 382 406
Width: 600
Flags: MW
HStem: 0 67<188 532 188 532> 419 67<108 404 108 522> 573 49<285 322 318 322 318 356> 573 148<188 285 188 356>
VStem: 71 461<0 44 44 44>
LayerCount: 2
Fore
SplineSet
71 0 m 1xd8
 71 44 l 1
 404 419 l 1
 108 419 l 1
 108 486 l 1
 522 486 l 1
 522 442 l 1
 188 67 l 1
 532 67 l 1
 532 0 l 1
 71 0 l 1xd8
285 573 m 1
 188 721 l 1
 251 721 l 1xd8
 318 622 l 1
 322 622 l 1xe8
 389 721 l 1
 452 721 l 1
 356 573 l 1
 285 573 l 1
EndSplineSet
EndChar

StartChar: uni0180
Encoding: 384 384 254
Width: 600
Flags: MW
HStem: -12 69<296.5 349.5 289.5 378> 0 21G<93 159 93 93> 409 69<309.5 366.5> 571 48<20 93 175 387> 571 141<20 175 20 175 93 175 93 387>
VStem: 93 82<114 336 498 571 619 712> 455 85<183 290.5>
LayerCount: 2
Fore
SplineSet
175 336 m 1xb6
 175 114 l 1
 221 73 272 57 307 57 c 0
 392 57 455 126 455 240 c 0
 455 341 415 409 318 409 c 0
 275 409 225 386 175 336 c 1xb6
175 498 m 1
 173 404 l 1
 219 449 281 478 338 478 c 0
 469 478 540 385 540 241 c 0
 540 81 436 -12 320 -12 c 0
 273 -12 215 13 169 54 c 1
 166 54 l 1xb6
 159 0 l 1
 93 0 l 1
 93 571 l 1
 20 571 l 1
 20 614 l 1
 93 619 l 1x76
 93 712 l 1
 175 712 l 1xae
 175 619 l 1
 387 619 l 1
 387 571 l 1
 175 571 l 1
 175 498 l 1
EndSplineSet
EndChar

StartChar: uni018F
Encoding: 399 399 230
Width: 600
GlyphClass: 2
Flags: MW
HStem: -12 71<258 347 258 376> 283.5 63.5 597 71<273 353>
VStem: 62 85<283 283 283 328.5> 467 83<347 347>
AnchorPoint: "Anchor-2" 321 -22 basechar 0
AnchorPoint: "Anchor-0" 317 678 basechar 0
LayerCount: 2
Fore
SplineSet
465 284 m 1
 147 283 l 1
 156 143 214 59 302 59 c 0
 392 59 454 145 465 284 c 1
169 538 m 1
 131 595 l 1
 172 637 229 668 306 668 c 0
 457 668 550 540 550 330 c 0
 550 120 450 -12 302 -12 c 0
 155 -12 62 123 62 325 c 0
 62 332 63 340 64 347 c 1
 467 347 l 1
 463 503 406 597 300 597 c 0
 246 597 202 572 169 538 c 1
EndSplineSet
EndChar

StartChar: uni0192
Encoding: 402 402 635
Width: 600
Flags: MW
HStem: -97 67<114.5 158.5 113.5 191> 345 63<221 255 341 483> 601 67<416 462 389 463.5> 628 20G<536 536>
VStem: 265 79.5
LayerCount: 2
Fore
SplineSet
536 648 m 1xd8
 516 586 l 1
 498 595 478 601 449 601 c 0
 383 601 356 539 348 471 c 2
 341 408 l 1
 483 408 l 1
 483 345 l 1
 334 345 l 1
 307 108 l 1
 292 -14 250 -97 132 -97 c 0
 97 -97 69 -88 49 -79 c 1
 65 -17 l 1
 83 -24 103 -30 124 -30 c 0
 193 -30 218 24 231 126 c 1
 255 345 l 1
 151 345 l 1
 151 404 l 1
 221 408 l 1
 262 408 l 1
 268 464 l 1
 285 597 333 668 445 668 c 0xe8
 479 668 514 659 536 648 c 1xd8
EndSplineSet
EndChar

StartChar: Ohorn
Encoding: 416 416 163
Width: 600
GlyphClass: 2
Flags: MW
HStem: -12 73<250 350 250 374> 595 73<250 321.5 226 350>
VStem: 48 86<249 412.5 249 436> 466 86<249 391 225.5 412.5> 495 67<683 710.5>
AnchorPoint: "Anchor-2" 299 -22 basechar 0
AnchorPoint: "Anchor-0" 299 678 basechar 0
LayerCount: 2
Fore
SplineSet
300 61 m 0xf0
 400 61 466 167 466 331 c 0
 466 494 400 595 300 595 c 0
 200 595 134 494 134 331 c 0
 134 167 200 61 300 61 c 0xf0
480 744 m 1xe8
 539 773 l 1
 553 755 562 733 562 708 c 0xe8
 562 649 520 616 460 602 c 1
 518 545 552 451 552 331 c 0xf0
 552 120 448 -12 300 -12 c 0
 152 -12 48 120 48 331 c 0
 48 541 152 668 300 668 c 0
 343 668 382 657 416 637 c 1
 468 645 495 663 495 703 c 0
 495 718 489 731 480 744 c 1xe8
EndSplineSet
EndChar

StartChar: ohorn
Encoding: 417 417 343
Width: 600
GlyphClass: 2
Flags: MW
HStem: -12 68<253.5 346.5 253.5 364> 430 46 430 68<253.5 318 236 346.5>
VStem: 60 85<186.5 298 186.5 323.5> 455 85<186.5 286.5 161.5 298> 488 68<523 549.5>
AnchorPoint: "Anchor-2" 300 -22 basechar 0
AnchorPoint: "Anchor-0" 300 508 basechar 0
LayerCount: 2
Fore
SplineSet
300 56 m 0xb8
 393 56 455 131 455 242 c 0
 455 354 393 430 300 430 c 0
 207 430 145 354 145 242 c 0
 145 131 207 56 300 56 c 0xb8
473 584 m 1xd4
 532 613 l 1
 546 595 556 573 556 548 c 0xb4
 556 490 514 457 456 443 c 1
 507 399 540 331 540 242 c 0
 540 81 428 -12 300 -12 c 0
 172 -12 60 81 60 242 c 0
 60 405 172 498 300 498 c 0xb8
 336 498 372 490 403 476 c 1
 461 484 488 504 488 542 c 0
 488 557 482 571 473 584 c 1xd4
EndSplineSet
EndChar

StartChar: uhorn
Encoding: 432 432 387
Width: 600
GlyphClass: 2
Flags: MW
HStem: -12 71<231.5 283.5> 0 21G<438 505 438 438> 466 20G<77 160 160 160 423 447 447 447>
VStem: 77 83<184 195 195 486> 423 82<149 454 0 486 0 486> 530 68<529.5 559.5>
AnchorPoint: "Anchor-2" 321 -22 basechar 0
AnchorPoint: "Anchor-0" 295 508 basechar 0
LayerCount: 2
Fore
SplineSet
516 594 m 1xbc
 575 623 l 1
 588 605 598 583 598 558 c 0xbc
 598 496 551 467 505 454 c 1
 505 0 l 1
 438 0 l 1x78
 431 85 l 1
 427 85 l 1
 378 28 321 -12 246 -12 c 0
 130 -12 77 56 77 184 c 2
 77 486 l 1
 160 486 l 1
 160 195 l 2
 160 103 191 59 272 59 c 0
 328 59 369 86 423 149 c 1
 423 486 l 1xb8
 447 486 l 1
 493 491 530 507 530 552 c 0
 530 567 524 581 516 594 c 1xbc
EndSplineSet
EndChar

StartChar: uni01CD
Encoding: 461 461 62
Width: 600
Flags: MW
HStem: 0 21G<32 117 32 32 480 568 480 480> 200 67<201 397 201 418 180 397> 588 68<297 301 297 297> 706 112<164 340 164 260>
VStem: 32 536<0 0>
LayerCount: 2
Fore
SplineSet
340 706 m 1
 260 706 l 1
 164 818 l 1
 231 818 l 1
 298 750 l 1
 302 750 l 1
 369 818 l 1
 436 818 l 1
 340 706 l 1
201 267 m 1
 397 267 l 1
 366 367 l 2
 343 440 322 512 301 588 c 1
 297 588 l 1
 276 512 255 440 232 367 c 2
 201 267 l 1
480 0 m 1
 418 200 l 1
 180 200 l 1
 117 0 l 1
 32 0 l 1
 253 656 l 1
 347 656 l 1
 568 0 l 1
 480 0 l 1
EndSplineSet
EndChar

StartChar: uni01CF
Encoding: 463 463 123
Width: 600
Flags: MW
HStem: 0 71<95 258 95 258 342 505> 586 70<95 258 95 505 342 342 342 505> 706 112<164 340 164 260>
VStem: 258 84<71 586 71 586>
LayerCount: 2
Fore
SplineSet
95 0 m 1
 95 71 l 1
 258 71 l 1
 258 586 l 1
 95 586 l 1
 95 656 l 1
 505 656 l 1
 505 586 l 1
 342 586 l 1
 342 71 l 1
 505 71 l 1
 505 0 l 1
 95 0 l 1
369 818 m 1
 436 818 l 1
 340 706 l 1
 260 706 l 1
 164 818 l 1
 231 818 l 1
 298 750 l 1
 302 750 l 1
 369 818 l 1
EndSplineSet
EndChar

StartChar: uni01D0
Encoding: 464 464 299
Width: 600
Flags: MW
HStem: 0 21G<316 398 316 316> 419 67<90 398 90 316> 573 49<312 350 346 350 346 383> 573 148<216 312 216 383>
VStem: 316 82<0 419 419 419>
LayerCount: 2
Fore
SplineSet
90 419 m 1xd8
 90 486 l 1
 398 486 l 1
 398 0 l 1
 316 0 l 1
 316 419 l 1
 90 419 l 1xd8
312 573 m 1
 216 721 l 1
 279 721 l 1xd8
 346 622 l 1
 350 622 l 1xe8
 417 721 l 1
 480 721 l 1
 383 573 l 1
 312 573 l 1
EndSplineSet
EndChar

StartChar: uni01D1
Encoding: 465 465 153
Width: 600
Flags: MW
HStem: -12 73<250 350 250 374> 595 73<250 350> 706 112<164 340 164 260>
VStem: 48 86<249 412.5 249 436> 466 86<249 412.5>
LayerCount: 2
Fore
SplineSet
300 -12 m 0
 152 -12 48 120 48 331 c 0
 48 541 152 668 300 668 c 0
 448 668 552 540 552 331 c 0
 552 120 448 -12 300 -12 c 0
300 61 m 0
 400 61 466 167 466 331 c 0
 466 494 400 595 300 595 c 0
 200 595 134 494 134 331 c 0
 134 167 200 61 300 61 c 0
369 818 m 1
 436 818 l 1
 340 706 l 1
 260 706 l 1
 164 818 l 1
 231 818 l 1
 298 750 l 1
 302 750 l 1
 369 818 l 1
EndSplineSet
EndChar

StartChar: uni01D2
Encoding: 466 466 333
Width: 600
Flags: MW
HStem: -12 68<253.5 346.5 253.5 364> 430 68<253.5 346.5> 573 49<265 302 298 302 298 335> 573 148<168 265 168 335>
VStem: 60 85<186.5 298 186.5 323.5> 455 85<186.5 298>
LayerCount: 2
Fore
SplineSet
60 242 m 0xdc
 60 405 172 498 300 498 c 0
 428 498 540 405 540 242 c 0
 540 81 428 -12 300 -12 c 0
 172 -12 60 81 60 242 c 0xdc
145 242 m 0
 145 131 207 56 300 56 c 0
 393 56 455 131 455 242 c 0
 455 354 393 430 300 430 c 0
 207 430 145 354 145 242 c 0
265 573 m 1
 168 721 l 1
 231 721 l 1xdc
 298 622 l 1
 302 622 l 1xec
 369 721 l 1
 432 721 l 1
 335 573 l 1
 265 573 l 1
EndSplineSet
EndChar

StartChar: uni01D3
Encoding: 467 467 198
Width: 600
Flags: MW
HStem: -12 73<261.5 340.5 261.5 365> 636 20G<79 163 163 163 440 521 521 521> 706 112<164 340 164 260>
VStem: 79 84<248 656> 440 81<246 248 248 656>
LayerCount: 2
Fore
SplineSet
79 248 m 2
 79 656 l 1
 163 656 l 1
 163 246 l 2
 163 110 222 61 301 61 c 0
 380 61 440 110 440 246 c 2
 440 656 l 1
 521 656 l 1
 521 248 l 2
 521 60 429 -12 301 -12 c 0
 172 -12 79 60 79 248 c 2
369 818 m 1
 436 818 l 1
 340 706 l 1
 260 706 l 1
 164 818 l 1
 231 818 l 1
 298 750 l 1
 302 750 l 1
 369 818 l 1
EndSplineSet
EndChar

StartChar: uni01D4
Encoding: 468 468 379
Width: 600
Flags: MW
HStem: -12 71<231.5 283.5> 0 21G<438 505 438 438> 466 20G<77 160 160 160 423 505 505 505> 573 49<259 297 293 297 293 330> 573 148<162 259 162 330>
VStem: 77 83<184 195 195 486> 423 82<149 486 0 486>
LayerCount: 2
Fore
SplineSet
505 486 m 1xae
 505 0 l 1
 438 0 l 1x6e
 431 85 l 1
 427 85 l 1
 378 28 321 -12 246 -12 c 0
 130 -12 77 56 77 184 c 2
 77 486 l 1
 160 486 l 1
 160 195 l 2
 160 103 191 59 272 59 c 0
 328 59 369 86 423 149 c 1
 423 486 l 1
 505 486 l 1xae
259 573 m 1
 162 721 l 1
 226 721 l 1xae
 293 622 l 1
 297 622 l 1xb6
 364 721 l 1
 427 721 l 1
 330 573 l 1
 259 573 l 1
EndSplineSet
EndChar

StartChar: uni01D5
Encoding: 469 469 199
Width: 600
Flags: MW
HStem: -12 73<261.5 340.5 261.5 365> 636 20G<79 163 163 163 440 521 521 521> 715 91<201 227 373 399> 861 46<176 424 176 424>
VStem: 79 84<248 656> 168 91<747.5 774> 176 248<861 907 861 907> 341 91<747.5 774> 440 81<246 248 248 656>
LayerCount: 2
Fore
SplineSet
79 248 m 2xf880
 79 656 l 1
 163 656 l 1
 163 246 l 2
 163 110 222 61 301 61 c 0
 380 61 440 110 440 246 c 2
 440 656 l 1
 521 656 l 1
 521 248 l 2
 521 60 429 -12 301 -12 c 0
 172 -12 79 60 79 248 c 2xf880
176 861 m 1xfa80
 176 907 l 1
 424 907 l 1
 424 861 l 1
 176 861 l 1xfa80
214 715 m 0xf580
 188 715 168 734 168 761 c 0
 168 787 188 806 214 806 c 0
 240 806 259 787 259 761 c 0
 259 734 240 715 214 715 c 0xf580
386 715 m 0
 360 715 341 734 341 761 c 0
 341 787 360 806 386 806 c 0
 412 806 432 787 432 761 c 0
 432 734 412 715 386 715 c 0
EndSplineSet
EndChar

StartChar: uni01D7
Encoding: 471 471 200
Width: 600
Flags: MW
HStem: -12 73<261.5 340.5 261.5 365> 636 20G<79 163 163 163 440 521 521 521> 715 91<201 227 373 399> 839 111<249 429 249 429>
VStem: 79 84<248 656> 168 91<747.5 774> 341 91<747.5 774> 440 81<246 248 248 656>
LayerCount: 2
Fore
SplineSet
79 248 m 2
 79 656 l 1
 163 656 l 1
 163 246 l 2
 163 110 222 61 301 61 c 0
 380 61 440 110 440 246 c 2
 440 656 l 1
 521 656 l 1
 521 248 l 2
 521 60 429 -12 301 -12 c 0
 172 -12 79 60 79 248 c 2
249 839 m 1
 338 950 l 1
 429 950 l 1
 317 839 l 1
 249 839 l 1
214 715 m 0xf7
 188 715 168 734 168 761 c 0
 168 787 188 806 214 806 c 0
 240 806 259 787 259 761 c 0
 259 734 240 715 214 715 c 0xf7
386 715 m 0
 360 715 341 734 341 761 c 0
 341 787 360 806 386 806 c 0
 412 806 432 787 432 761 c 0
 432 734 412 715 386 715 c 0
EndSplineSet
EndChar

StartChar: uni01D8
Encoding: 472 472 381
Width: 600
Flags: MW
HStem: -12 71<231.5 283.5> 0 21G<438 505 438 438> 466 20G<77 160 160 160 423 505 505 505> 588 91<195 221.5 368 394> 720 103<242 403 242 403>
VStem: 77 83<184 195 195 486> 163 91<620.5 646> 336 90<620.5 646> 423 82<149 486 0 486>
LayerCount: 2
Fore
SplineSet
505 486 m 1xbc80
 505 0 l 1
 438 0 l 1x7a80
 431 85 l 1
 427 85 l 1
 378 28 321 -12 246 -12 c 0
 130 -12 77 56 77 184 c 2
 77 486 l 1
 160 486 l 1
 160 195 l 2
 160 103 191 59 272 59 c 0
 328 59 369 86 423 149 c 1
 423 486 l 1
 505 486 l 1xbc80
242 720 m 1
 324 823 l 1
 403 823 l 1
 300 720 l 1
 242 720 l 1
208 588 m 0
 182 588 163 608 163 633 c 0
 163 659 182 679 208 679 c 0
 235 679 254 659 254 633 c 0
 254 608 235 588 208 588 c 0
381 588 m 0xbd
 355 588 336 608 336 633 c 0
 336 659 355 679 381 679 c 0
 407 679 426 659 426 633 c 0
 426 608 407 588 381 588 c 0xbd
EndSplineSet
EndChar

StartChar: uni01D9
Encoding: 473 473 201
Width: 600
Flags: MW
HStem: -12 73<261.5 340.5 261.5 365> 636 20G<79 163 163 163 440 521 521 521> 715 91<201 227 373 399> 839 111<164 340 164 260>
VStem: 79 84<248 656> 168 91<747.5 774> 341 91<747.5 774> 440 81<246 248 248 656>
LayerCount: 2
Fore
SplineSet
79 248 m 2
 79 656 l 1
 163 656 l 1
 163 246 l 2
 163 110 222 61 301 61 c 0
 380 61 440 110 440 246 c 2
 440 656 l 1
 521 656 l 1
 521 248 l 2
 521 60 429 -12 301 -12 c 0
 172 -12 79 60 79 248 c 2
214 715 m 0xf7
 188 715 168 734 168 761 c 0
 168 787 188 806 214 806 c 0
 240 806 259 787 259 761 c 0
 259 734 240 715 214 715 c 0xf7
386 715 m 0
 360 715 341 734 341 761 c 0
 341 787 360 806 386 806 c 0
 412 806 432 787 432 761 c 0
 432 734 412 715 386 715 c 0
369 950 m 1
 436 950 l 1
 340 839 l 1
 260 839 l 1
 164 950 l 1
 231 950 l 1
 298 882 l 1
 302 882 l 1
 369 950 l 1
EndSplineSet
EndChar

StartChar: Gcaron
Encoding: 486 486 108
Width: 600
Flags: MW
HStem: -12 73<277.5 365 277.5 379.5> 271 69<325 456 325 533> 595 73<282.5 375.5> 706 112<196 371 196 292>
VStem: 53 87<247.5 411.5 247.5 434> 456 77<100 271 271 271>
LayerCount: 2
Fore
SplineSet
53 328 m 0
 53 540 174 668 344 668 c 0
 431 668 488 627 525 588 c 1
 478 535 l 1
 446 569 407 595 344 595 c 0
 221 595 140 493 140 330 c 0
 140 165 213 61 342 61 c 0
 388 61 431 76 456 100 c 1
 456 271 l 1
 325 271 l 1
 325 340 l 1
 533 340 l 1
 533 64 l 1
 491 22 422 -12 337 -12 c 0
 172 -12 53 114 53 328 c 0
400 818 m 1
 467 818 l 1
 371 706 l 1
 292 706 l 1
 196 818 l 1
 262 818 l 1
 329 750 l 1
 333 750 l 1
 400 818 l 1
EndSplineSet
EndChar

StartChar: uni01EA
Encoding: 490 490 169
Width: 600
GlyphClass: 2
Flags: MW
HStem: -212 59<334.5 343> -11 72 595 73<250 350>
VStem: 48 86<249 412.5 249 436> 234 65<-122.5 -103> 466 86<249 412.5>
AnchorPoint: "Anchor-0" 300 678 basechar 0
LayerCount: 2
Fore
SplineSet
387 -139 m 1
 410 -184 l 1
 390 -199 356 -212 330 -212 c 0
 277 -212 234 -182 234 -125 c 0
 234 -81 261 -40 296 -11 c 1
 124 -6 48 157 48 331 c 0
 48 541 152 668 300 668 c 0
 448 668 552 540 552 331 c 0
 552 154 483 46 377 0 c 0
 323 -23 299 -71 299 -107 c 0
 299 -138 323 -153 346 -153 c 0
 362 -153 375 -148 387 -139 c 1
300 61 m 0
 400 61 466 167 466 331 c 0
 466 494 400 595 300 595 c 0
 200 595 134 494 134 331 c 0
 134 167 200 61 300 61 c 0
EndSplineSet
Ligature2: "'ccmp' Glyph Composition/Decomposition in Latin lookup 6 subtable" O uni0328
EndChar

StartChar: uni01EB
Encoding: 491 491 349
Width: 600
GlyphClass: 2
Flags: MW
HStem: -206 55<329 336.5> -11 67 430 68<253.5 346.5>
VStem: 60 85<186.5 298 186.5 323.5> 234 61<-120.5 -96> 455 85<186.5 298>
AnchorPoint: "Anchor-0" 300 508 basechar 0
LayerCount: 2
Fore
SplineSet
234 -121 m 0
 234 -71 267 -30 289 -11 c 1
 163 -6 60 88 60 242 c 0
 60 405 172 498 300 498 c 0
 428 498 540 405 540 242 c 0
 540 107 472 39 366 -4 c 1
 320 -25 295 -67 295 -105 c 0
 295 -136 317 -151 341 -151 c 0
 357 -151 369 -146 381 -138 c 1
 403 -179 l 1
 384 -194 349 -206 324 -206 c 0
 274 -206 234 -177 234 -121 c 0
145 242 m 0
 145 131 207 56 300 56 c 0
 393 56 455 131 455 242 c 0
 455 354 393 430 300 430 c 0
 207 430 145 354 145 242 c 0
EndSplineSet
Ligature2: "'ccmp' Glyph Composition/Decomposition in Latin lookup 6 subtable" o uni0328
EndChar

StartChar: uni0218
Encoding: 536 536 180
Width: 600
Flags: MW
HStem: -216 40<225 233> -12 73<270 352.5 270 377> 595 73<273.5 345.5>
VStem: 98 85<467.5 528.5 467.5 544> 314 64<-143 -117> 452 85<136 201.5>
LayerCount: 2
Fore
SplineSet
67 85 m 1
 117 143 l 1
 166 94 234 61 306 61 c 0
 399 61 452 104 452 168 c 0
 452 235 401 256 334 284 c 1
 240 325 l 1
 174 351 98 398 98 494 c 0
 98 594 188 668 313 668 c 0
 395 668 467 635 515 587 c 1
 471 533 l 1
 428 571 378 595 313 595 c 0
 234 595 183 558 183 499 c 0
 183 436 244 413 300 390 c 1
 392 350 l 1
 473 317 537 272 537 175 c 0
 537 71 449 -12 305 -12 c 0
 209 -12 126 26 67 85 c 1
281 -48 m 1
 349 -58 378 -80 378 -125 c 0
 378 -183 309 -210 233 -216 c 1
 225 -176 l 1
 278 -169 314 -156 314 -130 c 0
 314 -104 291 -93 263 -86 c 1
 281 -48 l 1
EndSplineSet
EndChar

StartChar: uni0219
Encoding: 537 537 360
Width: 600
Flags: MW
HStem: -216 21G<233 233> -216 40<225 233> -12 64<269.5 356.5 269.5 379.5> 434 64<258.5 334>
VStem: 100 84<344 383 344 399> 314 64<-143 -117> 443 83<107 147>
LayerCount: 2
Fore
SplineSet
72 64 m 1xbe
 112 118 l 1
 166 78 226 52 313 52 c 0
 400 52 443 86 443 128 c 0
 443 166 404 193 285 222 c 0
 185 247 100 291 100 360 c 0
 100 438 170 498 304 498 c 0
 377 498 451 469 499 436 c 1
 459 383 l 1
 416 413 364 434 304 434 c 0
 213 434 184 402 184 364 c 0
 184 324 244 300 332 278 c 0
 463 245 526 207 526 133 c 0
 526 54 449 -12 310 -12 c 0
 215 -12 131 23 72 64 c 1xbe
281 -48 m 1
 348 -58 378 -80 378 -125 c 0
 378 -183 309 -210 233 -216 c 1
 225 -176 l 1
 277 -169 314 -156 314 -130 c 0
 314 -104 291 -93 263 -86 c 1x7e
 281 -48 l 1
EndSplineSet
EndChar
